<?xml version="1.0" standalone="no"?>
<!DOCTYPE svg PUBLIC "-//W3C//DTD SVG 1.1//EN" "http://www.w3.org/Graphics/SVG/1.1/DTD/svg11.dtd" >
<svg xmlns="http://www.w3.org/2000/svg" xmlns:xlink="http://www.w3.org/1999/xlink" version="1.1">
<metadata></metadata>
<defs>
<font id="flanders_art_serifregular" horiz-adv-x="1308" >
<font-face units-per-em="2048" ascent="1536" descent="-512" />
<missing-glyph horiz-adv-x="600" />
<glyph unicode="&#xfb01;" horiz-adv-x="1145" d="M41 895v143h168v4q0 115 23 195.5t67 126t101 65t134 19.5q53 0 111.5 -8t115 -23t94 -26t82 -26.5t45.5 -15.5q-1 -202 -7 -212q-12 -12 -61 -12q-39 0 -53 8q-21 88 -25 114q-185 58 -292 58q-92 0 -136.5 -57.5t-44.5 -205.5v-4h622v-897q68 -10 111 -20q9 -13 9 -52 q0 -47 -12 -61q-14 -8 -127 -8h-116q-113 0 -127 8q-12 14 -12 61q0 38 9 52q46 11 111 20v754h-468v-754q68 -10 111 -20q9 -14 9 -52q0 -47 -12 -61q-14 -8 -127 -8h-116q-113 0 -127 8q-12 14 -12 61q0 38 9 52q46 11 111 20v754h-168z" />
<glyph unicode="&#xfb02;" horiz-adv-x="1140" d="M41 894v144h168v12q0 99 17 170.5t46.5 115t76 69t96.5 34.5t118 9q115 0 263 -20l144 20h10v-1307q68 -10 111 -20q9 -13 9 -52q0 -47 -12 -61q-14 -8 -127 -8h-116q-113 0 -127 8q-12 14 -12 61q0 38 9 52q46 11 111 20v1148q-134 17 -220 17q-58 0 -98.5 -10 t-75.5 -37t-52 -79t-17 -130v-12h234v-144h-234v-753q68 -10 111 -20q9 -14 9 -52q0 -47 -12 -61q-14 -8 -127 -8h-116q-113 0 -127 8q-12 14 -12 61q0 38 9 52q46 11 111 20v753h-168z" />
<glyph horiz-adv-x="0" />
<glyph horiz-adv-x="682" />
<glyph unicode="&#xd;" horiz-adv-x="0" />
<glyph unicode=" "  horiz-adv-x="600" />
<glyph unicode="&#x09;" horiz-adv-x="600" />
<glyph unicode="&#xa0;" horiz-adv-x="600" />
<glyph unicode="!" horiz-adv-x="467" d="M120 92q0 46 33.5 79t79.5 33q47 0 80.5 -33t33.5 -79t-33.5 -79t-80.5 -33q-46 0 -79.5 33t-33.5 79zM155 1428h164q0 -249 -7.5 -587t-19.5 -435h-112q-12 96 -18.5 428t-6.5 594z" />
<glyph unicode="&#x22;" horiz-adv-x="718" d="M80 1099q49 84 49 130t-45 107q0 46 33 79t79 33q43 0 79 -30.5t36 -92.5q0 -80 -59.5 -161.5t-129.5 -118.5zM407 1099q49 81 49 130q0 47 -44 107q0 46 33 79t79 33q43 0 78.5 -30.5t35.5 -92.5q0 -80 -59 -161.5t-129 -118.5z" />
<glyph unicode="#" horiz-adv-x="1153" d="M40 386l53 144h161l70 261h-237l-6 6l53 144h230l75 280l6 3l139 -51l-62 -232h276l75 280l6 3l139 -51l-62 -232h152l5 -6l-53 -144h-144l-70 -261h221l5 -6l-53 -144h-213l-79 -299l-4 -2l-141 52l66 249h-276l-79 -299l-4 -2l-141 52l66 249h-168zM412 530h276l70 261 h-276z" />
<glyph unicode="$" horiz-adv-x="919" d="M90 38v140q0 112 7 126q12 12 61 12q39 0 53 -8q19 -84 27 -171q75 -13 145 -13q84 0 148.5 19t109 69.5t44.5 128.5q0 63 -28.5 106.5t-87.5 80.5q-43 28 -184 98t-184 105q-104 83 -104 252q0 149 78.5 233.5t206.5 109.5v122h154v-111q98 -4 201 -34v-132 q0 -112 -7 -126q-12 -12 -61 -12q-39 0 -53 8q-14 55 -26 150q-47 5 -85 5q-267 0 -267 -201q0 -87 57 -138q37 -32 174.5 -101.5t194.5 -105.5q82 -52 123.5 -112.5t41.5 -162.5q0 -143 -81 -237t-212 -133v-154h-154v130q-8 -1 -23 -1q-147 0 -269 58z" />
<glyph unicode="%" horiz-adv-x="1638" d="M80 1000q0 143 93 240.5t237 97.5q143 0 233.5 -96.5t90.5 -236.5q0 -143 -93 -240t-237 -97q-143 0 -233.5 96t-90.5 236zM220 1001q0 -80 51.5 -135t133.5 -55q83 0 136 56t53 138q0 79 -52 134.5t-133 55.5q-83 0 -136 -56t-53 -138zM432 241l646 924l126 -88 l-646 -924zM904 312q0 143 93 240.5t237 97.5q143 0 233.5 -96.5t90.5 -236.5q0 -143 -93 -240t-237 -97q-143 0 -233.5 96t-90.5 236zM1044 313q0 -80 51.5 -135t133.5 -55q83 0 136 56t53 138q0 79 -52 134.5t-133 55.5q-83 0 -136 -56t-53 -138z" />
<glyph unicode="&#x26;" horiz-adv-x="1252" d="M80 365q0 116 56.5 201.5t177.5 158.5q-118 121 -118 291q0 145 88 233.5t237 88.5q133 0 222 -73.5t89 -213.5q0 -57 -17.5 -106t-42.5 -82t-66.5 -64.5t-73.5 -49t-80 -40.5l322 -323q69 140 104 344h8l134 -54q-40 -241 -134 -401l186 -186l-107 -109l-171 170 q-158 -170 -392 -170q-187 0 -304.5 103t-117.5 282zM234 362q0 -108 70 -173t195 -65q172 0 289 132l-379 379q-175 -108 -175 -273zM350 1029q0 -123 109 -228q13 5 16 7q34 15 55.5 26t53 33t50 45t32.5 58.5t14 77.5q0 146 -155 146q-86 0 -130.5 -44t-44.5 -121z" />
<glyph unicode="'" horiz-adv-x="391" d="M80 1099q49 84 49 130t-45 107q0 46 33 79t79 33q43 0 79 -30.5t36 -92.5q0 -80 -59.5 -161.5t-129.5 -118.5z" />
<glyph unicode="(" horiz-adv-x="570" d="M120 680q0 393 215 768h4l111 -98q-161 -333 -161 -664q0 -329 161 -605l-114 -101h-4q-212 315 -212 700z" />
<glyph unicode=")" horiz-adv-x="570" d="M120 81q161 276 161 605q0 331 -161 664l111 98h4q215 -375 215 -768q0 -385 -212 -700h-4z" />
<glyph unicode="*" horiz-adv-x="909" d="M50 475v164q147 0 311 -26q-115 120 -199 241l134 94q87 -125 159 -269q77 155 158 269l134 -94q-83 -120 -197 -240q164 25 309 25v-164q-156 0 -306 23q105 -111 194 -238l-134 -94q-82 117 -158 268q-76 -150 -159 -268l-134 94q80 115 197 238q-151 -23 -309 -23z M371 505l84 -59l85 60l-2 104l-85 58l-82 -59v-104z" />
<glyph unicode="+" horiz-adv-x="1030" d="M120 438v154h318v318h154v-318h318v-154h-318v-318h-154v318h-318z" />
<glyph unicode="," horiz-adv-x="392" d="M80 -145q50 83 50 130q0 46 -45 107q0 46 33 79t79 33q43 0 79 -30.5t36 -92.5q0 -80 -59.5 -161.5t-129.5 -118.5z" />
<glyph unicode="-" horiz-adv-x="600" d="M50 474v144h500v-144h-500z" />
<glyph unicode="." horiz-adv-x="387" d="M80 92q0 46 33.5 79t79.5 33q47 0 80.5 -33t33.5 -79t-33.5 -79t-80.5 -33q-46 0 -79.5 33t-33.5 79z" />
<glyph unicode="/" horiz-adv-x="971" d="M120 -168l588 1616l144 -53l-588 -1616z" />
<glyph unicode="0" horiz-adv-x="1112" d="M80 663q0 327 127.5 501t344.5 174q218 0 349 -177t131 -515q-4 -332 -133 -499t-347 -167q-105 0 -188.5 42t-135.5 109.5t-86.5 159t-48 183t-13.5 189.5zM235 662q0 -538 318 -538q81 0 139 27t100.5 89t63.5 167.5t21 257.5q0 279 -82 404t-242 125t-239 -131.5 t-79 -400.5z" />
<glyph unicode="1" horiz-adv-x="618" d="M40 1079v145q100 0 173 26q56 19 132 68h113v-1177q68 -10 111 -20q9 -14 9 -52q0 -47 -12 -61q-14 -8 -127 -8h-116q-113 0 -127 8q-12 14 -12 61q0 38 9 52q46 11 111 20v984q-129 -46 -264 -46z" />
<glyph unicode="2" horiz-adv-x="1008" d="M30 0v144q706 499 706 805q0 111 -79.5 177.5t-206.5 66.5q-94 0 -189 -35q-8 -127 -31 -195q-17 -9 -59 -8t-55 12q-7 14 -7 265q74 47 180 76.5t199 29.5q79 0 148.5 -23.5t123.5 -68t85.5 -117t31.5 -164.5q0 -86 -29 -170.5t-80 -162t-131 -161.5t-171 -160.5 t-212 -166.5h530q8 65 23 130q14 8 53 8q49 0 61 -12q7 -14 7 -126v-144h-898z" />
<glyph unicode="3" horiz-adv-x="973" d="M45 91v68q0 112 7 126q12 12 61 12q39 0 53 -8q13 -63 21 -120q127 -47 245 -47q135 0 226.5 72.5t91.5 181.5q0 83 -59.5 139t-145.5 79t-189 23h-132v140h156q39 0 78.5 8t79 27t69.5 46t49 68.5t19 91.5q0 96 -71 147.5t-179 51.5q-93 0 -188 -36q-13 -95 -24 -141 q-14 -8 -53 -8q-49 0 -61 12q-7 14 -7 126v84q82 51 177.5 77.5t178.5 26.5q49 0 98.5 -9t101 -33t91 -60t64.5 -95t25 -133q0 -197 -166 -306q242 -89 242 -338q0 -82 -28.5 -148.5t-74.5 -109.5t-106 -72t-120.5 -41.5t-121.5 -12.5q-95 0 -212 29t-196 82z" />
<glyph unicode="4" horiz-adv-x="970" d="M20 300v143l593 875h176v-875h152v-143h-152v-300h-154v300h-615zM203 443h432v634z" />
<glyph unicode="5" horiz-adv-x="973" d="M70 91v81q0 112 7 126q12 12 61 12q39 0 53 -8q15 -68 23 -134q126 -46 239 -46q133 0 214.5 84.5t81.5 210.5q0 138 -113.5 193.5t-362.5 55.5h-140l69 625v27h645v-142h-517l-40 -369q69 0 121 -2.5t119.5 -12t117 -25.5t100.5 -45.5t83 -70t52.5 -101.5t20.5 -138 q0 -109 -38.5 -194.5t-102.5 -136t-140.5 -76t-159.5 -25.5q-94 0 -205.5 29.5t-187.5 81.5z" />
<glyph unicode="6" horiz-adv-x="968" d="M80 457q0 128 25 249.5t82.5 237.5t142 202.5t214.5 139t290 52.5v-144q-93 0 -172 -20.5t-137 -58t-103 -83t-77 -102t-52.5 -108t-34.5 -108.5q119 93 260 93q157 0 264 -113t107 -270q0 -53 -12.5 -109.5t-43 -117.5t-76 -108.5t-118 -78t-162.5 -30.5 q-101 0 -178.5 37.5t-124.5 104t-70.5 151t-23.5 184.5zM228 458q0 -158 79 -245.5t193 -87.5q58 0 104.5 25t74 65.5t42 89.5t14.5 100q0 118 -71 187.5t-167 69.5q-111 0 -264 -100q-5 -46 -5 -104z" />
<glyph unicode="7" horiz-adv-x="838" d="M50 1308v10h768l-532 -1318h-154l473 1174h-407q-3 -31 -27 -135q-14 -8 -53 -8q-49 0 -61 12q-7 14 -7 265z" />
<glyph unicode="8" horiz-adv-x="988" d="M60 339q0 71 23.5 129t66.5 99.5t85 68.5t97 52q-103 57 -158 130.5t-55 182.5q0 106 54 184t138 115.5t183 37.5q72 0 138.5 -21.5t120 -62.5t85.5 -106.5t32 -146.5q0 -108 -54.5 -181.5t-158.5 -131.5q58 -27 102 -56t85 -70.5t63 -98t22 -124.5q0 -87 -37.5 -157 t-99.5 -113t-138.5 -66t-159.5 -23q-84 0 -160.5 23t-138 66.5t-98.5 113.5t-37 156zM214 333q0 -96 83.5 -152.5t196.5 -56.5t197 56.5t84 155.5q0 33 -10 62.5t-32.5 55t-44.5 45t-60 41t-63.5 34.5t-70.5 34q-47 -23 -72 -35.5t-64 -34.5t-59.5 -41t-43 -44.5t-32 -55.5 t-9.5 -64zM274 1002q0 -86 57 -142t163 -102q107 46 164 102.5t57 140.5q0 93 -66 143t-155 50q-90 0 -155 -49.5t-65 -142.5z" />
<glyph unicode="9" horiz-adv-x="968" d="M80 894q0 53 12.5 109.5t43 117.5t76 108.5t118 78t162.5 30.5q101 0 178.5 -37.5t124.5 -104t70.5 -151t23.5 -184.5q0 -128 -25 -249.5t-82.5 -237.5t-142 -202.5t-214.5 -139t-290 -52.5v144q110 0 201.5 30.5t152 77.5t107.5 113t72.5 127.5t42.5 130.5 q-118 -92 -260 -92q-157 0 -264 113t-107 270zM234 913q0 -118 71 -187.5t167 -69.5q111 0 264 100q5 56 5 104q0 158 -79 245.5t-193 87.5q-58 0 -104.5 -25t-74 -65.5t-42 -89.5t-14.5 -100z" />
<glyph unicode=":" horiz-adv-x="387" d="M80 92q0 46 33.5 79t79.5 33q47 0 80.5 -33t33.5 -79t-33.5 -79t-80.5 -33q-46 0 -79.5 33t-33.5 79zM80 946q0 46 33.5 79t79.5 33q47 0 80.5 -33t33.5 -79t-33.5 -79t-80.5 -33q-46 0 -79.5 33t-33.5 79z" />
<glyph unicode=";" horiz-adv-x="392" d="M80 -145q50 83 50 130q0 46 -45 107q0 46 33 79t79 33q43 0 79 -30.5t36 -92.5q0 -80 -59.5 -161.5t-129.5 -118.5zM84 946q0 46 33.5 79t79.5 33q47 0 80.5 -33t33.5 -79t-33.5 -79t-80.5 -33q-46 0 -79.5 33t-33.5 79z" />
<glyph unicode="&#x3c;" horiz-adv-x="918" d="M120 518l590 413l88 -125l-411 -288l411 -288l-88 -125z" />
<glyph unicode="=" horiz-adv-x="1030" d="M120 284v154h790v-154h-790zM120 592v154h790v-154h-790z" />
<glyph unicode="&#x3e;" horiz-adv-x="918" d="M120 230l411 288l-411 288l88 125l590 -413l-590 -413z" />
<glyph unicode="?" horiz-adv-x="975" d="M120 1306q49 63 143.5 102.5t201.5 39.5q75 0 143.5 -21t124.5 -61t89.5 -107t33.5 -152q0 -66 -21 -120t-55 -93t-74.5 -76.5t-81 -81t-74.5 -95t-55 -130.5t-21 -177h-154q0 105 21.5 191.5t55.5 143.5t75 104.5t82 84t75 71.5t55.5 77.5t21.5 91.5q0 91 -66.5 147 t-186.5 56q-88 0 -167 -30t-115 -80h-9zM285 92q0 46 33.5 79t79.5 33q47 0 80.5 -33t33.5 -79t-33.5 -79t-80.5 -33q-46 0 -79.5 33t-33.5 79z" />
<glyph unicode="@" horiz-adv-x="1422" d="M80 535q0 136 39 248.5t105.5 188.5t156 128.5t188.5 76.5t205 24q104 0 176.5 -16t125.5 -54.5t78 -105t25 -165.5v-263q0 -48 4.5 -83t18 -73t44 -65t76.5 -41l-88 -145q-103 34 -157 145q-128 -145 -320 -145q-45 0 -88.5 8t-89.5 30.5t-80.5 57t-56.5 92t-22 131.5 q0 150 94.5 225.5t301.5 75.5q71 0 209 -12v62q0 109 -62 153.5t-192 44.5q-249 0 -393 -134t-144 -380q0 -243 136 -398t367 -155q219 0 325 97l104 -94q-80 -76 -193.5 -111.5t-235.5 -35.5q-199 0 -349.5 89.5t-229 245t-78.5 353.5zM573 510q0 -85 54 -130.5t140 -45.5 q28 0 57 4.5t67 20.5t66 41.5t48 73t20 109.5v84q-19 0 -53 0.5t-50 0.5q-74 0 -122.5 -3t-95.5 -12t-73 -26t-42 -46t-16 -71z" />
<glyph unicode="A" d="M30 69q0 38 9 52q49 12 106 19l405 1178h207l405 -1178q59 -7 107 -19q9 -13 9 -52q0 -47 -12 -61q-14 -8 -127 -8h-116q-113 0 -127 8q-12 14 -12 61q0 38 9 52q47 11 109 20l-57 166h-582l-58 -166q65 -10 110 -20q9 -14 9 -52q0 -47 -12 -61q-14 -8 -127 -8h-116 q-113 0 -127 8q-12 14 -12 61zM412 451h484l-242 701z" />
<glyph unicode="B" horiz-adv-x="1106" d="M40 69q0 38 9 52q46 11 111 20v1035q-54 8 -111 21q-9 13 -9 52q0 47 12 61q14 8 127 8h181q320 0 461.5 -78t141.5 -273q0 -188 -118 -273q103 -41 152 -117t49 -193q0 -74 -18.5 -132.5t-49 -98.5t-81 -69t-101.5 -45t-124.5 -25t-136 -11.5t-149.5 -2.5h-207 q-113 0 -127 8q-12 14 -12 61zM315 146h101q76 0 127 1.5t105 7t88.5 15t67 26t49.5 40t27.5 57t10.5 77.5q0 60 -19 102.5t-51.5 68.5t-88.5 40t-117.5 19t-151.5 5h-148v-459zM315 751h57q59 0 92.5 0.5t79.5 2.5t71 5.5t58 10.5t50 17t36.5 25t28.5 35t15 46t6 59 q0 51 -11.5 87.5t-39 61t-59.5 39.5t-86 22t-104.5 9.5t-128.5 2.5h-65v-423z" />
<glyph unicode="C" horiz-adv-x="1081" d="M80 680q3 141 44.5 259.5t121 208t205 140t286.5 50.5q162 0 304 -41v-142q0 -112 -7 -126q-12 -12 -61 -12q-39 0 -53 8q-17 69 -26 157q-85 11 -149 11q-249 0 -380 -144.5t-131 -388.5q0 -242 131 -388.5t380 -146.5q64 0 149 11q9 88 26 157q14 8 53 8q49 0 61 -12 q7 -14 7 -126v-142q-142 -41 -304 -41t-288 51.5t-206 145t-121.5 221t-41.5 282.5z" />
<glyph unicode="D" horiz-adv-x="1298" d="M40 69q0 38 9 52q46 11 111 20v1035q-54 8 -111 21q-9 13 -9 52q0 47 12 61q14 8 127 8h354q191 0 347.5 -84t247 -235t90.5 -339q0 -189 -86.5 -340t-239.5 -235.5t-343 -84.5h-370q-113 0 -127 8q-12 14 -12 61zM315 144h234q236 0 375 138.5t139 361.5 q0 153 -71.5 275.5t-192.5 188.5t-266 66h-218v-1030z" />
<glyph unicode="E" horiz-adv-x="998" d="M40 69q0 38 9 52q46 11 111 20v1035q-54 8 -111 21q-9 13 -9 52q0 47 12 61q14 8 127 8h775v-144q0 -112 -7 -126q-12 -12 -61 -12q-39 0 -53 8q-15 67 -23 130h-495v-443h391q8 65 23 130q14 8 53 8q49 0 61 -12q7 -14 7 -126v-144q0 -112 -7 -126q-12 -12 -61 -12 q-39 0 -53 8q-15 67 -23 130h-391v-443h495q8 65 23 130q14 8 53 8q49 0 61 -12q7 -14 7 -126v-144h-775q-113 0 -127 8q-12 14 -12 61z" />
<glyph unicode="F" horiz-adv-x="1011" d="M40 69q0 38 9 52q46 11 111 20v1035q-54 8 -111 21q-9 13 -9 52q0 47 12 61q14 8 127 8h787v-144q0 -112 -7 -126q-12 -12 -61 -12q-39 0 -53 8q-15 67 -23 130h-507v-438h379q9 69 22 125q14 8 53 8q49 0 61 -12q7 -14 7 -126v-144q0 -112 -7 -126q-12 -12 -61 -12 q-39 0 -53 8q-15 61 -23 125h-378v-441q68 -10 111 -20q9 -14 9 -52q0 -47 -12 -61q-12 -8 -108 -8h-155q-96 0 -108 8q-12 14 -12 61z" />
<glyph unicode="G" horiz-adv-x="1268" d="M80 667q0 112 25 211.5t77.5 184t129 145.5t184 95.5t237.5 34.5q167 0 309 -41v-142q0 -112 -7 -126q-12 -12 -61 -12q-39 0 -53 8q-17 69 -26 157q-76 11 -150 11q-125 0 -223.5 -40.5t-160.5 -111t-94 -163.5t-32 -202q0 -153 59.5 -279t167 -199.5t241.5 -73.5 q102 0 172 37t102 77v331h-285v155h436v-726h-59l-92 71q-130 -89 -291 -89q-179 0 -317.5 89t-213.5 245.5t-75 352.5z" />
<glyph unicode="H" horiz-adv-x="1274" d="M40 69q0 38 9 52q46 11 111 20v1035q-54 8 -111 21q-9 13 -9 52q0 47 12 61q12 6 108 8h136q113 0 127 -8q12 -14 12 -61q0 -39 -9 -52q-55 -13 -111 -21v-440h643v441q-65 10 -110 20q-9 13 -9 52q0 47 12 61q14 8 127 8h117q113 0 127 -8q12 -14 12 -61q0 -39 -9 -52 q-60 -14 -112 -21v-1035q64 -9 112 -20q9 -13 9 -52q0 -47 -12 -61q-14 -8 -127 -8h-117q-113 0 -127 8q-12 14 -12 61q0 38 9 52q45 10 110 20v441h-643v-441q65 -10 110 -20q9 -14 9 -52q0 -47 -12 -61q-9 -6 -107 -8h-155q-96 0 -108 8q-12 14 -12 61z" />
<glyph unicode="I" horiz-adv-x="474" d="M40 69q0 38 9 52q46 11 111 20v1035q-54 8 -111 21q-9 13 -9 52q0 47 12 61q14 8 127 8h116q113 0 127 -8q12 -14 12 -61q0 -39 -9 -52q-55 -13 -111 -21v-1035q68 -10 111 -20q9 -14 9 -52q0 -47 -12 -61q-14 -8 -127 -8h-116q-113 0 -127 8q-12 14 -12 61z" />
<glyph unicode="J" horiz-adv-x="701" d="M60 -5v129q0 112 7 126q12 12 61 12q39 0 53 -8q11 -50 23 -131q85 0 136 63t51 198v792q-54 8 -111 21q-9 13 -9 52q0 47 12 61q14 8 127 8h117q113 0 127 -8q12 -14 12 -61q0 -39 -9 -52q-55 -13 -111 -21v-792q0 -206 -96 -305t-253 -99q-73 0 -137 15z" />
<glyph unicode="K" horiz-adv-x="1120" d="M40 69q0 38 9 52q46 11 111 20v1035q-54 8 -111 21q-9 13 -9 52q0 47 12 61q12 6 108 8h136q113 0 127 -8q12 -14 12 -61q0 -39 -9 -52q-55 -13 -111 -21v-476l409 486q-47 10 -49 11q-9 13 -9 52q0 47 12 61q14 8 127 8h117q113 0 127 -8q12 -14 12 -61q0 -39 -9 -52 q-58 -14 -143 -25l-403 -478q50 -96 183 -241t263 -244q45 45 65 55q42 -6 83 -53q-5 -28 -38 -86.5t-84 -124.5q-2 0 -6 2q-101 47 -244 177t-259 272t-154 231v-541q68 -10 111 -20q9 -14 9 -52q0 -47 -12 -61q-12 -8 -108 -8h-155q-96 0 -108 8q-12 14 -12 61z" />
<glyph unicode="L" horiz-adv-x="968" d="M40 69q0 38 9 52q54 12 101 19v1038q-53 7 -101 19q-9 13 -9 52q0 47 12 61q14 8 127 8h116q113 0 127 -8q12 -14 12 -61q0 -39 -9 -52q-55 -13 -120 -22v-1031h475q8 65 23 130q14 8 53 8q49 0 61 -12q7 -14 7 -126v-144h-745q-113 0 -127 8q-12 14 -12 61z" />
<glyph unicode="M" horiz-adv-x="1413" d="M40 69q0 38 9 52q46 11 111 20l4 1035q-73 10 -115 21q-9 13 -9 52q0 47 12 61q14 8 127 8h195l337 -664h4l337 664h192q113 0 127 -8q12 -14 12 -61q0 -39 -9 -52q-44 -11 -117 -21l5 -1035q64 -9 112 -20q9 -13 9 -52q0 -47 -12 -61q-14 -8 -127 -8h-116q-113 0 -127 8 q-12 14 -12 61q0 38 9 52q47 11 109 20l-4 962l-372 -723h-36l-376 732l-4 -971q65 -10 110 -20q9 -14 9 -52q0 -47 -12 -61q-14 -8 -127 -8h-116q-113 0 -127 8q-12 14 -12 61z" />
<glyph unicode="N" horiz-adv-x="1263" d="M40 69q0 38 9 52q46 11 111 20v1035q-54 8 -111 21q-9 13 -9 52q0 47 12 61q14 8 127 8h142l637 -1019v877q-54 8 -111 21q-9 13 -9 52q0 47 12 61q14 8 127 8h117q113 0 127 -8q12 -14 12 -61q0 -39 -9 -52q-55 -13 -111 -21v-1176h-155l-643 1028v-887q65 -10 110 -20 q9 -14 9 -52q0 -47 -12 -61q-14 -8 -127 -8h-116q-113 0 -127 8q-12 14 -12 61z" />
<glyph unicode="O" horiz-adv-x="1383" d="M80 660q0 190 77.5 344.5t219.5 244t321 89.5t317.5 -89.5t213 -243.5t74.5 -345q0 -190 -77 -345t-218.5 -245t-320.5 -90t-318 90t-214 244.5t-75 345.5zM234 672q0 -156 53.5 -279t160 -196t251.5 -73q211 0 330.5 146t119.5 378q0 157 -51.5 279t-155.5 194.5 t-248 72.5q-212 0 -336 -146.5t-124 -375.5z" />
<glyph unicode="P" horiz-adv-x="1130" d="M40 69q0 38 9 52q46 11 111 20v1035q-54 8 -111 21q-9 13 -9 52q0 47 12 61q14 8 127 8h240q328 0 489.5 -102.5t161.5 -325.5q0 -104 -35 -184.5t-94.5 -133t-145 -86.5t-180 -48t-205.5 -14h-95v-283q68 -10 111 -20q9 -14 9 -52q0 -47 -12 -61q-14 -8 -127 -8h-117 q-113 0 -127 8q-12 14 -12 61zM315 570h124q113 0 197 14.5t148.5 47.5t97.5 91.5t33 142.5q0 70 -24.5 123.5t-66 87.5t-103 56t-130 30.5t-152.5 8.5h-124v-602z" />
<glyph unicode="Q" horiz-adv-x="1383" d="M80 660q0 190 77.5 344.5t219.5 244t321 89.5t317.5 -89.5t213 -243.5t74.5 -345q0 -221 -104 -393t-281 -243q50 -67 127 -118q66 68 86 76q42 -6 83 -53q-5 -28 -38 -86.5t-84 -124.5q-79 10 -177 87.5t-150 179.5q-43 -5 -78 -5q-179 0 -318 90t-214 244.5t-75 345.5z M232 672q0 -155 54 -278.5t161 -196.5t252 -73q211 0 331.5 146t120.5 378q0 157 -52 279t-156.5 194.5t-248.5 72.5q-212 0 -337 -146.5t-125 -375.5z" />
<glyph unicode="R" horiz-adv-x="1240" d="M40 69q0 38 9 52q46 11 111 20v1035q-54 8 -111 21q-9 13 -9 52q0 47 12 61q14 8 127 8h304q218 0 347.5 -47.5t184.5 -140t55 -243.5q0 -283 -223 -385q25 -69 88 -159.5t133 -157.5q50 50 69 59q42 -6 83 -53q-5 -28 -38 -86.5t-84 -124.5q-44 10 -94.5 49t-93.5 91 t-86 116t-73 117t-53 101q-115 -23 -287 -23h-96v-290q68 -10 111 -20q9 -14 9 -52q0 -47 -12 -61q-14 -8 -127 -8h-117q-113 0 -127 8q-12 14 -12 61zM315 576h133q112 0 195 15t146.5 48.5t96 92.5t32.5 142q0 88 -30.5 147.5t-92 92t-138.5 46t-184 13.5h-158v-597z" />
<glyph unicode="S" horiz-adv-x="919" d="M90 38v140q0 112 7 126q12 12 61 12q39 0 53 -8q19 -84 27 -171q75 -13 145 -13q84 0 148.5 19t109 69.5t44.5 128.5q0 63 -28.5 106.5t-87.5 80.5q-43 28 -184 98t-184 105q-104 83 -104 252q0 77 23 138.5t61 101.5t91 66.5t110.5 37.5t122.5 11q114 0 232 -35v-132 q0 -112 -7 -126q-12 -12 -61 -12q-39 0 -53 8q-14 55 -26 150q-47 5 -85 5q-267 0 -267 -201q0 -87 57 -138q37 -32 174.5 -101.5t194.5 -105.5q82 -52 123.5 -112.5t41.5 -162.5q0 -98 -40 -175t-107.5 -124t-150 -71.5t-172.5 -24.5q-147 0 -269 58z" />
<glyph unicode="T" horiz-adv-x="1060" d="M45 1171v147h970v-147q0 -112 -7 -126q-12 -12 -61 -12q-39 0 -53 8q-12 46 -24 133h-263v-1033q68 -10 111 -20q9 -14 9 -52q0 -47 -12 -61q-14 -8 -127 -8h-116q-113 0 -127 8q-12 14 -12 61q0 38 9 52q46 11 111 20v1033h-264q-12 -84 -23 -133q-14 -8 -53 -8 q-49 0 -61 12q-7 14 -7 126z" />
<glyph unicode="U" horiz-adv-x="1291" d="M35 1249q0 47 12 61q14 8 127 8h116q113 0 127 -8q12 -14 12 -61q0 -39 -9 -52q-55 -13 -111 -21v-636q0 -82 10.5 -147t27 -108t43.5 -74.5t53 -48t63.5 -26t66.5 -12t69 -2.5q43 0 75 2.5t69.5 12.5t64 27.5t53 48.5t42.5 74.5t26 107.5t10 145v636q-54 8 -111 21 q-9 13 -9 52q0 47 12 61q14 8 127 8h116q113 0 127 -8q12 -14 12 -61q0 -39 -9 -52q-55 -13 -111 -21v-686q0 -94 -16 -170t-42 -128t-65.5 -91.5t-80.5 -62t-93 -36t-97 -18t-99 -4.5q-53 0 -97.5 4.5t-96 18t-92.5 36t-80 61.5t-65 91t-41.5 128.5t-15.5 170.5v686 q-54 8 -111 21q-9 13 -9 52z" />
<glyph unicode="V" d="M30 1249q0 47 12 61q14 8 127 8h116q113 0 127 -8q12 -14 12 -61q0 -39 -9 -52q-45 -10 -110 -20l349 -1012l349 1012q-65 10 -110 20q-9 13 -9 52q0 47 12 61q14 8 127 8h116q113 0 127 -8q12 -14 12 -61q0 -39 -9 -52q-42 -10 -106 -20l-406 -1177h-207l-405 1177 q-61 9 -106 20q-9 13 -9 52z" />
<glyph unicode="W" horiz-adv-x="1866" d="M30 1249q0 47 12 61q14 8 127 8h116q113 0 127 -8q12 -14 12 -61q0 -39 -9 -52q-43 -11 -118 -21l258 -904l300 1046h156l299 -1046l258 904q-73 10 -117 21q-9 13 -9 52q0 47 12 61q14 8 127 8h116q113 0 127 -8q12 -14 12 -61q0 -39 -9 -52q-48 -12 -101 -19 l-338 -1178h-156l-299 1045l-299 -1045h-156l-338 1178q-53 7 -101 19q-9 13 -9 52z" />
<glyph unicode="X" horiz-adv-x="1242" d="M30 69q0 38 9 52q51 12 132 23l360 555l-309 475q-63 8 -130 23q-9 13 -9 52q0 47 12 61q14 8 127 8h116q113 0 127 -8q12 -14 12 -61q0 -39 -9 -52q-37 -9 -72 -14l225 -346l224 346q-36 6 -70 14q-9 13 -9 52q0 47 12 61q14 8 127 8h116q113 0 127 -8q12 -14 12 -61 q0 -39 -9 -52q-52 -13 -131 -23l-309 -475l360 -555q80 -11 132 -23q9 -13 9 -52q0 -47 -12 -61q-14 -8 -127 -8h-116q-113 0 -127 8q-12 14 -12 61q0 38 9 52l70 14l-276 425l-276 -425l70 -14q9 -14 9 -52q0 -47 -12 -61q-14 -8 -127 -8h-116q-113 0 -127 8q-12 14 -12 61 z" />
<glyph unicode="Y" horiz-adv-x="1166" d="M30 1249q0 47 12 61q14 8 127 8h116q113 0 127 -8q12 -14 12 -61q0 -39 -9 -52q-39 -9 -91 -17l259 -530l258 530q-49 7 -90 17q-9 13 -9 52q0 47 12 61q14 8 127 8h116q113 0 127 -8q12 -14 12 -61q0 -39 -9 -52q-46 -12 -135 -24l-332 -681v-351q68 -10 111 -20 q9 -14 9 -52q0 -47 -12 -61q-14 -8 -127 -8h-116q-113 0 -127 8q-12 14 -12 61q0 38 9 52q46 11 111 20v351l-333 681q-86 12 -134 24q-9 13 -9 52z" />
<glyph unicode="Z" horiz-adv-x="960" d="M65 5l593 1169h-430q-12 -84 -23 -133q-14 -8 -53 -8q-49 0 -61 12q-7 14 -7 126v147h796l4 -5l-596 -1169h459q8 84 27 164q14 8 53 8q49 0 61 -12q7 -14 7 -126v-178h-826z" />
<glyph unicode="[" horiz-adv-x="580" d="M120 0v1448h340v-144h-186v-1160h186v-144h-340z" />
<glyph unicode="\" horiz-adv-x="971" d="M120 1395l144 53l588 -1616l-144 -53z" />
<glyph unicode="]" horiz-adv-x="580" d="M120 0v144h186v1160h-186v144h340v-1448h-340z" />
<glyph unicode="_" horiz-adv-x="800" d="M0 0v144h800v-144h-800z" />
<glyph unicode="`" horiz-adv-x="667" d="M94 1433q6 39 30.5 73.5t57.5 51.5q180 -158 391 -253q-3 -30 -16.5 -67.5t-25.5 -47.5q-123 24 -262 106.5t-175 136.5z" />
<glyph unicode="a" horiz-adv-x="1022" d="M80 300q0 149 94.5 224.5t301.5 75.5q71 0 209 -12v129q0 198 -196 198q-110 0 -207 -31q-10 -74 -24 -139q-14 -8 -53 -8q-49 0 -61 12q-7 14 -7 126v101q119 47 192 64.5t187 17.5q323 0 323 -341v-330q0 -48 4.5 -83t18 -73t44 -65t76.5 -41l-88 -145 q-103 34 -157 145q-128 -145 -320 -145q-45 0 -88.5 8t-89.5 30.5t-80.5 57t-56.5 92.5t-22 132zM233 300q0 -43 15 -76.5t36 -51.5t47 -29.5t44 -15t30 -3.5q38 0 71.5 4.5t73.5 20.5t68 41.5t47.5 72.5t19.5 110v84h-66q-172 0 -231 -9q-118 -18 -145 -87q-10 -26 -10 -61 z" />
<glyph unicode="b" horiz-adv-x="1110" d="M42 1368q0 31 7 45q43 14 106.5 22.5t99 10.5t54.5 2h6v-481q121 91 267 91q201 0 324.5 -151.5t123.5 -381.5q0 -112 -32 -209t-94.5 -173t-164.5 -119.5t-232 -43.5q-168 0 -346 74v1240q-102 2 -108 7q-11 4 -11 67zM315 154q84 -32 203 -32q158 0 257.5 112t99.5 305 q0 79 -18.5 145.5t-55 118.5t-98 81.5t-142.5 29.5q-166 0 -246 -113v-647z" />
<glyph unicode="c" horiz-adv-x="899" d="M80 526q0 111 25.5 201t69.5 151t106 102t132 59.5t149 18.5q173 0 321 -74v-136q0 -112 -7 -126q-12 -12 -61 -12q-39 0 -53 8q-19 79 -28 176q-85 20 -156 20q-73 0 -134 -21t-109 -65t-75 -119.5t-27 -176.5q0 -200 97 -304t248 -104q77 0 156 20q9 97 28 176 q14 8 53 8q49 0 61 -12q7 -14 7 -126v-136q-148 -74 -321 -74q-97 0 -181 31.5t-152.5 95.5t-108.5 171.5t-40 247.5z" />
<glyph unicode="d" horiz-adv-x="1173" d="M80 534q0 112 32 206t94.5 165.5t164 112t232.5 40.5q85 0 192 -21v257q-102 2 -108 7q-11 4 -11 67q0 31 7 45q43 14 106.5 22.5t99 10.5t54.5 2h6v-1314q161 0 172 -7q11 -4 11 -67q0 -31 -7 -45q-43 -14 -106.5 -22.5t-99 -10.5t-54.5 -2h-6l-39 112 q-129 -111 -292 -111q-132 0 -235.5 75.5t-158 201t-54.5 276.5zM235 521q0 -79 18.5 -148.5t55 -126t98.5 -89t142 -32.5q167 0 246 113v637q-105 41 -203 41q-161 0 -259 -102t-98 -293z" />
<glyph unicode="e" horiz-adv-x="946" d="M80 532q0 114 26.5 208t79.5 166t139.5 112t200.5 40q66 0 120 -14.5t90 -37.5t63.5 -58.5t42.5 -72t24 -83t12 -86t3 -86.5v-140h-647q12 -173 107 -264.5t236 -91.5q135 0 280 74l3 -1v-143q-149 -74 -298 -74q-99 0 -184.5 33t-153 98.5t-106 173.5t-38.5 247z M241 620h488q-1 64 -10.5 113.5t-32 92t-63.5 65.5t-100 23q-114 0 -188 -81t-94 -213z" />
<glyph unicode="f" horiz-adv-x="593" d="M41 895v143h168v4q0 406 311 406q103 0 253 -46q0 -251 -7 -265q-12 -12 -61 -12q-39 0 -53 8q-25 108 -30 162q-52 10 -86 10q-84 0 -128.5 -60t-44.5 -203v-4h209v-143h-209v-754q68 -10 111 -20q9 -14 9 -52q0 -47 -12 -61q-14 -8 -127 -8h-116q-113 0 -127 8 q-12 14 -12 61q0 38 9 52q46 11 111 20v754h-168z" />
<glyph unicode="g" horiz-adv-x="1034" d="M70 -147q0 63 33 134t91 130q-40 23 -62.5 71.5t-22.5 95.5q0 88 75 181q-41 44 -63.5 110.5t-22.5 136.5q0 149 108 247.5t276 98.5q111 0 201 -48q65 48 138 76.5t127 28.5l46 -131q-101 -17 -195 -75q60 -87 60 -193q0 -151 -110 -258.5t-277 -107.5q-102 0 -192 45 q-35 -44 -35 -85q0 -40 34 -66.5t94 -26.5h196q204 0 311.5 -83.5t107.5 -208.5q0 -109 -79.5 -203.5t-202 -147t-252.5 -52.5q-174 0 -279 94.5t-105 236.5zM222 -133q0 -97 60.5 -153.5t191.5 -56.5q151 0 253.5 80t102.5 178q0 38 -13.5 66.5t-42 46.5t-61 29.5t-82.5 17 t-94 7.5t-106 2h-117q-42 -48 -67 -106t-25 -111zM242 703q0 -85 64 -150.5t175 -65.5q109 0 170.5 64.5t61.5 149.5q0 86 -63 152.5t-172 66.5t-172.5 -66.5t-63.5 -150.5z" />
<glyph unicode="h" horiz-adv-x="1150" d="M60 69q0 38 9 52q46 11 111 20v1153q-102 2 -108 7q-11 4 -11 67q0 31 7 45q43 14 106.5 22.5t99 10.5t54.5 2h6v-492q168 102 289 102q77 0 141 -21t115.5 -65.5t80.5 -123t29 -184.5v-523q68 -10 111 -20q9 -13 9 -52q0 -47 -12 -61q-14 -8 -127 -8h-116q-113 0 -127 8 q-12 14 -12 61q0 38 9 52q46 11 111 20v515q0 259 -227 259q-113 0 -274 -100v-674q68 -10 111 -20q9 -14 9 -52q0 -47 -12 -61q-14 -8 -127 -8h-116q-113 0 -127 8q-12 14 -12 61z" />
<glyph unicode="i" horiz-adv-x="494" d="M60 69q0 38 9 52q46 11 111 20v763q-103 2 -109 7q-11 4 -11 67q0 31 7 45q43 14 107 22.5t99.5 10.5t54.5 2h6v-917q68 -10 111 -20q9 -14 9 -52q0 -47 -12 -61q-14 -8 -127 -8h-116q-113 0 -127 8q-12 14 -12 61zM150 1321q0 44 31.5 75.5t75.5 31.5t76 -31.5t32 -75.5 q0 -43 -32 -74.5t-76 -31.5t-75.5 31t-31.5 75z" />
<glyph unicode="j" horiz-adv-x="540" d="M-230 -286q0 112 7 126q12 12 61 12q39 0 53 -8q19 -80 27 -164q47 -15 89 -15q85 0 136 63t51 198v978q-102 2 -108 7q-11 4 -11 67q0 31 7 45q43 14 106.5 22.5t99 10.5t54.5 2h6v-1132q0 -207 -88.5 -305.5t-233.5 -98.5q-119 0 -256 63v129zM165 1321q0 44 31.5 75.5 t75.5 31.5t76 -31.5t32 -75.5q0 -43 -32 -74.5t-76 -31.5t-75.5 31t-31.5 75z" />
<glyph unicode="k" horiz-adv-x="1029" d="M41 69q0 38 9 52q46 11 111 20v1153q-102 2 -108 7q-11 4 -11 67q0 31 7 45q43 14 106.5 22.5t99 10.5t54.5 2h6v-902l299 358q-43 7 -65 13q-9 13 -9 52q0 47 12 61q14 8 127 8h116q113 0 127 -8q12 -14 12 -61q0 -39 -9 -52q-55 -13 -120 -22l-302 -359 q11 -45 120.5 -167.5t215.5 -196.5q57 60 82 72q42 -6 83 -53q-5 -28 -38 -86.5t-84 -124.5q-58 3 -136 56t-149 127.5t-135 152.5t-103 136t-44 75v-386q68 -10 111 -20q9 -14 9 -52q0 -47 -12 -61q-14 -8 -127 -8h-116q-113 0 -127 8q-12 14 -12 61z" />
<glyph unicode="l" horiz-adv-x="494" d="M60 69q0 38 9 52q46 11 111 20v1153q-103 2 -109 7q-11 4 -11 67q0 31 7 45q43 14 107 22.5t99.5 10.5t54.5 2h6v-1307q68 -10 111 -20q9 -14 9 -52q0 -47 -12 -61q-14 -8 -127 -8h-116q-113 0 -127 8q-12 14 -12 61z" />
<glyph unicode="m" horiz-adv-x="1662" d="M55 69q0 38 9 52q46 11 111 20v763q-103 2 -109 7q-11 4 -11 67q0 31 7 45q108 35 197 35h6l42 -115q96 62 163 88.5t133 26.5q150 0 237 -112q73 46 156 79t149 33q77 0 141 -21t115.5 -65.5t80.5 -123t29 -184.5v-523q68 -10 111 -20q9 -13 9 -52q0 -47 -12 -61 q-14 -8 -127 -8h-116q-113 0 -127 8q-12 14 -12 61q0 38 9 52q46 11 111 20v514q0 260 -227 260q-97 0 -234 -77q24 -77 24 -173v-524q68 -10 111 -20q9 -13 9 -52q0 -47 -12 -61q-14 -8 -127 -8h-116q-113 0 -127 8q-12 14 -12 61q0 38 9 52q46 11 111 20v515 q0 259 -191 259q-116 0 -246 -98v-676q68 -10 111 -20q9 -14 9 -52q0 -47 -12 -61q-14 -8 -127 -8h-116q-113 0 -127 8q-12 14 -12 61z" />
<glyph unicode="n" horiz-adv-x="1135" d="M55 69q0 38 9 52q46 11 111 20v763q-103 2 -109 7q-11 4 -11 67q0 31 7 45q108 35 204 35h6l35 -116q72 48 157 82t154 34q77 0 141 -21t115.5 -65.5t80.5 -123t29 -184.5v-523q68 -10 111 -20q9 -13 9 -52q0 -47 -12 -61q-14 -8 -127 -8h-116q-113 0 -127 8 q-12 14 -12 61q0 38 9 52q46 11 111 20v514q0 260 -227 260q-109 0 -274 -100v-674q68 -10 111 -20q9 -14 9 -52q0 -47 -12 -61q-14 -8 -127 -8h-116q-113 0 -127 8q-12 14 -12 61z" />
<glyph unicode="o" horiz-adv-x="1112" d="M80 516q0 150 60.5 273.5t171 196t248.5 72.5t247 -73t167 -195t58 -269q0 -150 -60 -273t-170.5 -195.5t-249.5 -72.5t-247.5 72.5t-166.5 194.5t-58 269zM235 524q0 -172 85.5 -286t240.5 -114q151 0 233.5 108t82.5 281q0 113 -34.5 202t-108.5 144t-178 55 q-151 0 -236 -109.5t-85 -280.5z" />
<glyph unicode="p" horiz-adv-x="1110" d="M41 -389q0 39 9 52q46 11 111 20v1221q-103 2 -109 7q-11 4 -11 67q0 31 7 45q108 35 204 35h6l34 -110q128 110 290 110q201 0 324.5 -151t123.5 -381q0 -112 -32 -209t-94.5 -173.5t-164.5 -120t-232 -43.5q-95 0 -192 21v-318q68 -10 111 -20q9 -13 9 -52 q0 -47 -12 -61q-14 -8 -127 -8h-116q-113 0 -127 8q-12 14 -12 61zM315 162q97 -40 203 -40q158 0 257.5 112t99.5 305q0 79 -18.5 145.5t-55 118.5t-98 81.5t-142.5 29.5q-167 0 -246 -112v-640z" />
<glyph unicode="q" horiz-adv-x="1110" d="M80 535q0 112 32 205.5t94.5 165.5t164 112t232.5 40q168 0 346 -74v-1301q68 -10 111 -20q9 -13 9 -52q0 -47 -12 -61q-14 -8 -127 -8h-116q-113 0 -127 8q-12 14 -12 61q0 39 9 52q46 11 111 20v388q-117 -91 -267 -91q-132 0 -235.5 76t-158 202t-54.5 277zM235 521 q0 -79 18.5 -148.5t55 -126.5t98.5 -90t142 -33q166 0 246 113v648q-88 32 -203 32q-161 0 -259 -102t-98 -293z" />
<glyph unicode="r" horiz-adv-x="766" d="M60 69q0 38 9 52q46 11 111 20v763q-103 2 -109 7q-11 4 -11 67q0 31 7 45q108 35 204 35h6l42 -138q119 138 255 138q93 0 172 -36q0 -251 -7 -265q-12 -12 -61 -12q-39 0 -53 8q-25 106 -30 158q-21 4 -46 4q-124 0 -215 -139v-635q68 -10 111 -20q9 -14 9 -52 q0 -47 -12 -61q-14 -8 -127 -8h-116q-113 0 -127 8q-12 14 -12 61z" />
<glyph unicode="s" horiz-adv-x="801" d="M70 27v145q0 112 7 126q12 12 61 12q39 0 53 -8q16 -70 27 -167q46 -10 97 -10q39 0 81.5 9t84 27.5t68.5 53t27 78.5t-27.5 77.5t-72 55.5t-98 42.5t-107 46t-98 58.5t-72 87t-27.5 125q0 75 29.5 129.5t80.5 85t111 44.5t131 14q127 0 254 -41v-84q0 -112 -7 -126 q-12 -12 -61 -12q-39 0 -53 8q-12 48 -19 103q-80 13 -137 13q-35 0 -64.5 -5.5t-55.5 -18.5t-41 -38t-15 -59q0 -46 28 -80.5t72 -56.5t98 -42t108 -44.5t98 -56t72 -84t28 -121.5q0 -65 -24.5 -120.5t-66 -94t-96 -65.5t-115 -40t-123.5 -13q-127 0 -236 47z" />
<glyph unicode="t" horiz-adv-x="754" d="M40 894v144h115v186l145 27h10v-213h288v-144h-288v-510q0 -135 51 -198t136 -63q41 0 89 14q8 85 27 165q14 8 53 8q49 0 61 -12q7 -14 7 -126v-129q-137 -63 -256 -63q-145 0 -234 98.5t-89 305.5v510h-115z" />
<glyph unicode="u" horiz-adv-x="1162" d="M30 978q0 31 7 45q43 14 107 22.5t99.5 10.5t54.5 2h6v-675q0 -260 227 -260q111 0 274 99v682q-102 2 -108 7q-11 4 -11 67q0 31 7 45q43 14 107 22.5t99.5 10.5t54.5 2h6v-924q160 0 171 -7q11 -4 11 -67q0 -31 -7 -45q-43 -14 -107 -22.5t-99.5 -10.5t-54.5 -2h-6 l-37 119q-72 -49 -159 -84t-156 -35q-77 0 -141 21t-116 65.5t-81 123t-29 184.5v530q-102 2 -108 7q-11 4 -11 67z" />
<glyph unicode="v" horiz-adv-x="1114" d="M30 969q0 47 12 61q14 8 127 8h116q113 0 127 -8q12 -14 12 -61q0 -39 -9 -52q-47 -11 -109 -20l251 -732l251 732q-66 10 -109 20q-9 13 -9 52q0 47 12 61q14 8 127 8h116q113 0 127 -8q12 -14 12 -61q0 -39 -9 -52q-43 -10 -107 -20l-308 -897h-207l-308 897 q-61 9 -106 20q-9 13 -9 52z" />
<glyph unicode="w" horiz-adv-x="1719" d="M30 969q0 47 12 61q14 8 127 8h116q113 0 127 -8q12 -14 12 -61q0 -39 -9 -52q-43 -11 -114 -21l230 -725l257 867h142l257 -867l230 725q-57 8 -113 21q-9 13 -9 52q0 47 12 61q14 8 127 8h116q113 0 127 -8q12 -14 12 -61q0 -39 -9 -52q-41 -11 -114 -21l-284 -896 h-192l-231 790l-231 -790h-193l-284 896q-57 8 -112 21q-9 13 -9 52z" />
<glyph unicode="x" horiz-adv-x="1107" d="M30 69q0 38 9 52q68 15 134 23l288 412l-236 337q-86 12 -134 24q-9 13 -9 52q0 47 12 61q14 8 127 8h116q113 0 127 -8q12 -14 12 -61q0 -39 -9 -52q-21 -6 -64 -13l155 -222l155 222q-43 7 -64 13q-9 13 -9 52q0 47 12 61q14 8 127 8h116q113 0 127 -8q12 -14 12 -61 q0 -39 -9 -52q-48 -12 -134 -24l-241 -344l284 -405q66 -8 134 -23q9 -13 9 -52q0 -47 -12 -61q-14 -8 -127 -8h-116q-113 0 -127 8q-12 14 -12 61q0 38 9 52q42 9 64 13l-203 290l-202 -290q13 -2 64 -13q9 -14 9 -52q0 -47 -12 -61q-14 -8 -127 -8h-116q-113 0 -127 8 q-12 14 -12 61z" />
<glyph unicode="y" horiz-adv-x="1052" d="M-60 -286q0 112 7 126q12 12 61 12q39 0 53 -8q16 -68 27 -164q45 -15 89 -15q57 0 103.5 27.5t66.5 84.5l77 223h-48l-309 899q-37 5 -95 18q-9 13 -9 52q0 47 12 61q7 3 45 5l-1 3h199q113 0 127 -8q12 -14 12 -61q0 -39 -9 -52q-55 -13 -120 -22l252 -730l253 733 q-53 7 -101 19q-9 13 -9 52q0 47 12 61q14 8 127 8h179l-1 -2q54 -2 65 -6q12 -14 12 -61q0 -39 -9 -52q-44 -11 -116 -21l-396 -1148q-79 -226 -300 -226q-117 0 -256 63v129z" />
<glyph unicode="z" horiz-adv-x="911" d="M50 5l546 889h-386q-11 -78 -23 -130q-14 -8 -53 -8q-49 0 -61 12q-7 14 -7 126v144h790l5 -6l-546 -888h399q8 65 23 130q14 8 53 8q49 0 61 -12q7 -14 7 -126v-144h-803z" />
<glyph unicode="{" horiz-adv-x="810" d="M120 643v142h12q196 0 196 198v124q0 341 323 341q7 0 20 -0.5t19 -0.5v-142h-12q-196 0 -196 -198v-124q0 -184 -96 -269q96 -85 96 -269v-124q0 -198 196 -198h12v-142q-6 0 -19 -0.5t-20 -0.5q-323 0 -323 341v124q0 194 -188 198h-20z" />
<glyph unicode="|" horiz-adv-x="314" d="M80 -270v1718h154v-1718h-154z" />
<glyph unicode="}" horiz-adv-x="810" d="M120 -19v142h12q196 0 196 198v124q0 184 96 269q-96 85 -96 269v124q0 198 -196 198h-12v142q6 0 19 0.5t20 0.5q323 0 323 -341v-124q0 -198 196 -198h12v-142h-20q-188 -4 -188 -198v-124q0 -341 -323 -341q-7 0 -20 0.5t-19 0.5z" />
<glyph unicode="~" horiz-adv-x="1031" d="M120 439q12 98 87.5 160t174.5 62q49 0 94 -24t87.5 -48t83.5 -24q42 0 72 23t30 66v7q110 16 162 -31q-12 -98 -88.5 -160t-178.5 -62q-47 0 -86 15t-60.5 33t-51 33t-61.5 15q-44 0 -73.5 -23t-29.5 -66v-7q-110 -16 -162 31z" />
<glyph unicode="&#xa1;" horiz-adv-x="467" d="M120 947q0 46 33.5 79t80.5 33q46 0 79.5 -33t33.5 -79t-33.5 -79t-79.5 -33q-47 0 -80.5 33t-33.5 79zM148 -389q0 249 7.5 587t19.5 435h112q12 -96 18.5 -428t6.5 -594h-164z" />
<glyph unicode="&#xa2;" horiz-adv-x="899" d="M80 526q0 124 31 221.5t87 160t127.5 98.5t157.5 47v155h154v-155q107 -12 222 -69v-136q0 -112 -7 -126q-12 -12 -61 -12q-39 0 -53 8q-18 74 -29 179q-68 17 -131 17q-73 0 -134 -21t-109 -65t-75 -119.5t-27 -176.5q0 -200 97 -304t248 -104q68 0 132 17q9 98 28 179 q14 8 53 8q49 0 61 -12q7 -14 7 -126v-136q-115 -57 -222 -69v-135h-154v136q-84 12 -155 49.5t-127.5 101.5t-88.5 163.5t-32 225.5z" />
<glyph unicode="&#xa3;" horiz-adv-x="1002" d="M40 609v144h189q-19 105 -19 189q0 203 101 299.5t266 96.5q159 0 311 -68v-99q0 -112 -7 -126q-12 -12 -61 -12q-39 0 -53 8q-12 46 -24 135q-63 17 -123 17q-124 0 -189.5 -70t-65.5 -193q0 -61 20 -177h357v-144h-329q28 -144 28 -203q0 -142 -111 -262h488 q8 65 23 130q14 8 53 8q49 0 61 -12q7 -14 7 -126v-144h-920v144q40 0 82 18.5t78 52t59 89.5t23 123q0 59 -26 182h-218z" />
<glyph unicode="&#xa5;" horiz-adv-x="1010" d="M-48 1249q0 47 12 61q14 8 127 8h116q113 0 127 -8q12 -14 12 -61q0 -39 -9 -52q-39 -9 -91 -17l259 -530l258 530q-49 7 -90 17q-9 13 -9 52q0 47 12 61q14 8 127 8h116q113 0 127 -8q12 -14 12 -61q0 -39 -9 -52q-46 -12 -135 -24l-274 -561h257v-154h-315v-85h315 v-154h-315v-78q68 -10 111 -20q9 -14 9 -52q0 -47 -12 -61q-14 -8 -127 -8h-116q-113 0 -127 8q-12 14 -12 61q0 38 9 52q46 11 111 20v78h-321v154h321v85h-321v154h262l-274 561q-86 12 -134 24q-9 13 -9 52z" />
<glyph unicode="&#xa6;" horiz-adv-x="314" d="M80 -270v700h154v-700h-154zM80 748v700h154v-700h-154z" />
<glyph unicode="&#xa7;" horiz-adv-x="930" d="M80 748q0 135 37 269t110 232q27 70 81.5 116t117 64.5t136.5 18.5q101 0 206 -35v-132l-7 -6q-114 30 -194 30q-232 0 -232 -202q0 -49 13 -79t38 -57q38 -42 94.5 -82.5t104.5 -67.5t98.5 -69.5t86 -89.5t58 -125.5t22.5 -179.5q0 -135 -37.5 -269t-109.5 -232 q-27 -70 -81.5 -116t-117 -64.5t-136.5 -18.5q-101 0 -206 35v132l7 6q114 -30 194 -30q232 0 232 202q0 49 -13 79t-38 57q-38 42 -94.5 82.5t-104.5 67.5t-98.5 69.5t-86 89.5t-58 125.5t-22.5 179.5zM223 775q0 -75 22 -137.5t56 -102.5t81 -77.5t90 -62t90 -56.5t75 -60 q34 -35 57 -83q13 75 13 130q0 75 -22 137.5t-56 102.5t-81 77.5t-90 62t-90 56.5t-75 60q-36 36 -57 82q-13 -66 -13 -129z" />
<glyph unicode="&#xa8;" horiz-adv-x="791" d="M99 1302q0 46 33.5 79t79.5 33q47 0 80.5 -33t33.5 -79t-33.5 -79t-80.5 -33q-46 0 -79.5 33t-33.5 79zM465 1302q0 46 33.5 79t79.5 33q47 0 80.5 -33t33.5 -79t-33.5 -79t-80.5 -33q-46 0 -79.5 33t-33.5 79z" />
<glyph unicode="&#xa9;" horiz-adv-x="1604" d="M80 709q0 -150 51.5 -283t145.5 -233q96 -102 228.5 -158.5t290.5 -56.5t292.5 56.5t232.5 158.5q97 101 150 236t53 287q0 150 -51.5 284t-145.5 234q-96 102 -228.5 158t-290.5 56q-157 0 -291.5 -56.5t-232.5 -158.5q-98 -101 -151 -236t-53 -288zM223 710 q0 163 75 301q74 133 205 212q136 80 303 80q253 0 416 -173q76 -81 117 -188t41 -227q0 -122 -42 -230t-120 -189q-167 -173 -420 -173q-251 0 -416 173q-76 80 -117.5 187t-41.5 227zM449 712q0 -211 115 -324q100 -100 259 -100q119 0 231 58v141l-5 3q-105 -50 -200 -50 q-110 0 -175 66q-71 73 -71 211q0 132 70 197q63 60 168 60q95 0 208 -51l5 4v140q-112 58 -231 58q-165 0 -262 -96q-112 -110 -112 -317z" />
<glyph unicode="&#xab;" horiz-adv-x="1188" d="M120 714l424 735l132 -77l-381 -658l381 -658l-132 -77zM512 714l424 735l132 -77l-381 -658l381 -658l-132 -77z" />
<glyph unicode="&#xad;" horiz-adv-x="600" d="M50 474v144h500v-144h-500z" />
<glyph unicode="&#xae;" horiz-adv-x="1218" d="M80 906q0 150 67 273.5t189.5 196t276.5 72.5t275 -73t185.5 -195t64.5 -269q0 -150 -66.5 -273t-189 -195.5t-277.5 -72.5q-154 0 -275 72.5t-185.5 194.5t-64.5 269zM201 907q0 -175 113 -294.5t292 -119.5q180 0 295 120.5t115 296.5q0 175 -112.5 295t-291.5 120 t-295 -120.5t-116 -297.5zM398 626v570h180q139 0 197 -44.5t58 -141.5q0 -120 -96 -167q14 -40 56 -92.5t80 -73.5l3 -7l-80 -52q-83 38 -158 198q-42 -4 -67 -4h-65v-186h-108zM506 914h68q78 0 115.5 18.5t37.5 70.5q0 55 -35.5 73.5t-110.5 18.5h-75v-181z" />
<glyph unicode="&#xaf;" horiz-adv-x="842" d="M120 1194v144h602v-144h-602z" />
<glyph unicode="&#xb0;" horiz-adv-x="814" d="M80 1000q0 143 93 240.5t237 97.5q143 0 233.5 -96.5t90.5 -236.5q0 -143 -93 -240t-237 -97q-143 0 -233.5 96t-90.5 236zM220 1001q0 -80 51.5 -135t133.5 -55q83 0 136 56t53 138q0 79 -52 134.5t-133 55.5q-83 0 -136 -56t-53 -138z" />
<glyph unicode="&#xb1;" horiz-adv-x="1030" d="M120 0v154h790v-154h-790zM120 566v154h318v318h154v-318h318v-154h-318v-318h-154v318h-318z" />
<glyph unicode="&#xb4;" horiz-adv-x="662" d="M94 1305q211 95 391 253q33 -17 57.5 -51.5t30.5 -73.5q-36 -54 -175 -136.5t-262 -106.5q-12 10 -25.5 47.5t-16.5 67.5z" />
<glyph unicode="&#xb6;" horiz-adv-x="1334" d="M80 893q0 81 21 147.5t54.5 111.5t82 79.5t97.5 54t107 31.5t104.5 16t95.5 4q206 0 367.5 -64.5t224.5 -164.5l-102 -106h-4q-69 79 -164 126v-1128h-161v1181q-72 12 -131 12v-1193h-154v536q-48 0 -87 3t-86 12t-83 24.5t-71.5 42.5t-58.5 63.5t-37.5 90.5t-14.5 121z M224 895q0 -112 78.5 -158.5t215.5 -48.5v493q-152 -27 -223 -104t-71 -182z" />
<glyph unicode="&#xb7;" horiz-adv-x="387" d="M80 518q0 46 33.5 79t79.5 33q47 0 80.5 -33t33.5 -79t-33.5 -79t-80.5 -33q-46 0 -79.5 33t-33.5 79z" />
<glyph unicode="&#xb8;" horiz-adv-x="543" d="M66 -427q8 78 47 107q77 -33 140 -33q40 0 71.5 22t31.5 61q0 52 -51 81.5t-108 29.5v159h159v-80q61 -17 97 -70.5t36 -121.5q0 -93 -70.5 -149.5t-178.5 -56.5q-96 0 -174 51z" />
<glyph unicode="&#xbb;" horiz-adv-x="1188" d="M120 56l380 658l-380 658l132 77l424 -735l-424 -735zM512 56l380 658l-380 658l132 77l424 -735l-424 -735z" />
<glyph unicode="&#xbf;" horiz-adv-x="975" d="M120 -69q0 66 21 120t55 93t74.5 76.5t81 81t74.5 95t55 130.5t21 177h154q0 -105 -21.5 -191.5t-55.5 -143.5t-75 -104.5t-82 -84t-75 -71.5t-55.5 -77.5t-21.5 -91.5q0 -91 66.5 -147t186.5 -56q88 0 167 30t115 80h9l42 -115q-49 -63 -143.5 -102.5t-201.5 -39.5 q-75 0 -143.5 21t-124.5 61t-89.5 107t-33.5 152zM464 946q0 46 33.5 79t80.5 33q46 0 79.5 -33t33.5 -79t-33.5 -79t-79.5 -33q-47 0 -80.5 33t-33.5 79z" />
<glyph unicode="&#xc0;" d="M30 69q0 38 9 52q49 12 106 19l405 1178h207l405 -1178q59 -7 107 -19q9 -13 9 -52q0 -47 -12 -61q-14 -8 -127 -8h-116q-113 0 -127 8q-12 14 -12 61q0 38 9 52q47 11 109 20l-57 166h-582l-58 -166q65 -10 110 -20q9 -14 9 -52q0 -47 -12 -61q-14 -8 -127 -8h-116 q-113 0 -127 8q-12 14 -12 61zM412 451h484l-242 701zM415 1651q6 39 30.5 73.5t57.5 51.5q180 -158 391 -253q-3 -30 -16.5 -67.5t-25.5 -47.5q-123 24 -262 106.5t-175 136.5z" />
<glyph unicode="&#xc1;" d="M30 69q0 38 9 52q49 12 106 19l405 1178h207l405 -1178q59 -7 107 -19q9 -13 9 -52q0 -47 -12 -61q-14 -8 -127 -8h-116q-113 0 -127 8q-12 14 -12 61q0 38 9 52q47 11 109 20l-57 166h-582l-58 -166q65 -10 110 -20q9 -14 9 -52q0 -47 -12 -61q-14 -8 -127 -8h-116 q-113 0 -127 8q-12 14 -12 61zM412 451h484l-242 701zM415 1523q211 95 391 253q33 -17 57.5 -51.5t30.5 -73.5q-36 -54 -175 -136.5t-262 -106.5q-12 10 -25.5 47.5t-16.5 67.5z" />
<glyph unicode="&#xc2;" d="M30 69q0 38 9 52q49 12 106 19l405 1178h207l405 -1178q59 -7 107 -19q9 -13 9 -52q0 -47 -12 -61q-14 -8 -127 -8h-116q-113 0 -127 8q-12 14 -12 61q0 38 9 52q47 11 109 20l-57 166h-582l-58 -166q65 -10 110 -20q9 -14 9 -52q0 -47 -12 -61q-14 -8 -127 -8h-116 q-113 0 -127 8q-12 14 -12 61zM312 1523q173 92 338 249h8q166 -158 338 -249q-3 -30 -16.5 -67.5t-26.5 -47.5q-176 86 -297 196h-5q-115 -106 -296 -196q-13 10 -26.5 47.5t-16.5 67.5zM412 451h484l-242 701z" />
<glyph unicode="&#xc3;" d="M30 69q0 38 9 52q49 12 106 19l405 1178h207l405 -1178q59 -7 107 -19q9 -13 9 -52q0 -47 -12 -61q-14 -8 -127 -8h-116q-113 0 -127 8q-12 14 -12 61q0 38 9 52q47 11 109 20l-57 166h-582l-58 -166q65 -10 110 -20q9 -14 9 -52q0 -47 -12 -61q-14 -8 -127 -8h-116 q-113 0 -127 8q-12 14 -12 61zM308 1445q10 86 76 140t153 54q52 0 120.5 -42t110.5 -42q37 0 63.5 20t26.5 58v6q96 14 141 -27q-10 -86 -77 -140t-156 -54q-41 0 -75 13t-53 29t-45 29t-53 13q-39 0 -65 -20t-26 -58v-6q-96 -14 -141 27zM412 451h484l-242 701z" />
<glyph unicode="&#xc4;" d="M30 69q0 38 9 52q49 12 106 19l405 1178h207l405 -1178q59 -7 107 -19q9 -13 9 -52q0 -47 -12 -61q-14 -8 -127 -8h-116q-113 0 -127 8q-12 14 -12 61q0 38 9 52q47 11 109 20l-57 166h-582l-58 -166q65 -10 110 -20q9 -14 9 -52q0 -47 -12 -61q-14 -8 -127 -8h-116 q-113 0 -127 8q-12 14 -12 61zM358 1520q0 46 33.5 79t79.5 33q47 0 80.5 -33t33.5 -79t-33.5 -79t-80.5 -33q-46 0 -79.5 33t-33.5 79zM412 451h484l-242 701zM724 1520q0 46 33.5 79t79.5 33q47 0 80.5 -33t33.5 -79t-33.5 -79t-80.5 -33q-46 0 -79.5 33t-33.5 79z" />
<glyph unicode="&#xc5;" d="M30 69q0 38 9 52q49 12 106 19l405 1178h207l405 -1178q59 -7 107 -19q9 -13 9 -52q0 -47 -12 -61q-14 -8 -127 -8h-116q-113 0 -127 8q-12 14 -12 61q0 38 9 52q47 11 109 20l-57 166h-582l-58 -166q65 -10 110 -20q9 -14 9 -52q0 -47 -12 -61q-14 -8 -127 -8h-116 q-113 0 -127 8q-12 14 -12 61zM412 451h484l-242 701zM453 1487q0 80 59 138.5t141 58.5q81 0 141 -58.5t60 -138.5t-60 -139.5t-141 -59.5t-140.5 59t-59.5 140zM572 1487q0 -33 24 -57t57 -24t57.5 24t24.5 57q0 32 -24.5 56.5t-57.5 24.5t-57 -24.5t-24 -56.5z" />
<glyph unicode="&#xc6;" horiz-adv-x="1493" d="M30 69q0 38 9 52q49 12 106 19l405 1178h898v-144q0 -112 -7 -126q-12 -12 -61 -12q-39 0 -53 8q-15 67 -23 130h-498l153 -443h241q8 65 23 130q14 8 53 8q49 0 61 -12q7 -14 7 -126v-144q0 -112 -7 -126q-12 -12 -61 -12q-39 0 -53 8q-15 67 -23 130h-192l153 -443h143 q8 65 23 130q14 8 53 8q49 0 61 -12q7 -14 7 -126v-144h-425q-113 0 -127 8q-12 14 -12 61q0 38 9 52q47 11 109 20l-57 166h-582l-58 -166q65 -10 110 -20q9 -14 9 -52q0 -47 -12 -61q-14 -8 -127 -8h-116q-113 0 -127 8q-12 14 -12 61zM412 451h484l-242 701z" />
<glyph unicode="&#xc7;" horiz-adv-x="1081" d="M80 680q3 141 44.5 259.5t121 208t205 140t286.5 50.5q162 0 304 -41v-142q0 -112 -7 -126q-12 -12 -61 -12q-39 0 -53 8q-17 69 -26 157q-85 11 -149 11q-249 0 -380 -144.5t-131 -388.5q0 -242 131 -388.5t380 -146.5q64 0 149 11q9 88 26 157q14 8 53 8q49 0 61 -12 q7 -14 7 -126v-142q-142 -41 -304 -41t-288 51.5t-206 145t-121.5 221t-41.5 282.5zM522 -427q8 78 47 107q77 -33 140 -33q40 0 71.5 22t31.5 61q0 52 -51 81.5t-108 29.5v159h159v-80q61 -17 97 -70.5t36 -121.5q0 -93 -70.5 -149.5t-178.5 -56.5q-96 0 -174 51z" />
<glyph unicode="&#xc8;" horiz-adv-x="998" d="M40 69q0 38 9 52q46 11 111 20v1035q-54 8 -111 21q-9 13 -9 52q0 47 12 61q14 8 127 8h775v-144q0 -112 -7 -126q-12 -12 -61 -12q-39 0 -53 8q-15 67 -23 130h-495v-443h391q8 65 23 130q14 8 53 8q49 0 61 -12q7 -14 7 -126v-144q0 -112 -7 -126q-12 -12 -61 -12 q-39 0 -53 8q-15 67 -23 130h-391v-443h495q8 65 23 130q14 8 53 8q49 0 61 -12q7 -14 7 -126v-144h-775q-113 0 -127 8q-12 14 -12 61zM325 1651q6 39 30.5 73.5t57.5 51.5q180 -158 391 -253q-3 -30 -16.5 -67.5t-25.5 -47.5q-123 24 -262 106.5t-175 136.5z" />
<glyph unicode="&#xc9;" horiz-adv-x="998" d="M40 69q0 38 9 52q46 11 111 20v1035q-54 8 -111 21q-9 13 -9 52q0 47 12 61q14 8 127 8h775v-144q0 -112 -7 -126q-12 -12 -61 -12q-39 0 -53 8q-15 67 -23 130h-495v-443h391q8 65 23 130q14 8 53 8q49 0 61 -12q7 -14 7 -126v-144q0 -112 -7 -126q-12 -12 -61 -12 q-39 0 -53 8q-15 67 -23 130h-391v-443h495q8 65 23 130q14 8 53 8q49 0 61 -12q7 -14 7 -126v-144h-775q-113 0 -127 8q-12 14 -12 61zM314 1523q211 95 391 253q33 -17 57.5 -51.5t30.5 -73.5q-36 -54 -175 -136.5t-262 -106.5q-12 10 -25.5 47.5t-16.5 67.5z" />
<glyph unicode="&#xca;" horiz-adv-x="998" d="M40 69q0 38 9 52q46 11 111 20v1035q-54 8 -111 21q-9 13 -9 52q0 47 12 61q14 8 127 8h775v-144q0 -112 -7 -126q-12 -12 -61 -12q-39 0 -53 8q-15 67 -23 130h-495v-443h391q8 65 23 130q14 8 53 8q49 0 61 -12q7 -14 7 -126v-144q0 -112 -7 -126q-12 -12 -61 -12 q-39 0 -53 8q-15 67 -23 130h-391v-443h495q8 65 23 130q14 8 53 8q49 0 61 -12q7 -14 7 -126v-144h-775q-113 0 -127 8q-12 14 -12 61zM241 1523q173 92 338 249h8q166 -158 338 -249q-3 -30 -16.5 -67.5t-26.5 -47.5q-176 86 -297 196h-5q-115 -106 -296 -196 q-13 10 -26.5 47.5t-16.5 67.5z" />
<glyph unicode="&#xcb;" horiz-adv-x="998" d="M40 69q0 38 9 52q46 11 111 20v1035q-54 8 -111 21q-9 13 -9 52q0 47 12 61q14 8 127 8h775v-144q0 -112 -7 -126q-12 -12 -61 -12q-39 0 -53 8q-15 67 -23 130h-495v-443h391q8 65 23 130q14 8 53 8q49 0 61 -12q7 -14 7 -126v-144q0 -112 -7 -126q-12 -12 -61 -12 q-39 0 -53 8q-15 67 -23 130h-391v-443h495q8 65 23 130q14 8 53 8q49 0 61 -12q7 -14 7 -126v-144h-775q-113 0 -127 8q-12 14 -12 61zM261 1520q0 46 33.5 79t79.5 33q47 0 80.5 -33t33.5 -79t-33.5 -79t-80.5 -33q-46 0 -79.5 33t-33.5 79zM627 1520q0 46 33.5 79 t79.5 33q47 0 80.5 -33t33.5 -79t-33.5 -79t-80.5 -33q-46 0 -79.5 33t-33.5 79z" />
<glyph unicode="&#xcc;" horiz-adv-x="474" d="M-6 1651q6 39 30.5 73.5t57.5 51.5q180 -158 391 -253q-3 -30 -16.5 -67.5t-25.5 -47.5q-123 24 -262 106.5t-175 136.5zM40 69q0 38 9 52q46 11 111 20v1035q-54 8 -111 21q-9 13 -9 52q0 47 12 61q14 8 127 8h116q113 0 127 -8q12 -14 12 -61q0 -39 -9 -52 q-55 -13 -111 -21v-1035q68 -10 111 -20q9 -14 9 -52q0 -47 -12 -61q-14 -8 -127 -8h-116q-113 0 -127 8q-12 14 -12 61z" />
<glyph unicode="&#xcd;" horiz-adv-x="474" d="M0 1523q211 95 391 253q33 -17 57.5 -51.5t30.5 -73.5q-36 -54 -175 -136.5t-262 -106.5q-12 10 -25.5 47.5t-16.5 67.5zM40 69q0 38 9 52q46 11 111 20v1035q-54 8 -111 21q-9 13 -9 52q0 47 12 61q14 8 127 8h116q113 0 127 -8q12 -14 12 -61q0 -39 -9 -52 q-55 -13 -111 -21v-1035q68 -10 111 -20q9 -14 9 -52q0 -47 -12 -61q-14 -8 -127 -8h-116q-113 0 -127 8q-12 14 -12 61z" />
<glyph unicode="&#xce;" horiz-adv-x="474" d="M-104 1523q173 92 338 249h8q166 -158 338 -249q-3 -30 -16.5 -67.5t-26.5 -47.5q-176 86 -297 196h-5q-115 -106 -296 -196q-13 10 -26.5 47.5t-16.5 67.5zM40 69q0 38 9 52q46 11 111 20v1035q-54 8 -111 21q-9 13 -9 52q0 47 12 61q14 8 127 8h116q113 0 127 -8 q12 -14 12 -61q0 -39 -9 -52q-55 -13 -111 -21v-1035q68 -10 111 -20q9 -14 9 -52q0 -47 -12 -61q-14 -8 -127 -8h-116q-113 0 -127 8q-12 14 -12 61z" />
<glyph unicode="&#xcf;" horiz-adv-x="474" d="M-58 1520q0 46 33.5 79t79.5 33q47 0 80.5 -33t33.5 -79t-33.5 -79t-80.5 -33q-46 0 -79.5 33t-33.5 79zM40 69q0 38 9 52q46 11 111 20v1035q-54 8 -111 21q-9 13 -9 52q0 47 12 61q14 8 127 8h116q113 0 127 -8q12 -14 12 -61q0 -39 -9 -52q-55 -13 -111 -21v-1035 q68 -10 111 -20q9 -14 9 -52q0 -47 -12 -61q-14 -8 -127 -8h-116q-113 0 -127 8q-12 14 -12 61zM308 1520q0 46 33.5 79t79.5 33q47 0 80.5 -33t33.5 -79t-33.5 -79t-80.5 -33q-46 0 -79.5 33t-33.5 79z" />
<glyph unicode="&#xd0;" horiz-adv-x="1350" d="M40 585v144h172v447q-54 8 -111 21q-9 13 -9 52q0 47 12 61q14 8 127 8h354q191 0 347.5 -84t247 -235t90.5 -339q0 -189 -86.5 -340t-239.5 -235.5t-343 -84.5h-370q-113 0 -127 8q-12 14 -12 61q0 38 9 52q46 11 111 20v444h-172zM367 144h234q236 0 375 138.5 t139 361.5q0 153 -71.5 275.5t-192.5 188.5t-266 66h-218v-445h173v-144h-173v-441z" />
<glyph unicode="&#xd1;" horiz-adv-x="1263" d="M40 69q0 38 9 52q46 11 111 20v1035q-54 8 -111 21q-9 13 -9 52q0 47 12 61q14 8 127 8h142l637 -1019v877q-54 8 -111 21q-9 13 -9 52q0 47 12 61q14 8 127 8h117q113 0 127 -8q12 -14 12 -61q0 -39 -9 -52q-55 -13 -111 -21v-1176h-155l-643 1028v-887q65 -10 110 -20 q9 -14 9 -52q0 -47 -12 -61q-14 -8 -127 -8h-116q-113 0 -127 8q-12 14 -12 61zM286 1445q10 86 76 140t153 54q52 0 120.5 -42t110.5 -42q37 0 63.5 20t26.5 58v6q96 14 141 -27q-10 -86 -77 -140t-156 -54q-41 0 -75 13t-53 29t-45 29t-53 13q-39 0 -65 -20t-26 -58v-6 q-96 -14 -141 27z" />
<glyph unicode="&#xd2;" horiz-adv-x="1383" d="M80 660q0 190 77.5 344.5t219.5 244t321 89.5t317.5 -89.5t213 -243.5t74.5 -345q0 -190 -77 -345t-218.5 -245t-320.5 -90t-318 90t-214 244.5t-75 345.5zM234 672q0 -156 53.5 -279t160 -196t251.5 -73q211 0 330.5 146t119.5 378q0 157 -51.5 279t-155.5 194.5 t-248 72.5q-212 0 -336 -146.5t-124 -375.5zM465 1651q6 39 30.5 73.5t57.5 51.5q180 -158 391 -253q-3 -30 -16.5 -67.5t-25.5 -47.5q-123 24 -262 106.5t-175 136.5z" />
<glyph unicode="&#xd3;" horiz-adv-x="1383" d="M80 660q0 190 77.5 344.5t219.5 244t321 89.5t317.5 -89.5t213 -243.5t74.5 -345q0 -190 -77 -345t-218.5 -245t-320.5 -90t-318 90t-214 244.5t-75 345.5zM234 672q0 -156 53.5 -279t160 -196t251.5 -73q211 0 330.5 146t119.5 378q0 157 -51.5 279t-155.5 194.5 t-248 72.5q-212 0 -336 -146.5t-124 -375.5zM461 1523q211 95 391 253q33 -17 57.5 -51.5t30.5 -73.5q-36 -54 -175 -136.5t-262 -106.5q-12 10 -25.5 47.5t-16.5 67.5z" />
<glyph unicode="&#xd4;" horiz-adv-x="1383" d="M80 660q0 190 77.5 344.5t219.5 244t321 89.5t317.5 -89.5t213 -243.5t74.5 -345q0 -190 -77 -345t-218.5 -245t-320.5 -90t-318 90t-214 244.5t-75 345.5zM234 672q0 -156 53.5 -279t160 -196t251.5 -73q211 0 330.5 146t119.5 378q0 157 -51.5 279t-155.5 194.5 t-248 72.5q-212 0 -336 -146.5t-124 -375.5zM353 1523q173 92 338 249h8q166 -158 338 -249q-3 -30 -16.5 -67.5t-26.5 -47.5q-176 86 -297 196h-5q-115 -106 -296 -196q-13 10 -26.5 47.5t-16.5 67.5z" />
<glyph unicode="&#xd5;" horiz-adv-x="1383" d="M80 660q0 190 77.5 344.5t219.5 244t321 89.5t317.5 -89.5t213 -243.5t74.5 -345q0 -190 -77 -345t-218.5 -245t-320.5 -90t-318 90t-214 244.5t-75 345.5zM234 672q0 -156 53.5 -279t160 -196t251.5 -73q211 0 330.5 146t119.5 378q0 157 -51.5 279t-155.5 194.5 t-248 72.5q-212 0 -336 -146.5t-124 -375.5zM346 1445q10 86 76 140t153 54q52 0 120.5 -42t110.5 -42q37 0 63.5 20t26.5 58v6q96 14 141 -27q-10 -86 -77 -140t-156 -54q-41 0 -75 13t-53 29t-45 29t-53 13q-39 0 -65 -20t-26 -58v-6q-96 -14 -141 27z" />
<glyph unicode="&#xd6;" horiz-adv-x="1383" d="M80 660q0 190 77.5 344.5t219.5 244t321 89.5t317.5 -89.5t213 -243.5t74.5 -345q0 -190 -77 -345t-218.5 -245t-320.5 -90t-318 90t-214 244.5t-75 345.5zM234 672q0 -156 53.5 -279t160 -196t251.5 -73q211 0 330.5 146t119.5 378q0 157 -51.5 279t-155.5 194.5 t-248 72.5q-212 0 -336 -146.5t-124 -375.5zM397 1520q0 46 33.5 79t79.5 33q47 0 80.5 -33t33.5 -79t-33.5 -79t-80.5 -33q-46 0 -79.5 33t-33.5 79zM763 1520q0 46 33.5 79t79.5 33q47 0 80.5 -33t33.5 -79t-33.5 -79t-80.5 -33q-46 0 -79.5 33t-33.5 79z" />
<glyph unicode="&#xd7;" horiz-adv-x="908" d="M120 290l225 225l-225 225l109 109l225 -225l225 225l109 -109l-225 -225l225 -225l-109 -109l-225 225l-225 -225z" />
<glyph unicode="&#xd8;" horiz-adv-x="1383" d="M80 660q0 190 77.5 344.5t219.5 244t321 89.5q91 0 182 -27l50 137l144 -53l-55 -150q134 -87 209 -241t75 -344t-77 -345t-218.5 -245t-320.5 -90q-64 0 -124 12l-77 -213l-144 53l76 210q-158 80 -248 244t-90 374zM234 672q0 -165 61 -294t174 -195l361 991 q-63 20 -136 20q-212 0 -336 -146.5t-124 -375.5zM614 131q38 -7 85 -7q211 0 330.5 146t119.5 378q0 146 -47 264.5t-135 190.5z" />
<glyph unicode="&#xd9;" horiz-adv-x="1291" d="M35 1249q0 47 12 61q14 8 127 8h116q113 0 127 -8q12 -14 12 -61q0 -39 -9 -52q-55 -13 -111 -21v-636q0 -82 10.5 -147t27 -108t43.5 -74.5t53 -48t63.5 -26t66.5 -12t69 -2.5q43 0 75 2.5t69.5 12.5t64 27.5t53 48.5t42.5 74.5t26 107.5t10 145v636q-54 8 -111 21 q-9 13 -9 52q0 47 12 61q14 8 127 8h116q113 0 127 -8q12 -14 12 -61q0 -39 -9 -52q-55 -13 -111 -21v-686q0 -94 -16 -170t-42 -128t-65.5 -91.5t-80.5 -62t-93 -36t-97 -18t-99 -4.5q-53 0 -97.5 4.5t-96 18t-92.5 36t-80 61.5t-65 91t-41.5 128.5t-15.5 170.5v686 q-54 8 -111 21q-9 13 -9 52zM399 1651q6 39 30.5 73.5t57.5 51.5q180 -158 391 -253q-3 -30 -16.5 -67.5t-25.5 -47.5q-123 24 -262 106.5t-175 136.5z" />
<glyph unicode="&#xda;" horiz-adv-x="1291" d="M35 1249q0 47 12 61q14 8 127 8h116q113 0 127 -8q12 -14 12 -61q0 -39 -9 -52q-55 -13 -111 -21v-636q0 -82 10.5 -147t27 -108t43.5 -74.5t53 -48t63.5 -26t66.5 -12t69 -2.5q43 0 75 2.5t69.5 12.5t64 27.5t53 48.5t42.5 74.5t26 107.5t10 145v636q-54 8 -111 21 q-9 13 -9 52q0 47 12 61q14 8 127 8h116q113 0 127 -8q12 -14 12 -61q0 -39 -9 -52q-55 -13 -111 -21v-686q0 -94 -16 -170t-42 -128t-65.5 -91.5t-80.5 -62t-93 -36t-97 -18t-99 -4.5q-53 0 -97.5 4.5t-96 18t-92.5 36t-80 61.5t-65 91t-41.5 128.5t-15.5 170.5v686 q-54 8 -111 21q-9 13 -9 52zM445 1523q211 95 391 253q33 -17 57.5 -51.5t30.5 -73.5q-36 -54 -175 -136.5t-262 -106.5q-12 10 -25.5 47.5t-16.5 67.5z" />
<glyph unicode="&#xdb;" horiz-adv-x="1291" d="M35 1249q0 47 12 61q14 8 127 8h116q113 0 127 -8q12 -14 12 -61q0 -39 -9 -52q-55 -13 -111 -21v-636q0 -82 10.5 -147t27 -108t43.5 -74.5t53 -48t63.5 -26t66.5 -12t69 -2.5q43 0 75 2.5t69.5 12.5t64 27.5t53 48.5t42.5 74.5t26 107.5t10 145v636q-54 8 -111 21 q-9 13 -9 52q0 47 12 61q14 8 127 8h116q113 0 127 -8q12 -14 12 -61q0 -39 -9 -52q-55 -13 -111 -21v-686q0 -94 -16 -170t-42 -128t-65.5 -91.5t-80.5 -62t-93 -36t-97 -18t-99 -4.5q-53 0 -97.5 4.5t-96 18t-92.5 36t-80 61.5t-65 91t-41.5 128.5t-15.5 170.5v686 q-54 8 -111 21q-9 13 -9 52zM312 1523q173 92 338 249h8q166 -158 338 -249q-3 -30 -16.5 -67.5t-26.5 -47.5q-176 86 -297 196h-5q-115 -106 -296 -196q-13 10 -26.5 47.5t-16.5 67.5z" />
<glyph unicode="&#xdc;" horiz-adv-x="1291" d="M35 1249q0 47 12 61q14 8 127 8h116q113 0 127 -8q12 -14 12 -61q0 -39 -9 -52q-55 -13 -111 -21v-636q0 -82 10.5 -147t27 -108t43.5 -74.5t53 -48t63.5 -26t66.5 -12t69 -2.5q43 0 75 2.5t69.5 12.5t64 27.5t53 48.5t42.5 74.5t26 107.5t10 145v636q-54 8 -111 21 q-9 13 -9 52q0 47 12 61q14 8 127 8h116q113 0 127 -8q12 -14 12 -61q0 -39 -9 -52q-55 -13 -111 -21v-686q0 -94 -16 -170t-42 -128t-65.5 -91.5t-80.5 -62t-93 -36t-97 -18t-99 -4.5q-53 0 -97.5 4.5t-96 18t-92.5 36t-80 61.5t-65 91t-41.5 128.5t-15.5 170.5v686 q-54 8 -111 21q-9 13 -9 52zM354 1520q0 46 33.5 79t79.5 33q47 0 80.5 -33t33.5 -79t-33.5 -79t-80.5 -33q-46 0 -79.5 33t-33.5 79zM720 1520q0 46 33.5 79t79.5 33q47 0 80.5 -33t33.5 -79t-33.5 -79t-80.5 -33q-46 0 -79.5 33t-33.5 79z" />
<glyph unicode="&#xdd;" horiz-adv-x="1166" d="M30 1249q0 47 12 61q14 8 127 8h116q113 0 127 -8q12 -14 12 -61q0 -39 -9 -52q-39 -9 -91 -17l259 -530l258 530q-49 7 -90 17q-9 13 -9 52q0 47 12 61q14 8 127 8h116q113 0 127 -8q12 -14 12 -61q0 -39 -9 -52q-46 -12 -135 -24l-332 -681v-351q68 -10 111 -20 q9 -14 9 -52q0 -47 -12 -61q-14 -8 -127 -8h-116q-113 0 -127 8q-12 14 -12 61q0 38 9 52q46 11 111 20v351l-333 681q-86 12 -134 24q-9 13 -9 52zM398 1523q211 95 391 253q33 -17 57.5 -51.5t30.5 -73.5q-36 -54 -175 -136.5t-262 -106.5q-12 10 -25.5 47.5t-16.5 67.5z " />
<glyph unicode="&#xde;" horiz-adv-x="1150" d="M40 69q0 38 9 52q46 11 111 20v1036q-65 9 -111 20q-9 13 -9 52q0 47 12 61q14 8 127 8h117q113 0 127 -8q12 -14 12 -61q0 -39 -9 -52q-43 -10 -111 -20v-76h104q327 0 487 -100q164 -105 164 -328q0 -172 -92 -278q-87 -101 -238 -146q-142 -42 -330 -42h-95v-66 q68 -10 111 -20q9 -14 9 -52q0 -47 -12 -61q-14 -8 -127 -8h-117q-113 0 -127 8q-12 14 -12 61zM315 353h124q232 0 347 63q129 71 129 233q0 167 -138 243q-114 63 -338 63h-124v-602z" />
<glyph unicode="&#xdf;" horiz-adv-x="1161" d="M21 986q0 37 9 52q78 0 132 27q10 198 114 290.5t297 92.5q61 0 113 -8.5t100 -29.5t81.5 -54t53.5 -84t20 -117q0 -60 -16.5 -103.5t-43 -68t-59 -42t-65.5 -31.5t-60.5 -31.5t-46 -47.5t-20.5 -73q2 -45 28.5 -76.5t67 -50t89.5 -34.5t97.5 -36.5t88.5 -49.5t65 -80.5 t25 -122.5q0 -105 -53.5 -181t-139 -111.5t-192.5 -35.5q-102 0 -199 34v158q0 112 7 126q12 12 61 12q39 0 53 -8q19 -84 27 -173q28 -4 60 -4q39 0 76.5 9t70.5 27.5t53.5 51.5t20.5 75q0 46 -25.5 79t-66 52.5t-89.5 36.5t-97.5 39t-89 51.5t-66 82t-25.5 123.5 q0 72 16.5 125t43.5 83.5t59 52t64 35.5t59 28.5t43.5 37.5t16.5 55q0 67 -60.5 101t-145.5 34q-131 0 -194.5 -80t-63.5 -198v-885q68 -10 111 -20q9 -14 9 -52q0 -47 -12 -61q-14 -8 -127 -8h-116q-113 0 -127 8q-12 14 -12 61q0 38 9 52q46 11 111 20v776h-1 q-113 0 -127 8q-12 14 -12 61z" />
<glyph unicode="&#xe0;" horiz-adv-x="1022" d="M80 300q0 149 94.5 224.5t301.5 75.5q71 0 209 -12v129q0 198 -196 198q-110 0 -207 -31q-10 -74 -24 -139q-14 -8 -53 -8q-49 0 -61 12q-7 14 -7 126v101q119 47 192 64.5t187 17.5q323 0 323 -341v-330q0 -48 4.5 -83t18 -73t44 -65t76.5 -41l-88 -145 q-103 34 -157 145q-128 -145 -320 -145q-45 0 -88.5 8t-89.5 30.5t-80.5 57t-56.5 92.5t-22 132zM233 300q0 -43 15 -76.5t36 -51.5t47 -29.5t44 -15t30 -3.5q38 0 71.5 4.5t73.5 20.5t68 41.5t47.5 72.5t19.5 110v84q-227 2 -297 -9q-118 -18 -145 -87q-10 -26 -10 -61z M271 1433q6 39 30.5 73.5t57.5 51.5q180 -158 391 -253q-3 -30 -16.5 -67.5t-25.5 -47.5q-123 24 -262 106.5t-175 136.5z" />
<glyph unicode="&#xe1;" horiz-adv-x="1022" d="M80 300q0 149 94.5 224.5t301.5 75.5q71 0 209 -12v129q0 198 -196 198q-110 0 -207 -31q-10 -74 -24 -139q-14 -8 -53 -8q-49 0 -61 12q-7 14 -7 126v101q119 47 192 64.5t187 17.5q323 0 323 -341v-330q0 -48 4.5 -83t18 -73t44 -65t76.5 -41l-88 -145 q-103 34 -157 145q-128 -145 -320 -145q-45 0 -88.5 8t-89.5 30.5t-80.5 57t-56.5 92.5t-22 132zM233 300q0 -43 15 -76.5t36 -51.5t47 -29.5t44 -15t30 -3.5q38 0 71.5 4.5t73.5 20.5t68 41.5t47.5 72.5t19.5 110v84q-227 2 -297 -9q-118 -18 -145 -87q-10 -26 -10 -61z M271 1305q211 95 391 253q33 -17 57.5 -51.5t30.5 -73.5q-36 -54 -175 -136.5t-262 -106.5q-12 10 -25.5 47.5t-16.5 67.5z" />
<glyph unicode="&#xe2;" horiz-adv-x="1022" d="M80 300q0 149 94.5 224.5t301.5 75.5q71 0 209 -12v129q0 198 -196 198q-110 0 -207 -31q-10 -74 -24 -139q-14 -8 -53 -8q-49 0 -61 12q-7 14 -7 126v101q119 47 192 64.5t187 17.5q323 0 323 -341v-330q0 -48 4.5 -83t18 -73t44 -65t76.5 -41l-88 -145 q-103 34 -157 145q-128 -145 -320 -145q-45 0 -88.5 8t-89.5 30.5t-80.5 57t-56.5 92.5t-22 132zM142 1305q173 92 338 249h8q166 -158 338 -249q-3 -30 -16.5 -67.5t-26.5 -47.5q-176 86 -297 196h-5q-115 -106 -296 -196q-13 10 -26.5 47.5t-16.5 67.5zM233 300 q0 -43 15 -76.5t36 -51.5t47 -29.5t44 -15t30 -3.5q38 0 71.5 4.5t73.5 20.5t68 41.5t47.5 72.5t19.5 110v84q-227 2 -297 -9q-118 -18 -145 -87q-10 -26 -10 -61z" />
<glyph unicode="&#xe3;" horiz-adv-x="1022" d="M80 300q0 149 94.5 224.5t301.5 75.5q71 0 209 -12v129q0 198 -196 198q-110 0 -207 -31q-10 -74 -24 -139q-14 -8 -53 -8q-49 0 -61 12q-7 14 -7 126v101q119 47 192 64.5t187 17.5q323 0 323 -341v-330q0 -48 4.5 -83t18 -73t44 -65t76.5 -41l-88 -145 q-103 34 -157 145q-128 -145 -320 -145q-45 0 -88.5 8t-89.5 30.5t-80.5 57t-56.5 92.5t-22 132zM153 1254q10 86 76 140t153 54q52 0 120.5 -42t110.5 -42q37 0 63.5 20t26.5 58v6q96 14 141 -27q-10 -86 -77 -140t-156 -54q-41 0 -75 13t-53 29t-45 29t-53 13 q-39 0 -65 -20t-26 -58v-6q-96 -14 -141 27zM233 300q0 -43 15 -76.5t36 -51.5t47 -29.5t44 -15t30 -3.5q38 0 71.5 4.5t73.5 20.5t68 41.5t47.5 72.5t19.5 110v84q-227 2 -297 -9q-118 -18 -145 -87q-10 -26 -10 -61z" />
<glyph unicode="&#xe4;" horiz-adv-x="1022" d="M80 300q0 149 94.5 224.5t301.5 75.5q71 0 209 -12v129q0 198 -196 198q-110 0 -207 -31q-10 -74 -24 -139q-14 -8 -53 -8q-49 0 -61 12q-7 14 -7 126v101q119 47 192 64.5t187 17.5q323 0 323 -341v-330q0 -48 4.5 -83t18 -73t44 -65t76.5 -41l-88 -145 q-103 34 -157 145q-128 -145 -320 -145q-45 0 -88.5 8t-89.5 30.5t-80.5 57t-56.5 92.5t-22 132zM193 1302q0 46 33.5 79t79.5 33q47 0 80.5 -33t33.5 -79t-33.5 -79t-80.5 -33q-46 0 -79.5 33t-33.5 79zM233 300q0 -43 15 -76.5t36 -51.5t47 -29.5t44 -15t30 -3.5 q38 0 71.5 4.5t73.5 20.5t68 41.5t47.5 72.5t19.5 110v84q-227 2 -297 -9q-118 -18 -145 -87q-10 -26 -10 -61zM559 1302q0 46 33.5 79t79.5 33q47 0 80.5 -33t33.5 -79t-33.5 -79t-80.5 -33q-46 0 -79.5 33t-33.5 79z" />
<glyph unicode="&#xe5;" horiz-adv-x="1022" d="M80 300q0 149 94.5 224.5t301.5 75.5q71 0 209 -12v129q0 198 -196 198q-110 0 -207 -31q-10 -74 -24 -139q-14 -8 -53 -8q-49 0 -61 12q-7 14 -7 126v101q119 47 192 64.5t187 17.5q323 0 323 -341v-330q0 -48 4.5 -83t18 -73t44 -65t76.5 -41l-88 -145 q-103 34 -157 145q-128 -145 -320 -145q-45 0 -88.5 8t-89.5 30.5t-80.5 57t-56.5 92.5t-22 132zM233 300q0 -43 15 -76.5t36 -51.5t47 -29.5t44 -15t30 -3.5q38 0 71.5 4.5t73.5 20.5t68 41.5t47.5 72.5t19.5 110v84q-227 2 -297 -9q-118 -18 -145 -87q-10 -26 -10 -61z M319 1411q0 80 59 138.5t141 58.5q81 0 141 -58.5t60 -138.5t-60 -139.5t-141 -59.5t-140.5 59t-59.5 140zM438 1411q0 -33 24 -57t57 -24t57.5 24t24.5 57q0 32 -24.5 56.5t-57.5 24.5t-57 -24.5t-24 -56.5z" />
<glyph unicode="&#xe6;" horiz-adv-x="1535" d="M80 300q0 149 94.5 224.5t301.5 75.5q71 0 209 -12v129q0 198 -196 198q-110 0 -207 -31q-10 -74 -24 -139q-14 -8 -53 -8q-49 0 -61 12q-7 14 -7 126v101q119 47 192 64.5t187 17.5q323 0 323 -341v-220q0 -16 -29.5 -52t-26.5 -53q5 -29 15.5 -43t13 -17t-2.5 -42 q-2 -10 -5 -29.5t-5.5 -29.5t-9 -27.5t-19.5 -36t-33 -42.5q-128 -145 -320 -145q-45 0 -88.5 8t-89.5 30.5t-80.5 57t-56.5 92.5t-22 132zM233 300q0 -43 15 -76.5t36 -51.5t47 -29.5t44 -15t30 -3.5q38 0 71.5 4.5t73.5 20.5t68 41.5t47.5 72.5t19.5 110v84 q-227 2 -297 -9q-118 -18 -145 -87q-10 -26 -10 -61zM684 532q0 114 26.5 208t79.5 166t139.5 112t200.5 40q66 0 120 -14.5t90 -37.5t63.5 -58.5t42.5 -72t24 -83t12 -86t3 -86.5v-140h-647q12 -173 107 -264.5t236 -91.5q135 0 280 74l3 -1v-143q-149 -74 -298 -74 q-99 0 -184.5 33t-153 98.5t-106 173.5t-38.5 247zM845 620h488q-1 64 -10.5 113.5t-32 92t-63.5 65.5t-100 23q-114 0 -188 -81t-94 -213z" />
<glyph unicode="&#xe7;" horiz-adv-x="899" d="M80 526q0 111 25.5 201t69.5 151t106 102t132 59.5t149 18.5q173 0 321 -74v-136q0 -112 -7 -126q-12 -12 -61 -12q-39 0 -53 8q-19 79 -28 176q-85 20 -156 20q-73 0 -134 -21t-109 -65t-75 -119.5t-27 -176.5q0 -200 97 -304t248 -104q77 0 156 20q9 97 28 176 q14 8 53 8q49 0 61 -12q7 -14 7 -126v-136q-148 -74 -321 -74q-97 0 -181 31.5t-152.5 95.5t-108.5 171.5t-40 247.5zM366 -427q8 78 47 107q77 -33 140 -33q40 0 71.5 22t31.5 61q0 52 -51 81.5t-108 29.5v159h159v-80q61 -17 97 -70.5t36 -121.5q0 -93 -70.5 -149.5 t-178.5 -56.5q-96 0 -174 51z" />
<glyph unicode="&#xe8;" horiz-adv-x="946" d="M80 532q0 114 26.5 208t79.5 166t139.5 112t200.5 40q66 0 120 -14.5t90 -37.5t63.5 -58.5t42.5 -72t24 -83t12 -86t3 -86.5v-140h-647q12 -173 107 -264.5t236 -91.5q135 0 280 74l3 -1v-143q-149 -74 -298 -74q-99 0 -184.5 33t-153 98.5t-106 173.5t-38.5 247z M233 1433q6 39 30.5 73.5t57.5 51.5q180 -158 391 -253q-3 -30 -16.5 -67.5t-25.5 -47.5q-123 24 -262 106.5t-175 136.5zM241 620h488q-1 64 -10.5 113.5t-32 92t-63.5 65.5t-100 23q-114 0 -188 -81t-94 -213z" />
<glyph unicode="&#xe9;" horiz-adv-x="946" d="M80 532q0 114 26.5 208t79.5 166t139.5 112t200.5 40q66 0 120 -14.5t90 -37.5t63.5 -58.5t42.5 -72t24 -83t12 -86t3 -86.5v-140h-647q12 -173 107 -264.5t236 -91.5q135 0 280 74l3 -1v-143q-149 -74 -298 -74q-99 0 -184.5 33t-153 98.5t-106 173.5t-38.5 247z M233 1305q211 95 391 253q33 -17 57.5 -51.5t30.5 -73.5q-36 -54 -175 -136.5t-262 -106.5q-12 10 -25.5 47.5t-16.5 67.5zM241 620h488q-1 64 -10.5 113.5t-32 92t-63.5 65.5t-100 23q-114 0 -188 -81t-94 -213z" />
<glyph unicode="&#xea;" horiz-adv-x="946" d="M80 532q0 114 26.5 208t79.5 166t139.5 112t200.5 40q66 0 120 -14.5t90 -37.5t63.5 -58.5t42.5 -72t24 -83t12 -86t3 -86.5v-140h-647q12 -173 107 -264.5t236 -91.5q135 0 280 74l3 -1v-143q-149 -74 -298 -74q-99 0 -184.5 33t-153 98.5t-106 173.5t-38.5 247z M179 1305q173 92 338 249h8q166 -158 338 -249q-3 -30 -16.5 -67.5t-26.5 -47.5q-176 86 -297 196h-5q-115 -106 -296 -196q-13 10 -26.5 47.5t-16.5 67.5zM241 620h488q-1 64 -10.5 113.5t-32 92t-63.5 65.5t-100 23q-114 0 -188 -81t-94 -213z" />
<glyph unicode="&#xeb;" horiz-adv-x="946" d="M80 532q0 114 26.5 208t79.5 166t139.5 112t200.5 40q66 0 120 -14.5t90 -37.5t63.5 -58.5t42.5 -72t24 -83t12 -86t3 -86.5v-140h-647q12 -173 107 -264.5t236 -91.5q135 0 280 74l3 -1v-143q-149 -74 -298 -74q-99 0 -184.5 33t-153 98.5t-106 173.5t-38.5 247z M176 1302q0 46 33.5 79t79.5 33q47 0 80.5 -33t33.5 -79t-33.5 -79t-80.5 -33q-46 0 -79.5 33t-33.5 79zM241 620h488q-1 64 -10.5 113.5t-32 92t-63.5 65.5t-100 23q-114 0 -188 -81t-94 -213zM542 1302q0 46 33.5 79t79.5 33q47 0 80.5 -33t33.5 -79t-33.5 -79t-80.5 -33 q-46 0 -79.5 33t-33.5 79z" />
<glyph unicode="&#xec;" horiz-adv-x="494" d="M8 1433q6 39 30.5 73.5t57.5 51.5q180 -158 391 -253q-3 -30 -16.5 -67.5t-25.5 -47.5q-123 24 -262 106.5t-175 136.5zM60 69q0 38 9 52q46 11 111 20v763q-103 2 -109 7q-11 4 -11 67q0 31 7 45q43 14 107 22.5t99.5 10.5t54.5 2h6v-917q68 -10 111 -20q9 -14 9 -52 q0 -47 -12 -61q-14 -8 -127 -8h-116q-113 0 -127 8q-12 14 -12 61z" />
<glyph unicode="&#xed;" horiz-adv-x="494" d="M-14 1305q211 95 391 253q33 -17 57.5 -51.5t30.5 -73.5q-36 -54 -175 -136.5t-262 -106.5q-12 10 -25.5 47.5t-16.5 67.5zM60 69q0 38 9 52q46 11 111 20v763q-103 2 -109 7q-11 4 -11 67q0 31 7 45q43 14 107 22.5t99.5 10.5t54.5 2h6v-917q68 -10 111 -20q9 -14 9 -52 q0 -47 -12 -61q-14 -8 -127 -8h-116q-113 0 -127 8q-12 14 -12 61z" />
<glyph unicode="&#xee;" horiz-adv-x="494" d="M-95 1305q173 92 338 249h8q166 -158 338 -249q-3 -30 -16.5 -67.5t-26.5 -47.5q-176 86 -297 196h-5q-115 -106 -296 -196q-13 10 -26.5 47.5t-16.5 67.5zM60 69q0 38 9 52q46 11 111 20v763q-103 2 -109 7q-11 4 -11 67q0 31 7 45q43 14 107 22.5t99.5 10.5t54.5 2h6 v-917q68 -10 111 -20q9 -14 9 -52q0 -47 -12 -61q-14 -8 -127 -8h-116q-113 0 -127 8q-12 14 -12 61z" />
<glyph unicode="&#xef;" horiz-adv-x="494" d="M-49 1302q0 46 33.5 79t79.5 33q47 0 80.5 -33t33.5 -79t-33.5 -79t-80.5 -33q-46 0 -79.5 33t-33.5 79zM60 69q0 38 9 52q46 11 111 20v763q-103 2 -109 7q-11 4 -11 67q0 31 7 45q43 14 107 22.5t99.5 10.5t54.5 2h6v-917q68 -10 111 -20q9 -14 9 -52q0 -47 -12 -61 q-14 -8 -127 -8h-116q-113 0 -127 8q-12 14 -12 61zM317 1302q0 46 33.5 79t79.5 33q47 0 80.5 -33t33.5 -79t-33.5 -79t-80.5 -33q-46 0 -79.5 33t-33.5 79z" />
<glyph unicode="&#xf0;" horiz-adv-x="968" d="M80 485q0 228 130 370.5t341 142.5q95 0 171 -30q-57 94 -155 177l-195 -71q-2 -56 -5 -61q-12 -12 -61 -12q-39 0 -53 8q-15 63 -24 143l216 79q-87 55 -205 108l80 110q139 -48 285 -159l177 65q10 70 21 115q14 8 53 8q49 0 61 -12q7 -14 7 -126v-64l-211 -78 q299 -288 299 -677q0 -259 -127.5 -400t-338.5 -141q-214 0 -340 140.5t-126 364.5zM235 494q0 -169 80 -269.5t238 -100.5q151 0 227.5 94t76.5 265q0 172 -77.5 271.5t-233.5 99.5q-153 0 -232 -95.5t-79 -264.5z" />
<glyph unicode="&#xf1;" horiz-adv-x="1135" d="M55 69q0 38 9 52q46 11 111 20v763q-103 2 -109 7q-11 4 -11 67q0 31 7 45q108 35 204 35h6l35 -116q72 48 157 82t154 34q77 0 141 -21t115.5 -65.5t80.5 -123t29 -184.5v-523q68 -10 111 -20q9 -13 9 -52q0 -47 -12 -61q-14 -8 -127 -8h-116q-113 0 -127 8 q-12 14 -12 61q0 38 9 52q46 11 111 20v514q0 260 -227 260q-109 0 -274 -100v-674q68 -10 111 -20q9 -14 9 -52q0 -47 -12 -61q-14 -8 -127 -8h-116q-113 0 -127 8q-12 14 -12 61zM228 1254q10 86 76 140t153 54q52 0 120.5 -42t110.5 -42q37 0 63.5 20t26.5 58v6 q96 14 141 -27q-10 -86 -77 -140t-156 -54q-41 0 -75 13t-53 29t-45 29t-53 13q-39 0 -65 -20t-26 -58v-6q-96 -14 -141 27z" />
<glyph unicode="&#xf2;" horiz-adv-x="1112" d="M80 516q0 150 60.5 273.5t171 196t248.5 72.5t247 -73t167 -195t58 -269q0 -150 -60 -273t-170.5 -195.5t-249.5 -72.5t-247.5 72.5t-166.5 194.5t-58 269zM235 524q0 -172 85.5 -286t240.5 -114q151 0 233.5 108t82.5 281q0 113 -34.5 202t-108.5 144t-178 55 q-151 0 -236 -109.5t-85 -280.5zM316 1433q6 39 30.5 73.5t57.5 51.5q180 -158 391 -253q-3 -30 -16.5 -67.5t-25.5 -47.5q-123 24 -262 106.5t-175 136.5z" />
<glyph unicode="&#xf3;" horiz-adv-x="1112" d="M80 516q0 150 60.5 273.5t171 196t248.5 72.5t247 -73t167 -195t58 -269q0 -150 -60 -273t-170.5 -195.5t-249.5 -72.5t-247.5 72.5t-166.5 194.5t-58 269zM235 524q0 -172 85.5 -286t240.5 -114q151 0 233.5 108t82.5 281q0 113 -34.5 202t-108.5 144t-178 55 q-151 0 -236 -109.5t-85 -280.5zM316 1305q211 95 391 253q33 -17 57.5 -51.5t30.5 -73.5q-36 -54 -175 -136.5t-262 -106.5q-12 10 -25.5 47.5t-16.5 67.5z" />
<glyph unicode="&#xf4;" horiz-adv-x="1112" d="M80 516q0 150 60.5 273.5t171 196t248.5 72.5t247 -73t167 -195t58 -269q0 -150 -60 -273t-170.5 -195.5t-249.5 -72.5t-247.5 72.5t-166.5 194.5t-58 269zM214 1305q173 92 338 249h8q166 -158 338 -249q-3 -30 -16.5 -67.5t-26.5 -47.5q-176 86 -297 196h-5 q-115 -106 -296 -196q-13 10 -26.5 47.5t-16.5 67.5zM235 524q0 -172 85.5 -286t240.5 -114q151 0 233.5 108t82.5 281q0 113 -34.5 202t-108.5 144t-178 55q-151 0 -236 -109.5t-85 -280.5z" />
<glyph unicode="&#xf5;" horiz-adv-x="1112" d="M80 516q0 150 60.5 273.5t171 196t248.5 72.5t247 -73t167 -195t58 -269q0 -150 -60 -273t-170.5 -195.5t-249.5 -72.5t-247.5 72.5t-166.5 194.5t-58 269zM210 1254q10 86 76 140t153 54q52 0 120.5 -42t110.5 -42q37 0 63.5 20t26.5 58v6q96 14 141 -27 q-10 -86 -77 -140t-156 -54q-41 0 -75 13t-53 29t-45 29t-53 13q-39 0 -65 -20t-26 -58v-6q-96 -14 -141 27zM235 524q0 -172 85.5 -286t240.5 -114q151 0 233.5 108t82.5 281q0 113 -34.5 202t-108.5 144t-178 55q-151 0 -236 -109.5t-85 -280.5z" />
<glyph unicode="&#xf6;" horiz-adv-x="1112" d="M80 516q0 150 60.5 273.5t171 196t248.5 72.5t247 -73t167 -195t58 -269q0 -150 -60 -273t-170.5 -195.5t-249.5 -72.5t-247.5 72.5t-166.5 194.5t-58 269zM235 524q0 -172 85.5 -286t240.5 -114q151 0 233.5 108t82.5 281q0 113 -34.5 202t-108.5 144t-178 55 q-151 0 -236 -109.5t-85 -280.5zM259 1302q0 46 33.5 79t79.5 33q47 0 80.5 -33t33.5 -79t-33.5 -79t-80.5 -33q-46 0 -79.5 33t-33.5 79zM625 1302q0 46 33.5 79t79.5 33q47 0 80.5 -33t33.5 -79t-33.5 -79t-80.5 -33q-46 0 -79.5 33t-33.5 79z" />
<glyph unicode="&#xf7;" horiz-adv-x="1030" d="M120 438v154h790v-154h-790zM401 92q0 46 33.5 79t79.5 33q47 0 80.5 -33t33.5 -79t-33.5 -79t-80.5 -33q-46 0 -79.5 33t-33.5 79zM401 946q0 46 33.5 79t79.5 33q47 0 80.5 -33t33.5 -79t-33.5 -79t-80.5 -33q-46 0 -79.5 33t-33.5 79z" />
<glyph unicode="&#xf8;" horiz-adv-x="1112" d="M80 516q0 150 60.5 273.5t171 196t248.5 72.5t247 -73t167 -195t58 -269q0 -150 -60 -273t-170.5 -195.5t-249.5 -72.5t-247.5 72.5t-166.5 194.5t-58 269zM235 524q0 -172 85.5 -286t240.5 -114q151 0 233.5 108t82.5 281q0 113 -34.5 202t-108.5 144t-178 55 q-151 0 -236 -109.5t-85 -280.5zM240 -168l513 1409l143 -54l-512 -1408z" />
<glyph unicode="&#xf9;" horiz-adv-x="1162" d="M30 978q0 31 7 45q43 14 107 22.5t99.5 10.5t54.5 2h6v-675q0 -260 227 -260q111 0 274 99v682q-102 2 -108 7q-11 4 -11 67q0 31 7 45q43 14 107 22.5t99.5 10.5t54.5 2h6v-924q160 0 171 -7q11 -4 11 -67q0 -31 -7 -45q-43 -14 -107 -22.5t-99.5 -10.5t-54.5 -2h-6 l-37 119q-72 -49 -159 -84t-156 -35q-77 0 -141 21t-116 65.5t-81 123t-29 184.5v530q-102 2 -108 7q-11 4 -11 67zM341 1433q6 39 30.5 73.5t57.5 51.5q180 -158 391 -253q-3 -30 -16.5 -67.5t-25.5 -47.5q-123 24 -262 106.5t-175 136.5z" />
<glyph unicode="&#xfa;" horiz-adv-x="1162" d="M30 978q0 31 7 45q43 14 107 22.5t99.5 10.5t54.5 2h6v-675q0 -260 227 -260q111 0 274 99v682q-102 2 -108 7q-11 4 -11 67q0 31 7 45q43 14 107 22.5t99.5 10.5t54.5 2h6v-924q160 0 171 -7q11 -4 11 -67q0 -31 -7 -45q-43 -14 -107 -22.5t-99.5 -10.5t-54.5 -2h-6 l-37 119q-72 -49 -159 -84t-156 -35q-77 0 -141 21t-116 65.5t-81 123t-29 184.5v530q-102 2 -108 7q-11 4 -11 67zM341 1305q211 95 391 253q33 -17 57.5 -51.5t30.5 -73.5q-36 -54 -175 -136.5t-262 -106.5q-12 10 -25.5 47.5t-16.5 67.5z" />
<glyph unicode="&#xfb;" horiz-adv-x="1162" d="M30 978q0 31 7 45q43 14 107 22.5t99.5 10.5t54.5 2h6v-675q0 -260 227 -260q111 0 274 99v682q-102 2 -108 7q-11 4 -11 67q0 31 7 45q43 14 107 22.5t99.5 10.5t54.5 2h6v-924q160 0 171 -7q11 -4 11 -67q0 -31 -7 -45q-43 -14 -107 -22.5t-99.5 -10.5t-54.5 -2h-6 l-37 119q-72 -49 -159 -84t-156 -35q-77 0 -141 21t-116 65.5t-81 123t-29 184.5v530q-102 2 -108 7q-11 4 -11 67zM239 1305q173 92 338 249h8q166 -158 338 -249q-3 -30 -16.5 -67.5t-26.5 -47.5q-176 86 -297 196h-5q-115 -106 -296 -196q-13 10 -26.5 47.5t-16.5 67.5z " />
<glyph unicode="&#xfc;" horiz-adv-x="1162" d="M30 978q0 31 7 45q43 14 107 22.5t99.5 10.5t54.5 2h6v-675q0 -260 227 -260q111 0 274 99v682q-102 2 -108 7q-11 4 -11 67q0 31 7 45q43 14 107 22.5t99.5 10.5t54.5 2h6v-924q160 0 171 -7q11 -4 11 -67q0 -31 -7 -45q-43 -14 -107 -22.5t-99.5 -10.5t-54.5 -2h-6 l-37 119q-72 -49 -159 -84t-156 -35q-77 0 -141 21t-116 65.5t-81 123t-29 184.5v530q-102 2 -108 7q-11 4 -11 67zM284 1302q0 46 33.5 79t79.5 33q47 0 80.5 -33t33.5 -79t-33.5 -79t-80.5 -33q-46 0 -79.5 33t-33.5 79zM650 1302q0 46 33.5 79t79.5 33q47 0 80.5 -33 t33.5 -79t-33.5 -79t-80.5 -33q-46 0 -79.5 33t-33.5 79z" />
<glyph unicode="&#xfd;" horiz-adv-x="1052" d="M-60 -286q0 112 7 126q12 12 61 12q39 0 53 -8q16 -68 27 -164q45 -15 89 -15q57 0 103.5 27.5t66.5 84.5l77 223h-48l-309 899q-37 5 -95 18q-9 13 -9 52q0 47 12 61q7 3 45 5l-1 3h199q113 0 127 -8q12 -14 12 -61q0 -39 -9 -52q-55 -13 -120 -22l252 -730l253 733 q-53 7 -101 19q-9 13 -9 52q0 47 12 61q14 8 127 8h179l-1 -2q54 -2 65 -6q12 -14 12 -61q0 -39 -9 -52q-44 -11 -116 -21l-396 -1148q-79 -226 -300 -226q-117 0 -256 63v129zM286 1305q211 95 391 253q33 -17 57.5 -51.5t30.5 -73.5q-36 -54 -175 -136.5t-262 -106.5 q-12 10 -25.5 47.5t-16.5 67.5z" />
<glyph unicode="&#xfe;" horiz-adv-x="1130" d="M61 -389q0 39 9 52q46 11 111 20v1611q-102 2 -108 7q-11 4 -11 67q0 31 7 45q43 14 106.5 22.5t99 10.5t54.5 2h6v-481q121 91 267 91q201 0 324.5 -151.5t123.5 -381.5q0 -112 -32 -209t-94.5 -173t-164.5 -119.5t-232 -43.5q-93 0 -192 23v-320q68 -10 111 -20 q9 -13 9 -52q0 -47 -12 -61q-14 -8 -127 -8h-116q-113 0 -127 8q-12 14 -12 61zM335 162q97 -40 203 -40q158 0 257.5 112t99.5 305q0 79 -18.5 145.5t-55 118.5t-98 81.5t-142.5 29.5q-167 0 -246 -112v-640z" />
<glyph unicode="&#xff;" horiz-adv-x="1052" d="M-60 -286q0 112 7 126q12 12 61 12q39 0 53 -8q16 -68 27 -164q45 -15 89 -15q57 0 103.5 27.5t66.5 84.5l77 223h-48l-309 899q-37 5 -95 18q-9 13 -9 52q0 47 12 61q7 3 45 5l-1 3h199q113 0 127 -8q12 -14 12 -61q0 -39 -9 -52q-55 -13 -120 -22l252 -730l253 733 q-53 7 -101 19q-9 13 -9 52q0 47 12 61q14 8 127 8h179l-1 -2q54 -2 65 -6q12 -14 12 -61q0 -39 -9 -52q-44 -11 -116 -21l-396 -1148q-79 -226 -300 -226q-117 0 -256 63v129zM187 1302q0 46 33.5 79t79.5 33q47 0 80.5 -33t33.5 -79t-33.5 -79t-80.5 -33q-46 0 -79.5 33 t-33.5 79zM553 1302q0 46 33.5 79t79.5 33q47 0 80.5 -33t33.5 -79t-33.5 -79t-80.5 -33q-46 0 -79.5 33t-33.5 79z" />
<glyph unicode="&#x152;" horiz-adv-x="1696" d="M80 660q0 190 77.5 344.5t219.5 244t321 89.5q184 0 326 -95l-62 -135q-109 86 -268 86q-212 0 -336 -146.5t-124 -375.5q0 -156 53.5 -279t160 -196t251.5 -73q133 0 235 63l77 -114q-145 -93 -324 -93t-318 90t-214 244.5t-75 345.5zM737 69q0 38 9 52q46 11 111 20 v1035q-54 8 -111 21q-9 13 -9 52q0 47 12 61q14 8 127 8h775v-144q0 -112 -7 -126q-12 -12 -61 -12q-39 0 -53 8q-15 67 -23 130h-495v-443h391q8 65 23 130q14 8 53 8q49 0 61 -12q7 -14 7 -126v-144q0 -112 -7 -126q-12 -12 -61 -12q-39 0 -53 8q-15 67 -23 130h-391v-443 h495q8 65 23 130q14 8 53 8q49 0 61 -12q7 -14 7 -126v-144h-775q-113 0 -127 8q-12 14 -12 61z" />
<glyph unicode="&#x153;" horiz-adv-x="1728" d="M80 516q0 150 60.5 273.5t171 196t248.5 72.5t247 -73t167 -195t58 -269q0 -150 -60 -273t-170.5 -195.5t-249.5 -72.5t-247.5 72.5t-166.5 194.5t-58 269zM235 524q0 -172 85.5 -286t240.5 -114q151 0 233.5 108t82.5 281q0 113 -34.5 202t-108.5 144t-178 55 q-151 0 -236 -109.5t-85 -280.5zM877 532q0 114 26.5 208t79.5 166t139.5 112t200.5 40q66 0 120 -14.5t90 -37.5t63.5 -58.5t42.5 -72t24 -83t12 -86t3 -86.5v-140h-647q12 -173 107 -264.5t236 -91.5q135 0 280 74l3 -1v-143q-149 -74 -298 -74q-99 0 -184.5 33t-153 98.5 t-106 173.5t-38.5 247zM1038 620h488q-1 64 -10.5 113.5t-32 92t-63.5 65.5t-100 23q-114 0 -188 -81t-94 -213z" />
<glyph unicode="&#x178;" horiz-adv-x="1166" d="M30 1249q0 47 12 61q14 8 127 8h116q113 0 127 -8q12 -14 12 -61q0 -39 -9 -52q-39 -9 -91 -17l259 -530l258 530q-49 7 -90 17q-9 13 -9 52q0 47 12 61q14 8 127 8h116q113 0 127 -8q12 -14 12 -61q0 -39 -9 -52q-46 -12 -135 -24l-332 -681v-351q68 -10 111 -20 q9 -14 9 -52q0 -47 -12 -61q-14 -8 -127 -8h-116q-113 0 -127 8q-12 14 -12 61q0 38 9 52q46 11 111 20v351l-333 681q-86 12 -134 24q-9 13 -9 52zM289 1520q0 46 33.5 79t79.5 33q47 0 80.5 -33t33.5 -79t-33.5 -79t-80.5 -33q-46 0 -79.5 33t-33.5 79zM655 1520 q0 46 33.5 79t79.5 33q47 0 80.5 -33t33.5 -79t-33.5 -79t-80.5 -33q-46 0 -79.5 33t-33.5 79z" />
<glyph unicode="&#x2c6;" horiz-adv-x="892" d="M104 1305q173 92 338 249h8q166 -158 338 -249q-3 -30 -16.5 -67.5t-26.5 -47.5q-176 86 -297 196h-5q-115 -106 -296 -196q-13 10 -26.5 47.5t-16.5 67.5z" />
<glyph unicode="&#x2dc;" horiz-adv-x="892" d="M101 1254q10 86 76 140t153 54q52 0 120.5 -42t110.5 -42q37 0 63.5 20t26.5 58v6q96 14 141 -27q-10 -86 -77 -140t-156 -54q-41 0 -75 13t-53 29t-45 29t-53 13q-39 0 -65 -20t-26 -58v-6q-96 -14 -141 27z" />
<glyph unicode="&#x2000;" horiz-adv-x="888" />
<glyph unicode="&#x2001;" horiz-adv-x="1776" />
<glyph unicode="&#x2002;" horiz-adv-x="888" />
<glyph unicode="&#x2003;" horiz-adv-x="1776" />
<glyph unicode="&#x2004;" horiz-adv-x="592" />
<glyph unicode="&#x2005;" horiz-adv-x="444" />
<glyph unicode="&#x2006;" horiz-adv-x="296" />
<glyph unicode="&#x2007;" horiz-adv-x="296" />
<glyph unicode="&#x2008;" horiz-adv-x="222" />
<glyph unicode="&#x2009;" horiz-adv-x="355" />
<glyph unicode="&#x200a;" horiz-adv-x="98" />
<glyph unicode="&#x2010;" horiz-adv-x="600" d="M50 474v144h500v-144h-500z" />
<glyph unicode="&#x2011;" horiz-adv-x="600" d="M50 474v144h500v-144h-500z" />
<glyph unicode="&#x2012;" horiz-adv-x="600" d="M50 474v144h500v-144h-500z" />
<glyph unicode="&#x2013;" horiz-adv-x="1052" d="M50 474v144h952v-144h-952z" />
<glyph unicode="&#x2014;" horiz-adv-x="1201" d="M50 474v144h1101v-144h-1101z" />
<glyph unicode="&#x2018;" horiz-adv-x="391" d="M80 1168q0 80 59 161.5t129 118.5l43 -54q-49 -81 -49 -130q0 -47 44 -107q0 -46 -33 -79t-79 -33q-43 0 -78.5 30.5t-35.5 92.5z" />
<glyph unicode="&#x2019;" horiz-adv-x="391" d="M80 1099q49 84 49 130t-45 107q0 46 33 79t79 33q43 0 79 -30.5t36 -92.5q0 -80 -59.5 -161.5t-129.5 -118.5z" />
<glyph unicode="&#x201a;" horiz-adv-x="392" d="M80 -145q50 83 50 130q0 46 -45 107q0 46 33 79t79 33q43 0 79 -30.5t36 -92.5q0 -80 -59.5 -161.5t-129.5 -118.5z" />
<glyph unicode="&#x201c;" horiz-adv-x="718" d="M80 1168q0 80 59 161.5t129 118.5l43 -54q-49 -81 -49 -130q0 -47 44 -107q0 -46 -33 -79t-79 -33q-43 0 -78.5 30.5t-35.5 92.5zM407 1168q0 80 59.5 161.5t129.5 118.5l42 -54q-49 -84 -49 -130t45 -107q0 -46 -33 -79t-79 -33q-43 0 -79 30.5t-36 92.5z" />
<glyph unicode="&#x201d;" horiz-adv-x="718" d="M80 1099q49 84 49 130t-45 107q0 46 33 79t79 33q43 0 79 -30.5t36 -92.5q0 -80 -59.5 -161.5t-129.5 -118.5zM407 1099q49 81 49 130q0 47 -44 107q0 46 33 79t79 33q43 0 78.5 -30.5t35.5 -92.5q0 -80 -59 -161.5t-129 -118.5z" />
<glyph unicode="&#x201e;" horiz-adv-x="718" d="M80 -145q49 84 49 130t-45 107q0 46 33 79t79 33q43 0 79 -30.5t36 -92.5q0 -80 -59.5 -161.5t-129.5 -118.5zM407 -145q49 81 49 130q0 47 -44 107q0 46 33 79t79 33q43 0 78.5 -30.5t35.5 -92.5q0 -80 -59 -161.5t-129 -118.5z" />
<glyph unicode="&#x2022;" horiz-adv-x="771" d="M80 518q0 123 89.5 213.5t215.5 90.5q125 0 215.5 -90.5t90.5 -213.5t-90.5 -213.5t-215.5 -90.5q-126 0 -215.5 90.5t-89.5 213.5z" />
<glyph unicode="&#x2026;" horiz-adv-x="1161" d="M80 92q0 46 33.5 79t79.5 33q47 0 80.5 -33t33.5 -79t-33.5 -79t-80.5 -33q-46 0 -79.5 33t-33.5 79zM467 92q0 46 33.5 79t79.5 33q47 0 80.5 -33t33.5 -79t-33.5 -79t-80.5 -33q-46 0 -79.5 33t-33.5 79zM854 92q0 46 33.5 79t79.5 33q47 0 80.5 -33t33.5 -79 t-33.5 -79t-80.5 -33q-46 0 -79.5 33t-33.5 79z" />
<glyph unicode="&#x202f;" horiz-adv-x="355" />
<glyph unicode="&#x2039;" horiz-adv-x="796" d="M120 714l424 735l132 -77l-381 -658l381 -658l-132 -77z" />
<glyph unicode="&#x203a;" horiz-adv-x="796" d="M120 56l380 658l-380 658l132 77l424 -735l-424 -735z" />
<glyph unicode="&#x205f;" horiz-adv-x="444" />
<glyph unicode="&#x20ac;" horiz-adv-x="1189" d="M40 454l52 147h95q-2 19 -2 59q0 44 2 66h-143l-4 4l52 140h118q60 225 239.5 346.5t430.5 121.5q151 0 269 -41v-123q0 -112 -7 -126q-12 -12 -61 -12q-39 0 -53 8q-12 47 -24 136q-78 13 -140 13q-180 0 -310 -83t-183 -240h634l4 -4l-52 -140h-615q-3 -33 -3 -68 q0 -39 2 -57h566l4 -11l-52 -140h-487q53 -154 178.5 -239t292.5 -85q74 0 152 18q11 78 23 130q14 8 53 8q49 0 61 -12q7 -14 7 -126v-99q-157 -65 -313 -65q-222 0 -389.5 125.5t-225.5 344.5h-167z" />
<glyph unicode="&#x2122;" horiz-adv-x="1404" d="M45 1225v112h525v-112h-204v-547h-117v547h-204zM663 678l2 659h145l168 -332h2l169 332h142l3 -659h-117l-3 488l-153 -298h-85l-154 300l-2 -490h-117z" />
<glyph unicode="&#x25fc;" horiz-adv-x="1040" d="M0 0v1040h1040v-1040h-1040z" />
<glyph unicode="&#xfb03;" horiz-adv-x="1786" d="M41 895v143h168v4q0 115 23 195.5t67 126t101 65t134 19.5q162 0 405 -84q78 84 236 84q53 0 111.5 -8t115 -23t94 -26t82 -26.5t45.5 -15.5q-1 -202 -7 -212q-12 -12 -61 -12q-39 0 -53 8q-21 88 -25 114q-185 58 -292 58q-92 0 -136.5 -57.5t-44.5 -205.5v-4h622v-897 q68 -10 111 -20q9 -13 9 -52q0 -47 -12 -61q-14 -8 -127 -8h-116q-113 0 -127 8q-12 14 -12 61q0 38 9 52q46 11 111 20v754h-468v-754q68 -10 111 -20q9 -13 9 -52q0 -47 -12 -61q-14 -8 -127 -8h-116q-113 0 -127 8q-12 14 -12 61q0 38 9 52q46 11 111 20v754h-487v-754 q68 -10 111 -20q9 -14 9 -52q0 -47 -12 -61q-14 -8 -127 -8h-116q-113 0 -127 8q-12 14 -12 61q0 38 9 52q46 11 111 20v754h-168zM363 1038h487v4q0 118 22 194q-212 69 -328 69q-92 0 -136.5 -57.5t-44.5 -205.5v-4z" />
<glyph unicode="&#xfb04;" horiz-adv-x="1758" d="M41 895v143h168v4q0 115 23 195.5t67 126t101 65t134 19.5q155 0 386 -78q79 78 261 78q115 0 263 -20l144 20h10v-1307q68 -10 111 -20q9 -13 9 -52q0 -47 -12 -61q-14 -8 -127 -8h-116q-113 0 -127 8q-12 14 -12 61q0 38 9 52q46 11 111 20v1148q-134 17 -220 17 q-58 0 -98.5 -10t-75.5 -37t-52 -79t-17 -130v-12h234v-144h-234v-753q68 -10 111 -20q9 -13 9 -52q0 -47 -12 -61q-14 -8 -127 -8h-116q-113 0 -127 8q-12 14 -12 61q0 38 9 52q46 11 111 20v753l-464 1v-754q68 -10 111 -20q9 -14 9 -52q0 -47 -12 -61q-14 -8 -127 -8 h-116q-113 0 -127 8q-12 14 -12 61q0 38 9 52q46 11 111 20v754h-168zM363 1038h464v12q0 118 22 193q-200 62 -305 62q-92 0 -136.5 -57.5t-44.5 -205.5v-4z" />
</font>
</defs>
</svg>
