<?xml version="1.0" standalone="no"?>
<!DOCTYPE svg PUBLIC "-//W3C//DTD SVG 1.1//EN" "http://www.w3.org/Graphics/SVG/1.1/DTD/svg11.dtd" >
<svg xmlns="http://www.w3.org/2000/svg" xmlns:xlink="http://www.w3.org/1999/xlink" version="1.1">
<metadata></metadata>
<defs>
<font id="flanders_art_sansregular" horiz-adv-x="1164" >
<font-face units-per-em="2048" ascent="1536" descent="-512" />
<missing-glyph horiz-adv-x="600" />
<glyph unicode="&#xfb01;" horiz-adv-x="1145" d="M40 895h168v-895h155v895h468v-895h154v1038h-622v4q0 149 48 209q42 54 133 54q34 0 74 -6q83 -13 161 -35q90 -26 128 -39q23 -9 33 -12l42 136q-23 7 -65 22q-43 15 -107 34q-153 43 -276 43q-159 0 -236 -84q-90 -98 -90 -322v-4h-168v-143z" />
<glyph unicode="&#xfb02;" horiz-adv-x="1140" d="M40 894h168v-895h155v895h234v144h-234v12q0 150 68 209q56 47 175 47q96 0 220 -17v-1290h154v1449h-10l-144 -20q-148 20 -263 20q-175 0 -256 -73q-99 -90 -99 -325v-12h-168v-144z" />
<glyph horiz-adv-x="0" />
<glyph horiz-adv-x="682" />
<glyph unicode="&#xd;" horiz-adv-x="0" />
<glyph unicode=" "  horiz-adv-x="600" />
<glyph unicode="&#x09;" horiz-adv-x="600" />
<glyph unicode="&#xa0;" horiz-adv-x="600" />
<glyph unicode="!" horiz-adv-x="467" d="M120 92q0 -47 34 -79q33 -33 79 -33t81 33q33 33 33 79t-33 79q-35 33 -81 33t-79 -33q-34 -32 -34 -79zM155 1428q0 -148 3 -350q4 -285 8 -401q5 -210 14 -271h112q2 20 8 108q7 138 12 358q1 35 2.5 103.5t1.5 102.5q3 135 3 350h-164z" />
<glyph unicode="&#x22;" horiz-adv-x="718" d="M80 1099l42 -54q70 39 126 115q63 85 63 165q0 62 -39 96q-34 27 -76 27q-46 0 -79 -33t-33 -79q45 -62 45 -107q0 -46 -49 -130zM407 1099l43 -54q70 39 126 115q62 86 62 165q0 62 -39 96q-33 27 -75 27q-46 0 -79 -33t-33 -79q44 -61 44 -107q0 -49 -49 -130z" />
<glyph unicode="#" horiz-adv-x="1153" d="M40 386l6 -6h168l-66 -249l141 -52l4 2l79 299h276l-66 -249l141 -52l4 2l79 299h213l53 144l-5 6h-221l70 261h144l53 144l-5 6h-152l62 232l-139 51l-6 -3l-75 -280h-276l62 232l-139 51l-6 -3l-75 -280h-230l-53 -144l6 -6h237l-70 -261h-161zM412 530l70 261h276 l-70 -261h-276z" />
<glyph unicode="$" horiz-adv-x="919" d="M90 38q119 -58 269 -58h11q8 0 12 1v-130h154v154q130 39 208 128q85 100 85 242q0 100 -47 171q-32 47 -118 104q-60 39 -207 112q-126 63 -162 95q-57 51 -57 138q0 111 83 161q67 40 184 40q94 0 229 -27l3 2v132q-98 30 -201 34v111h-154v-122q-130 -26 -201 -104 q-84 -90 -84 -239q0 -169 104 -252q36 -29 175 -100q153 -78 193 -103q59 -37 87.5 -80.5t28.5 -106.5q0 -115 -93 -170q-80 -47 -209 -47q-75 0 -160 17q-83 17 -130 38l-3 -1v-140z" />
<glyph unicode="%" horiz-adv-x="1638" d="M80 1000q0 -140 89 -234q91 -98 235 -98q146 0 239 98q91 96 91 239q0 139 -88 235q-93 98 -236 98t-238 -98q-92 -97 -92 -240zM220 1001q0 80 53 138q51 56 136 56q83 0 134 -56t51 -134q0 -80 -52 -137t-137 -57q-83 0 -134 56t-51 134zM432 241l126 -88l646 924 l-126 88zM904 312q0 -140 89 -234q91 -98 235 -98q146 0 239 98q91 96 91 239q0 139 -88 235q-93 98 -236 98t-238 -98q-92 -97 -92 -240zM1044 313q0 80 53 138q51 56 136 56q83 0 134 -56t51 -134q0 -80 -52 -137t-137 -57q-83 0 -134 56t-51 134z" />
<glyph unicode="&#x26;" horiz-adv-x="1252" d="M80 365q0 -177 120 -283q116 -102 302 -102q236 0 392 170l171 -170l107 109l-186 186q93 159 134 401l-134 54h-8q-37 -211 -104 -344l-322 323q130 62 189 120q91 88 91 222q0 138 -93 218q-84 69 -218 69q-148 0 -237 -89q-88 -86 -88 -233q0 -168 118 -291 q-121 -73 -177.5 -158.5t-56.5 -201.5zM234 362q0 92 54 166q42 58 121 107l379 -379q-117 -132 -289 -132q-125 0 -196 66q-69 64 -69 172zM350 1029q0 77 44 121t131 44q72 0 110 -31q45 -37 45 -115q0 -97 -70 -160q-44 -41 -135 -80q-1 0 -3.5 -1t-4.5 -2 q-1 -1 -3.5 -2.5t-4.5 -1.5q-48 46 -75 98q-34 62 -34 130z" />
<glyph unicode="'" horiz-adv-x="391" d="M80 1099l42 -54q70 39 126 115q63 85 63 165q0 62 -39 96q-34 27 -76 27q-46 0 -79 -33t-33 -79q45 -62 45 -107q0 -46 -49 -130z" />
<glyph unicode="(" horiz-adv-x="570" d="M120 680q0 -384 212 -700h4l114 101q-161 275 -161 605q0 333 161 664l-111 98h-4q-215 -376 -215 -768z" />
<glyph unicode=")" horiz-adv-x="570" d="M120 81l114 -101h4q212 316 212 700q0 392 -215 768h-4l-111 -98q161 -331 161 -664q0 -330 -161 -605z" />
<glyph unicode="*" horiz-adv-x="909" d="M50 475q158 0 309 23q-117 -122 -197 -238l134 -94q83 118 159 268q74 -148 158 -268l134 94q-84 122 -194 238q151 -23 306 -23v164q-145 0 -309 -25q110 115 197 240l-134 94q-83 -117 -158 -269q-70 141 -159 269l-134 -94q84 -121 199 -241q-165 26 -311 26v-164z M371 505v104l82 59l85 -58l2 -104l-85 -60z" />
<glyph unicode="+" horiz-adv-x="1030" d="M120 438h318v-318h154v318h318v154h-318v318h-154v-318h-318v-154z" />
<glyph unicode="," horiz-adv-x="392" d="M80 -145l43 -54q70 39 126 115q63 85 63 165q0 62 -39 96q-34 27 -76 27q-46 0 -79 -33t-33 -79q45 -62 45 -107q0 -47 -50 -130z" />
<glyph unicode="-" horiz-adv-x="600" d="M50 474h500v144h-500v-144z" />
<glyph unicode="." horiz-adv-x="387" d="M80 92q0 -47 34 -79q33 -33 79 -33t81 33q33 33 33 79t-33 79q-35 33 -81 33t-79 -33q-34 -32 -34 -79z" />
<glyph unicode="/" horiz-adv-x="971" d="M120 -168l144 -53l588 1616l-144 53z" />
<glyph unicode="0" horiz-adv-x="1112" d="M80 663q0 -172 41 -313q48 -166 147 -261q114 -109 284 -109q219 0 343 161q133 172 137 505q0 338 -135 521q-126 171 -345 171q-217 0 -342 -170q-130 -177 -130 -505zM235 662q0 269 79 400.5t239 131.5q159 0 240 -121q84 -128 84 -408q0 -297 -84 -425 q-76 -116 -240 -116q-160 0 -239 133t-79 405z" />
<glyph unicode="1" horiz-adv-x="618" d="M40 1079q135 0 264 46v-1125h154v1318h-113q-76 -49 -132 -68q-73 -26 -173 -26v-145z" />
<glyph unicode="2" horiz-adv-x="1008" d="M30 0h898v144h-674q309 228 454 408q169 210 169 413q0 181 -116 281q-109 92 -273 92q-96 0 -198 -29q-112 -32 -181 -77l42 -115l9 -7q62 37 138 60q77 23 152 23q127 0 206 -65q80 -66 80 -179q0 -86 -52 -183q-65 -118 -210 -262q-173 -169 -444 -360v-144z" />
<glyph unicode="3" horiz-adv-x="973" d="M45 91q80 -53 204 -83q115 -28 204 -28q104 0 203 37q110 41 174 122q74 92 74 225q0 132 -69 220q-62 78 -173 118q75 48 118 120q48 80 48 186q0 121 -64 201q-57 68 -149 101q-80 28 -167 28q-80 0 -175 -26q-100 -27 -181 -78l32 -115l8 -7q144 85 293 85 q106 0 176 -49q74 -53 74 -150q0 -119 -101 -186q-83 -55 -194 -55h-156v-140h132q166 0 270 -55q124 -65 124 -186q0 -109 -92 -182q-91 -72 -226 -72q-80 0 -178 27q-98 25 -169 69l-8 -7z" />
<glyph unicode="4" horiz-adv-x="970" d="M20 300h615v-300h154v300h152v143h-152v875h-176l-593 -875v-143zM203 443l432 634v-634h-432z" />
<glyph unicode="5" horiz-adv-x="973" d="M70 91q82 -54 195 -83q110 -28 208 -28q171 0 291 103q140 120 140 332q0 172 -100 266q-82 77 -238 106q-107 20 -276 20l40 369h517v142h-645v-27l-69 -625h140q249 0 358 -53q118 -58 118 -194q0 -129 -79 -211q-84 -86 -217 -86q-76 0 -171 26q-106 27 -172 70l-8 -7 z" />
<glyph unicode="6" horiz-adv-x="968" d="M80 457q0 -208 95 -335q103 -142 302 -142q146 0 246 79q85 66 129 177q37 94 37 188q0 158 -106 269q-109 114 -265 114q-141 0 -260 -93q30 124 87 217q73 120 181 185q128 78 308 78v144q-260 0 -441 -137q-157 -119 -240 -333q-73 -188 -73 -411zM228 458q0 57 5 104 q155 100 264 100q96 0 164 -66q74 -74 74 -191q0 -113 -57 -190q-66 -90 -178 -90q-114 0 -189 84q-83 91 -83 249z" />
<glyph unicode="7" horiz-adv-x="838" d="M50 1174h555l-473 -1174h154l532 1318h-768v-144z" />
<glyph unicode="8" horiz-adv-x="988" d="M60 339q0 -169 135 -269q121 -90 299 -90q177 0 299 89q136 100 136 270q0 130 -84 222q-65 70 -188 127q104 59 154 126q59 80 59 187q0 159 -117 253q-107 84 -259 84q-156 0 -260 -86q-115 -95 -115 -251q0 -107 60 -188q50 -68 153 -125q-118 -53 -183 -121 q-89 -96 -89 -228zM214 333q0 96 86 165q49 39 194 110q143 -68 193 -109q88 -71 88 -163q0 -99 -88 -158q-79 -54 -193 -54q-115 0 -193 54q-87 59 -87 155zM274 1002q0 92 69 146q61 46 151 46t151 -46q70 -55 70 -147q0 -84 -62 -146q-51 -50 -159 -97q-105 47 -156 96 q-64 62 -64 148z" />
<glyph unicode="9" horiz-adv-x="968" d="M80 894q0 -157 106 -268q110 -115 265 -115q142 0 260 92q-30 -122 -87 -216q-71 -119 -181 -185q-130 -78 -308 -78v-144q260 0 441 137q157 119 240 333q73 188 73 411q0 207 -94 336q-105 141 -303 141q-145 0 -246 -78q-84 -66 -128 -177q-38 -96 -38 -189zM234 913 q0 113 57 190q66 90 178 90q115 0 190 -83q82 -92 82 -250q0 -48 -5 -104q-151 -100 -264 -100q-97 0 -164 67q-74 72 -74 190z" />
<glyph unicode=":" horiz-adv-x="387" d="M80 92q0 -47 34 -79q33 -33 79 -33t81 33q33 33 33 79t-33 79q-35 33 -81 33t-79 -33q-34 -32 -34 -79zM80 946q0 -47 34 -79q33 -33 79 -33t81 33q33 33 33 79t-33 79q-35 33 -81 33t-79 -33q-34 -32 -34 -79z" />
<glyph unicode=";" horiz-adv-x="392" d="M80 -145l43 -54q70 39 126 115q63 85 63 165q0 62 -39 96q-34 27 -76 27q-46 0 -79 -33t-33 -79q45 -62 45 -107q0 -47 -50 -130zM84 946q0 -47 34 -79q33 -33 79 -33t81 33q33 33 33 79t-33 79q-35 33 -81 33t-79 -33q-34 -32 -34 -79z" />
<glyph unicode="&#x3c;" horiz-adv-x="918" d="M120 518l590 -413l88 125l-411 288l411 288l-88 125z" />
<glyph unicode="=" horiz-adv-x="1030" d="M120 284h790v154h-790v-154zM120 592h790v154h-790v-154z" />
<glyph unicode="&#x3e;" horiz-adv-x="918" d="M120 230l88 -125l590 413l-590 413l-88 -125l411 -288z" />
<glyph unicode="?" horiz-adv-x="975" d="M120 1306l42 -115h9q36 50 116 80q79 30 166 30q120 0 188 -57q65 -54 65 -146q0 -47 -16 -82q-29 -64 -106 -131q-46 -42 -71 -67q-90 -90 -133 -181q-60 -128 -60 -303h154q0 88 17 158q30 125 104 212q16 19 35.5 39.5t33.5 34t37.5 36t33.5 32.5q31 28 61 70 q60 85 60 191q0 165 -123 259q-107 82 -268 82q-105 0 -202 -39q-93 -39 -143 -103zM285 92q0 -47 34 -79q33 -33 79 -33t81 33q33 33 33 79t-33 79q-35 33 -81 33t-79 -33q-34 -32 -34 -79z" />
<glyph unicode="@" horiz-adv-x="1422" d="M80 535q0 -301 176 -493q179 -195 481 -195q124 0 229 34q120 37 200 113l-104 94q-105 -97 -325 -97q-232 0 -369 158q-134 154 -134 395q0 245 146 382q141 132 391 132q131 0 189 -42q65 -47 65 -156v-62q-138 12 -209 12q-206 0 -304 -78q-92 -73 -92 -223 q0 -173 117 -256q88 -63 220 -63q99 0 185 42q78 38 135 103q54 -111 157 -145l88 145q-88 27 -120 105q-23 54 -23 157v263q0 192 -102 270q-93 71 -303 71q-182 0 -333 -69q-166 -76 -257 -216q-104 -158 -104 -381zM573 510q0 100 91 133q67 25 258 25h50q17 -1 53 -1 v-84q0 -102 -49 -162q-41 -50 -107 -71q-47 -16 -102 -16q-85 0 -138 44q-56 46 -56 132z" />
<glyph unicode="A" d="M25 0h160l106 307h582l106 -307h160l-454 1318h-207zM340 451l242 701l242 -701h-484z" />
<glyph unicode="B" horiz-adv-x="1106" d="M160 0h226q209 0 330 21q156 27 238 106q92 87 92 257q0 117 -49 192.5t-152 117.5q118 83 118 273q0 194 -146 275q-137 76 -457 76h-200v-1318zM315 146v459h148q227 0 318 -41q110 -50 110 -194q0 -76 -29 -121t-89 -68q-93 -35 -357 -35h-101zM315 751v423h65 q235 0 318 -34q56 -23 83.5 -67.5t27.5 -120.5q0 -72 -26.5 -113t-82.5 -61q-50 -18 -123 -22.5t-205 -4.5h-57z" />
<glyph unicode="C" horiz-adv-x="1081" d="M80 680q0 -317 164 -504q171 -196 493 -196q81 0 154 11q86 12 150 30v142l-7 4q-63 -20 -150 -32q-73 -10 -139 -10q-249 0 -384 151q-127 142 -127 384q0 245 128 385q134 148 383 148q66 0 139 -10q87 -12 150 -32l7 4v142q-64 18 -150 30q-83 11 -154 11 q-318 0 -491 -189q-160 -174 -166 -469z" />
<glyph unicode="D" horiz-adv-x="1298" d="M160 0h389q142 0 265 49t214 138q91 88 140.5 209.5t49.5 263.5q0 141 -52 262t-146 211q-93 88 -219 136.5t-268 48.5h-373v-1318zM315 144v1030h218q108 0 204.5 -38.5t169.5 -108.5q156 -151 156 -383q0 -223 -137 -360q-142 -140 -377 -140h-234z" />
<glyph unicode="E" horiz-adv-x="1004" d="M160 0h794v144h-639v443h639v144h-639v443h639v144h-794v-1318z" />
<glyph unicode="F" horiz-adv-x="1016" d="M160 0h155v582h651v154h-651v438h651v144h-806v-1318z" />
<glyph unicode="G" horiz-adv-x="1268" d="M80 667q0 -146 43.5 -272.5t123.5 -218.5q170 -196 439 -196q163 0 291 89l92 -71h59v726h-436v-155h285v-331q-38 -43 -89 -70q-82 -44 -185 -44q-202 0 -336 161q-132 156 -132 391q0 227 127 366q136 151 383 151q66 0 140 -10q86 -12 149 -32l8 4v142q-64 19 -151 30 q-83 11 -158 11q-319 0 -493 -197q-160 -181 -160 -474z" />
<glyph unicode="H" horiz-adv-x="1273" d="M160 0h155v582h643v-582h155v1318h-155v-582h-643v582h-155v-1318z" />
<glyph unicode="I" horiz-adv-x="474" d="M160 0h154v1318h-154v-1318z" />
<glyph unicode="J" horiz-adv-x="731" d="M167 -20q183 0 272 122q75 103 75 282v934h-155v-934q0 -132 -54 -201q-47 -60 -133 -60h-5v-143z" />
<glyph unicode="K" horiz-adv-x="1101" d="M160 0v1318h155v-618l519 618h190v-9l-518 -615l8 -14l8 -10l-2 -1q80 -136 259 -305.5t288 -229.5q-57 -98 -89 -134q-2 0 -6 2q-101 47 -244 177t-259 272t-154 231v-682h-155z" />
<glyph unicode="L" horiz-adv-x="974" d="M150 0h774v144h-619v1174h-155v-1318z" />
<glyph unicode="M" horiz-adv-x="1413" d="M165 0h150v1112l380 -732h36l372 723v-1103h160v1318h-211l-337 -664h-4l-337 664h-209v-1318z" />
<glyph unicode="N" horiz-adv-x="1263" d="M160 0h155v1028l643 -1028h155v1318h-155v-1019l-637 1019h-161v-1318z" />
<glyph unicode="O" horiz-adv-x="1383" d="M80 660q0 -143 43.5 -267.5t123.5 -216.5q81 -94 193 -145t247 -51q134 0 248 51.5t197 145.5q82 93 126.5 217t44.5 266q0 293 -165 483q-81 93 -193 144t-247 51t-249 -51t-197 -144q-172 -193 -172 -483zM234 672q0 231 122 373q127 149 338 149q215 0 338 -156 q117 -149 117 -390q0 -232 -117 -375q-122 -149 -333 -149q-216 0 -344 159q-121 150 -121 389z" />
<glyph unicode="P" horiz-adv-x="1130" d="M160 0h155v424h95q188 0 330 42q151 45 238 146q92 106 92 278q0 223 -164 328q-160 100 -487 100h-259v-1318zM315 570v602h124q224 0 338 -63q138 -76 138 -243q0 -162 -129 -233q-115 -63 -347 -63h-124z" />
<glyph unicode="Q" horiz-adv-x="1383" d="M80 660q0 -143 43.5 -267.5t123.5 -216.5q81 -94 193 -145t247 -51q33 0 78 5q50 -99 153 -181q94 -75 174 -86l70 129q-57 19 -122 63q-73 48 -122 114q175 72 281 243q104 171 104 393q0 293 -165 483q-81 93 -193 144t-247 51t-249 -51t-197 -144q-172 -193 -172 -483 zM232 672q0 230 123 373q127 149 339 149q216 0 339 -156q118 -150 118 -390q0 -232 -118 -375q-123 -149 -334 -149q-215 0 -345 159q-122 149 -122 389z" />
<glyph unicode="R" horiz-adv-x="1233" d="M160 0h155v431h96q172 0 287 23q40 -83 100 -179q70 -112 143 -189q84 -91 157 -106l85 126q-60 23 -134 99q-63 61 -122 151q-54 80 -80 146q109 50 164 141q59 95 59 244q0 225 -129 326q-136 105 -458 105h-323v-1318zM315 576v597h158q219 0 324 -59 q121 -70 121 -240q0 -163 -127 -234q-114 -64 -343 -64h-133z" />
<glyph unicode="S" horiz-adv-x="919" d="M90 38q119 -58 269 -58q129 0 233.5 43t170.5 134.5t66 217.5q0 54 -9.5 93t-33.5 71.5t-49.5 55t-72.5 55.5q-47 34 -191 108t-178 104q-57 51 -57 133q0 201 267 201q94 0 229 -27l3 2v132q-120 35 -232 35q-89 0 -162 -21t-128.5 -63t-86.5 -111t-31 -160 q0 -169 104 -252q31 -26 189 -108t179 -95q59 -37 87.5 -80.5t28.5 -106.5q0 -58 -25.5 -101.5t-69 -68t-95.5 -36t-112 -11.5q-70 0 -154 15.5t-136 39.5l-3 -1v-140z" />
<glyph unicode="T" horiz-adv-x="1060" d="M45 1174h408v-1174h154v1174h408v144h-970v-144z" />
<glyph unicode="U" horiz-adv-x="1403" d="M209 490q0 -211 77 -333q66 -104 186 -145q92 -32 225 -32q135 0 228 32q121 41 187 146q78 122 78 332v828h-154v-778q0 -182 -49 -280q-42 -85 -124 -115q-59 -23 -167 -23q-103 0 -157 21q-84 32 -125 114q-51 97 -51 283v778h-154v-828z" />
<glyph unicode="V" d="M25 1318l453 -1318h207l454 1318h-160l-397 -1153l-397 1153h-160z" />
<glyph unicode="W" horiz-adv-x="1716" d="M25 1318l378 -1318h156l299 1045l299 -1045h156l378 1318h-157l-299 -1046l-299 1046h-156l-300 -1046l-298 1046h-157z" />
<glyph unicode="X" horiz-adv-x="1138" d="M25 0h180l364 560l364 -560h180l-454 699l402 619h-180l-312 -481l-312 481h-180l402 -619z" />
<glyph unicode="Y" horiz-adv-x="1010" d="M25 1318l403 -826v-492h154v492l403 826h-154l-326 -668l-326 668h-154z" />
<glyph unicode="Z" horiz-adv-x="950" d="M65 5l4 -5h816v144h-597l596 1169l-4 5h-793v-144h571z" />
<glyph unicode="[" horiz-adv-x="580" d="M120 0h340v144h-186v1160h186v144h-340v-1448z" />
<glyph unicode="\" horiz-adv-x="971" d="M120 1395l588 -1616l144 53l-588 1616z" />
<glyph unicode="]" horiz-adv-x="580" d="M120 0h340v1448h-340v-144h186v-1160h-186v-144z" />
<glyph unicode="_" horiz-adv-x="800" d="M0 0h800v144h-800v-144z" />
<glyph unicode="`" horiz-adv-x="667" d="M94 1433q36 -55 168 -132q151 -88 269 -111q11 10 25 48q12 33 17 67q-122 54 -248 142q-72 50 -143 111q-33 -18 -57.5 -51.5t-30.5 -73.5z" />
<glyph unicode="a" horiz-adv-x="1022" d="M80 300q0 -174 117 -257q88 -63 220 -63q194 0 320 145q54 -111 157 -145l88 145q-45 14 -74.5 39t-44 61.5t-19.5 73.5t-5 88v330q0 341 -323 341q-112 0 -188 -17.5t-191 -64.5l40 -135q147 74 312 74q99 0 147.5 -47t48.5 -151v-129q-138 12 -209 12 q-194 0 -295 -70.5t-101 -229.5zM233 300q0 59 29.5 92t89.5 49q36 9 88 13q47 4 99 4h13q59 0 133 -1v-84q0 -67 -21.5 -116.5t-60.5 -78t-88 -41.5t-110 -13q-68 0 -120 48.5t-52 127.5z" />
<glyph unicode="b" horiz-adv-x="1110" d="M160 54q178 -74 347 -74q247 0 385 150t138 395q0 147 -52 267t-155.5 193t-240.5 73q-148 0 -267 -91v481h-10l-145 -20v-1374zM315 154v647q79 113 246 113q156 0 235 -103.5t79 -271.5q0 -187 -96 -302t-261 -115q-122 0 -203 32z" />
<glyph unicode="c" horiz-adv-x="914" d="M80 526q0 -272 148 -418q129 -128 334 -128q148 0 297 74v136l-7 5q-139 -71 -274 -71q-150 0 -243 99q-102 108 -102 309q0 197 102 296q90 86 243 86q134 0 274 -71l7 5v136q-149 74 -297 74q-211 0 -338 -123q-144 -139 -144 -409z" />
<glyph unicode="d" horiz-adv-x="1110" d="M80 534q0 -234 122 -390q127 -164 326 -164q163 0 292 111l32 -92h98v1449h-10l-145 -20v-391q-107 21 -192 21q-257 0 -395 -152q-128 -141 -128 -372zM235 521q0 192 101 296q94 99 256 99q97 0 203 -41v-638q-81 -113 -246 -113q-155 0 -240 121q-74 106 -74 276z" />
<glyph unicode="e" horiz-adv-x="956" d="M80 532q0 -255 128.5 -403.5t353.5 -148.5q147 0 298 74v143l-3 1q-146 -74 -280 -74q-148 0 -240 96.5t-103 259.5h647v140q0 74 -11 137.5t-37.5 120t-66.5 95.5t-101 62t-139 23q-112 0 -198.5 -39.5t-140 -111t-80.5 -166t-27 -209.5zM241 620q20 131 92.5 212.5 t189.5 81.5q59 0 100 -22.5t63.5 -64.5t32 -92t10.5 -115h-488z" />
<glyph unicode="f" horiz-adv-x="646" d="M45 895h168v-895h155v895h235v143h-235v4q0 141 48 207q42 56 125 56q74 0 183 -37l42 136q-139 44 -243 44q-145 0 -222 -88q-88 -101 -88 -318v-4h-168v-143z" />
<glyph unicode="g" horiz-adv-x="1034" d="M70 -147q0 -142 103 -234q107 -97 281 -97q96 0 192 31t172 86q79 56 124.5 130t45.5 156q0 124 -102 205q-111 87 -317 87h-196q-60 0 -94 26t-34 67t35 85q92 -45 192 -45q167 0 279 109q108 106 108 257q0 107 -60 193q92 58 195 75l-46 131q-56 0 -125 -27 q-75 -29 -140 -78q-87 48 -201 48q-168 0 -277 -99q-107 -98 -107 -247q0 -66 22 -134q22 -70 64 -113q-75 -93 -75 -181q0 -44 22 -93q23 -51 63 -74q-59 -59 -91.5 -129.5t-32.5 -134.5zM222 -133q0 112 92 217h117q199 0 282 -26q117 -39 117 -143q0 -100 -99 -175 q-108 -83 -257 -83q-131 0 -195 59q-57 53 -57 151zM242 703q0 85 60 147q68 70 176 70q109 0 176 -70q59 -64 59 -149q0 -86 -58 -145q-66 -69 -174 -69q-111 0 -178 69q-61 63 -61 147z" />
<glyph unicode="h" horiz-adv-x="1121" d="M160 0h155v815q78 47 130 69q77 31 144 31q104 0 161 -54q66 -66 66 -205v-656h155v664q0 206 -109 307q-95 87 -258 87q-61 0 -147 -32q-70 -26 -142 -70v492h-10l-145 -20v-1428z" />
<glyph unicode="i" horiz-adv-x="535" d="M160 1321q0 -42 32.5 -74t74.5 -32q44 0 76 31.5t32 74.5q0 45 -31.5 76t-76.5 31t-76 -31t-31 -76zM190 0h154v1038h-154v-1038z" />
<glyph unicode="j" horiz-adv-x="530" d="M-230 -415q139 -63 256 -63q145 0 229 93q94 102 94 311v1112h-155v-1112q0 -132 -54 -201q-47 -60 -133 -60q-88 0 -195 62zM165 1321q0 -44 32 -74q30 -32 75 -32q44 0 76 32q32 30 32 74t-32 76q-33 31 -76 31q-44 0 -75 -31q-32 -32 -32 -76z" />
<glyph unicode="k" horiz-adv-x="975" d="M160 0h155v527q3 -8 21 -37q15 -26 45 -67q62 -88 146 -183q94 -109 181 -176q101 -80 174 -84l64 137q-76 23 -183 115q-90 78 -174 177q-78 91 -86 127l422 502h-198l-412 -492v902h-10l-145 -27v-1421z" />
<glyph unicode="l" horiz-adv-x="474" d="M160 0h154v1448h-10l-144 -20v-1428z" />
<glyph unicode="m" horiz-adv-x="1648" d="M160 0h155v817q128 98 246 98q89 0 137 -57q54 -65 54 -202v-656h154v665q0 96 -24 173q139 77 234 77q105 0 161 -55q66 -66 66 -205v-656h155v665q0 206 -109 307q-95 87 -258 87q-63 0 -156 -36q-73 -29 -149 -76q-88 112 -237 112q-67 0 -134 -27q-71 -29 -162 -88 l-35 95h-98v-1038z" />
<glyph unicode="n" horiz-adv-x="1121" d="M160 0h155v815q79 47 130 68q79 32 144 32q105 0 161 -55q66 -66 66 -205v-655h155v664q0 206 -109 307q-95 87 -258 87q-68 0 -161 -37q-74 -30 -150 -79l-29 96h-104v-1038z" />
<glyph unicode="o" horiz-adv-x="1112" d="M80 516q0 -226 130 -378q134 -158 342 -158q210 0 347 158q133 155 133 383q0 226 -129 379q-63 75 -151 116.5t-192 41.5t-192.5 -41.5t-152.5 -116.5q-135 -156 -135 -384zM235 524q0 170 83 278q86 112 238 112q155 0 241 -118q80 -110 80 -283q0 -174 -80 -278 q-85 -111 -236 -111q-154 0 -244 119q-82 107 -82 281z" />
<glyph unicode="p" horiz-adv-x="1110" d="M160 -458h155v459q97 -21 192 -21q256 0 396 163q127 148 127 383q0 230 -122 380q-125 152 -326 152q-162 0 -290 -110l-28 90h-104v-1496zM315 162v640q78 112 246 112q157 0 240 -111q74 -99 74 -264q0 -193 -100 -306q-99 -111 -257 -111q-106 0 -203 40z" />
<glyph unicode="q" horiz-adv-x="1110" d="M80 535q0 -233 122 -391q127 -164 326 -164q150 0 267 91v-529h155v1442q-178 74 -347 74q-257 0 -395 -151q-128 -140 -128 -372zM235 521q0 192 101 296q94 99 256 99q115 0 203 -32v-648q-82 -113 -246 -113q-155 0 -240 123q-74 107 -74 275z" />
<glyph unicode="r" horiz-adv-x="752" d="M160 0h155v776q91 139 215 139q77 0 143 -32l54 139q-40 18 -85 27q-46 9 -87 9q-136 0 -255 -138l-36 118h-104v-1038z" />
<glyph unicode="s" horiz-adv-x="821" d="M80 27q110 -47 236 -47q169 0 290 82q135 93 135 251q0 86 -28.5 137.5t-105.5 91.5q-43 22 -148.5 64.5t-140.5 65.5q-81 51 -81 126q0 121 176 121q108 0 229 -33l6 3v140q-104 29 -211 29q-100 0 -176.5 -26t-126.5 -89t-50 -158q0 -166 159 -251q46 -25 139.5 -63 t125.5 -58q78 -48 78 -120q0 -55 -43.5 -95t-101 -56.5t-116.5 -16.5q-107 0 -239 52l-6 -5v-145z" />
<glyph unicode="t" horiz-adv-x="744" d="M40 894h115v-510q0 -209 94 -311q84 -93 229 -93q117 0 256 63l-42 142q-108 -62 -195 -62q-86 0 -133 60q-54 69 -54 201v510h288v144h-288v213h-10l-145 -27v-186h-115v-144z" />
<glyph unicode="u" horiz-adv-x="1121" d="M150 374q0 -206 110 -306q95 -88 257 -88q70 0 163 38q75 31 152 81l31 -99h98v1038h-155v-816q-72 -43 -131 -67q-75 -32 -143 -32q-105 0 -160 55q-67 65 -67 205v655h-155v-664z" />
<glyph unicode="v" horiz-adv-x="979" d="M30 1038l356 -1038h207l357 1038h-160l-300 -873l-300 873h-160z" />
<glyph unicode="w" horiz-adv-x="1564" d="M30 1038l328 -1038h193l231 790l231 -790h192l329 1038h-149l-275 -867l-257 867h-142l-257 -867l-274 867h-150z" />
<glyph unicode="x" horiz-adv-x="1023" d="M30 0h185l296 424l297 -424h185l-385 549l342 489h-185l-249 -356l-249 356h-185l337 -482z" />
<glyph unicode="y" horiz-adv-x="971" d="M-60 -415q141 -63 256 -63q221 0 300 226l445 1290h-160l-301 -873l-301 873h-160l357 -1038h48l-77 -223q-22 -58 -69 -86q-43 -26 -101 -26q-88 0 -195 62z" />
<glyph unicode="z" horiz-adv-x="882" d="M65 5l5 -5h803v144h-543l546 888l-5 6h-790v-144h530z" />
<glyph unicode="{" horiz-adv-x="810" d="M120 643h20q89 -2 134 -43q54 -49 54 -155v-124q0 -185 97 -270q81 -71 226 -71q14 0 20 1h19v142h-12q-90 0 -138 41q-58 48 -58 157v124q0 186 -96 269q96 83 96 269v124q0 110 58 158q47 40 138 40h12v142q-13 0 -19 1h-20q-145 0 -226 -71q-97 -85 -97 -270v-124 q0 -108 -57 -157q-49 -41 -139 -41h-12v-142z" />
<glyph unicode="|" horiz-adv-x="314" d="M80 -270h154v1718h-154v-1718z" />
<glyph unicode="}" horiz-adv-x="810" d="M120 -19h19q6 -1 20 -1q145 0 226 71q97 85 97 270v124q0 105 55 155q45 41 133 43h20v142h-12q-90 0 -138 41q-58 48 -58 157v124q0 185 -97 270q-81 71 -226 71h-20q-6 -1 -19 -1v-142h12q91 0 139 -40q57 -49 57 -158v-124q0 -186 96 -269q-96 -83 -96 -269v-124 q0 -108 -57 -157q-49 -41 -139 -41h-12v-142z" />
<glyph unicode="~" horiz-adv-x="1031" d="M120 439q32 -29 78 -34q31 -5 84 3v7q0 43 31 67q28 22 72 22q25 0 43 -7q23 -8 70 -41q18 -13 38 -23q47 -25 108 -25q103 0 178 61q77 63 89 161q-31 28 -78 35q-32 3 -84 -4v-7q0 -42 -32 -67q-28 -22 -70 -22q-24 0 -48.5 8.5t-36.5 15t-41 24.5q-80 48 -139 48 q-99 0 -173 -61q-77 -63 -89 -161z" />
<glyph unicode="&#xa1;" horiz-adv-x="467" d="M120 947q0 -47 34 -79q33 -33 80 -33q45 0 80 33q33 33 33 79t-33 79q-35 33 -80 33q-47 0 -80 -33q-34 -32 -34 -79zM148 -389h164q0 215 -2 351q-3 190 -8 401q-6 184 -15 270h-112q-5 -42 -8 -107q-7 -139 -12 -359q-1 -35 -2.5 -103.5t-1.5 -101.5q-3 -136 -3 -351z " />
<glyph unicode="&#xa2;" horiz-adv-x="899" d="M80 526q0 -244 120 -389q105 -126 283 -151v-136h154v135q104 12 222 69v136l-7 5q-139 -71 -274 -71q-150 0 -243 99q-102 108 -102 309q0 197 102 296q90 86 243 86q134 0 274 -71l7 5v136q-118 57 -222 69v155h-154v-155q-182 -24 -285 -146q-118 -139 -118 -381z" />
<glyph unicode="&#xa3;" horiz-adv-x="1002" d="M40 609h218q26 -116 26 -182q0 -132 -82 -212q-73 -71 -160 -71v-144h920v144h-632q111 121 111 262q0 59 -28 203h329v144h-357q-20 116 -20 177q0 123 65.5 193t189.5 70q111 0 222 -50l46 127q-158 68 -311 68q-166 0 -260 -90q-107 -104 -107 -306q0 -84 19 -189 h-189v-144z" />
<glyph unicode="&#xa5;" horiz-adv-x="1010" d="M25 1318l344 -706h-262v-154h321v-154h-321v-154h321v-150h154v150h315v154h-315v154h315v154h-257l345 706h-154l-326 -668l-326 668h-154z" />
<glyph unicode="&#xa6;" horiz-adv-x="314" d="M80 -270h154v700h-154v-700zM80 748h154v700h-154v-700z" />
<glyph unicode="&#xa7;" horiz-adv-x="930" d="M80 748q0 -191 81 -305q53 -75 185 -159q7 -4 28.5 -18t30.5 -20t28 -19t30.5 -21.5t27 -21t28.5 -25t25 -25.5q27 -31 36 -52q15 -35 15 -84q0 -110 -71 -161q-58 -41 -161 -41q-88 0 -194 30l-7 -6v-132q107 -35 206 -35q115 0 199 45q96 51 136 154q74 103 111 238 q36 130 36 263q0 191 -81 305q-52 74 -184 159q-6 4 -25.5 16.5t-27 17t-25 16t-26.5 18t-24 18t-25 20.5t-22.5 20.5t-23.5 23.5q-51 53 -51 136q0 110 72 161q57 41 160 41q88 0 194 -30l7 6v132q-107 35 -206 35q-114 0 -198 -44q-97 -52 -137 -155q-72 -96 -111 -237 q-36 -132 -36 -264zM223 775q0 61 13 129q21 -46 57 -82q31 -33 75 -60q12 -8 42 -27t47 -29q121 -77 171 -140q79 -99 79 -240q0 -54 -13 -130q-23 49 -57 83q-12 12 -26.5 24t-33 25t-31.5 21t-37.5 23.5t-35.5 22.5q-121 77 -171 140q-79 99 -79 240z" />
<glyph unicode="&#xa8;" horiz-adv-x="791" d="M99 1302q0 -47 34 -79q33 -33 79 -33t81 33q33 33 33 79t-33 79q-35 33 -81 33t-79 -33q-34 -32 -34 -79zM465 1302q0 -47 34 -79q33 -33 79 -33t81 33q33 33 33 79t-33 79q-35 33 -81 33t-79 -33q-34 -32 -34 -79z" />
<glyph unicode="&#xa9;" horiz-adv-x="1604" d="M80 709q0 -150 51.5 -283t145.5 -233q96 -102 228.5 -158.5t290.5 -56.5t292.5 56.5t232.5 158.5q97 101 150 236t53 287q0 150 -51.5 284t-145.5 234q-96 102 -228.5 158t-290.5 56q-157 0 -291.5 -56.5t-232.5 -158.5q-98 -101 -151 -236t-53 -288zM223 710 q0 163 75 301q74 133 205 212q136 80 303 80q253 0 416 -173q76 -81 117 -188t41 -227q0 -122 -42 -230t-120 -189q-167 -173 -420 -173q-251 0 -416 173q-76 80 -117.5 187t-41.5 227zM449 712q0 -211 115 -324q100 -100 259 -100q119 0 231 58v141l-5 3q-105 -50 -200 -50 q-110 0 -175 66q-71 73 -71 211q0 132 70 197q63 60 168 60q95 0 208 -51l5 4v140q-112 58 -231 58q-165 0 -262 -96q-112 -110 -112 -317z" />
<glyph unicode="&#xab;" horiz-adv-x="1188" d="M120 714l424 -735l132 77l-381 658l381 658l-132 77zM512 714l424 -735l132 77l-381 658l381 658l-132 77z" />
<glyph unicode="&#xad;" horiz-adv-x="600" d="M50 474h500v144h-500v-144z" />
<glyph unicode="&#xae;" horiz-adv-x="1218" d="M80 906q0 -111 37.5 -208.5t106.5 -169.5q150 -158 381 -158q116 0 215 41.5t170 116.5q148 156 148 383t-144 379q-150 158 -381 158q-232 0 -384 -158q-149 -155 -149 -384zM201 907q0 176 115 296q116 122 296 122t294 -122q110 -118 110 -293q0 -176 -114 -295 q-116 -122 -296 -122t-294 122q-111 117 -111 292zM398 626h108v186h65q39 0 67 4q33 -68 62 -109q47 -67 96 -89l80 52l-3 7q-40 22 -81 75q-40 50 -55 91q96 46 96 167q0 97 -56 140q-59 46 -199 46h-180v-570zM506 914v181h75q73 0 106 -16q40 -21 40 -76q0 -54 -41 -72 q-35 -17 -112 -17h-68z" />
<glyph unicode="&#xaf;" horiz-adv-x="842" d="M120 1194h602v144h-602v-144z" />
<glyph unicode="&#xb0;" horiz-adv-x="814" d="M80 1000q0 -140 89 -234q91 -98 235 -98q146 0 239 98q91 96 91 239q0 139 -88 235q-93 98 -236 98t-238 -98q-92 -97 -92 -240zM220 1001q0 80 53 138q51 56 136 56q83 0 134 -56t51 -134q0 -80 -52 -137t-137 -57q-83 0 -134 56t-51 134z" />
<glyph unicode="&#xb1;" horiz-adv-x="1030" d="M120 0h790v154h-790v-154zM120 566h318v-318h154v318h318v154h-318v318h-154v-318h-318v-154z" />
<glyph unicode="&#xb4;" horiz-adv-x="662" d="M94 1305q1 -27 16 -67q13 -37 26 -48q119 23 270 111q60 35 105.5 71t61.5 61q-6 40 -30.5 73.5t-57.5 51.5q-75 -64 -142 -111q-124 -86 -249 -142z" />
<glyph unicode="&#xb6;" horiz-adv-x="1334" d="M80 893q0 -152 70 -235q59 -73 167 -101q79 -21 201 -21v-536h154v1193q57 0 131 -12v-1181h161v1128q95 -47 164 -126h4l102 106q-65 101 -221 163q-166 66 -371 66q-135 0 -236 -28q-144 -39 -225 -127q-101 -108 -101 -289zM224 895q0 105 66 177q76 82 228 109v-493 q-137 2 -209 45q-85 50 -85 162z" />
<glyph unicode="&#xb7;" horiz-adv-x="387" d="M80 518q0 -47 34 -79q33 -33 79 -33t81 33q33 33 33 79t-33 79q-35 33 -81 33t-79 -33q-34 -32 -34 -79z" />
<glyph unicode="&#xb8;" horiz-adv-x="543" d="M66 -427q76 -51 174 -51q108 0 178 56q71 58 71 150q0 69 -35 121q-38 53 -98 71v80h-159v-159q59 0 104 -27q55 -34 55 -84q0 -39 -33 -62q-30 -21 -70 -21q-65 0 -140 33q-39 -29 -47 -107z" />
<glyph unicode="&#xbb;" horiz-adv-x="1188" d="M120 56l132 -77l424 735l-424 735l-132 -77l380 -658zM512 56l132 -77l424 735l-424 735l-132 -77l380 -658z" />
<glyph unicode="&#xbf;" horiz-adv-x="975" d="M120 -69q0 -165 123 -259q107 -82 268 -82q106 0 202 40q96 38 143 102l-42 115h-9q-36 -50 -115 -80t-167 -30q-120 0 -188 57q-65 54 -65 146q0 45 17 82q30 66 105 131q46 42 71 67q90 90 133 182q60 127 60 302h-154q0 -93 -16 -158q-30 -123 -105 -212 q-32 -38 -140 -141q-32 -30 -61 -71q-60 -85 -60 -191zM464 946q0 -47 34 -79q33 -33 80 -33q45 0 80 33q33 33 33 79t-33 79q-35 33 -80 33q-47 0 -80 -33q-34 -32 -34 -79z" />
<glyph unicode="&#xc0;" d="M25 0h160l106 307h582l106 -307h160l-454 1318h-207zM340 451l242 701l242 -701h-484zM342 1713q36 -55 168 -132q151 -88 269 -111q11 10 25 48q12 33 17 67q-122 54 -248 142q-72 50 -143 111q-33 -18 -57.5 -51.5t-30.5 -73.5z" />
<glyph unicode="&#xc1;" d="M25 0h160l106 307h582l106 -307h160l-454 1318h-207zM340 451l242 701l242 -701h-484zM342 1585q1 -27 16 -67q13 -37 26 -48q119 23 270 111q60 35 105.5 71t61.5 61q-6 40 -30.5 73.5t-57.5 51.5q-75 -64 -142 -111q-124 -86 -249 -142z" />
<glyph unicode="&#xc2;" d="M25 0h160l106 307h582l106 -307h160l-454 1318h-207zM240 1585q1 -23 17 -67q13 -37 26 -48q93 46 155 87q74 48 141 109h5q124 -113 297 -196q13 11 26 48q12 33 17 67q-173 92 -338 249h-8q-160 -154 -338 -249zM340 451l242 701l242 -701h-484z" />
<glyph unicode="&#xc3;" d="M25 0h160l106 307h582l106 -307h160l-454 1318h-207zM236 1534q26 -25 68 -30q31 -4 73 3v6q0 39 26 58.5t65 19.5q10 0 20 -2t16 -3.5t17.5 -8t14 -8t16.5 -10.5t15 -10q62 -42 127 -42q89 0 156 54t77 140q-26 25 -68 30q-31 4 -73 -3v-6q0 -39 -28 -59 q-25 -19 -62 -19q-20 0 -42 7.5t-33 13.5t-35 21q-68 42 -121 42q-88 0 -152 -53q-67 -55 -77 -141zM340 451l242 701l242 -701h-484z" />
<glyph unicode="&#xc4;" d="M25 0h160l106 307h582l106 -307h160l-454 1318h-207zM285 1582q0 -47 34 -79q33 -33 79 -33t81 33q33 33 33 79t-33 79q-35 33 -81 33t-79 -33q-34 -32 -34 -79zM340 451l242 701l242 -701h-484zM651 1582q0 -47 34 -79q33 -33 79 -33t81 33q33 33 33 79t-33 79 q-35 33 -81 33t-79 -33q-34 -32 -34 -79z" />
<glyph unicode="&#xc5;" d="M25 0h160l106 307h582l106 -307h160l-454 1317q44 28 70.5 72.5t26.5 96.5q0 81 -60 139t-141 58q-83 0 -141 -58q-59 -59 -59 -139q0 -52 26 -97t70 -72zM340 451l242 701l242 -701h-484zM500 1486q0 31 24 57q24 24 57 24q32 0 58 -24q24 -26 24 -57q0 -33 -24.5 -57 t-57.5 -24t-57 24t-24 57z" />
<glyph unicode="&#xc6;" horiz-adv-x="1421" d="M25 0h160l106 307h582l106 -307h397v144h-287l-153 443h440v144h-489l-153 443h642v144h-898zM340 451l242 701l242 -701h-484z" />
<glyph unicode="&#xc7;" horiz-adv-x="1081" d="M80 680q0 -294 139 -473q146 -192 418 -221v-145q59 0 104 -27q55 -34 55 -84q0 -39 -33 -62q-30 -21 -70 -21q-65 0 -140 33q-39 -29 -47 -107q76 -51 174 -51q108 0 178 56q71 58 71 150q0 69 -35 121q-38 53 -98 71v62q133 6 245 39v142l-7 4q-63 -20 -150 -32 q-73 -10 -139 -10q-249 0 -384 151q-127 142 -127 384q0 245 128 385q134 148 383 148q66 0 139 -10q87 -12 150 -32l7 4v142q-64 18 -150 30q-83 11 -154 11q-318 0 -491 -189q-160 -174 -166 -469z" />
<glyph unicode="&#xc8;" horiz-adv-x="998" d="M160 0h794v144h-639v443h639v144h-639v443h639v144h-794v-1318zM341 1713q36 -55 168 -132q151 -88 269 -111q11 10 25 48q12 33 17 67q-122 54 -248 142q-72 50 -143 111q-33 -18 -57.5 -51.5t-30.5 -73.5z" />
<glyph unicode="&#xc9;" horiz-adv-x="998" d="M160 0h794v144h-639v443h639v144h-639v443h639v144h-794v-1318zM306 1585q1 -27 16 -67q13 -37 26 -48q119 23 270 111q60 35 105.5 71t61.5 61q-6 40 -30.5 73.5t-57.5 51.5q-75 -64 -142 -111q-124 -86 -249 -142z" />
<glyph unicode="&#xca;" horiz-adv-x="998" d="M160 0h794v144h-639v443h639v144h-639v443h639v144h-794v-1318zM226 1585q1 -23 17 -67q13 -37 26 -48q93 46 155 87q74 48 141 109h5q124 -113 297 -196q13 11 26 48q12 33 17 67q-173 92 -338 249h-8q-160 -154 -338 -249z" />
<glyph unicode="&#xcb;" horiz-adv-x="998" d="M160 0h794v144h-639v443h639v144h-639v443h639v144h-794v-1318zM287 1582q0 -47 34 -79q33 -33 79 -33t81 33q33 33 33 79t-33 79q-35 33 -81 33t-79 -33q-34 -32 -34 -79zM653 1582q0 -47 34 -79q33 -33 79 -33t81 33q33 33 33 79t-33 79q-35 33 -81 33t-79 -33 q-34 -32 -34 -79z" />
<glyph unicode="&#xcc;" horiz-adv-x="474" d="M-2 1713q36 -55 168 -132q151 -88 269 -111q11 10 25 48q12 33 17 67q-122 54 -248 142q-72 50 -143 111q-33 -18 -57.5 -51.5t-30.5 -73.5zM160 0h154v1318h-154v-1318z" />
<glyph unicode="&#xcd;" horiz-adv-x="474" d="M-2 1585q1 -27 16 -67q13 -37 26 -48q119 23 270 111q60 35 105.5 71t61.5 61q-6 40 -30.5 73.5t-57.5 51.5q-75 -64 -142 -111q-124 -86 -249 -142zM160 0h154v1318h-154v-1318z" />
<glyph unicode="&#xce;" horiz-adv-x="474" d="M-105 1585q1 -23 17 -67q13 -37 26 -48q93 46 155 87q74 48 141 109h5q124 -113 297 -196q13 11 26 48q12 33 17 67q-173 92 -338 249h-8q-160 -154 -338 -249zM160 0h154v1318h-154v-1318z" />
<glyph unicode="&#xcf;" horiz-adv-x="474" d="M-59 1582q0 -47 34 -79q33 -33 79 -33t81 33q33 33 33 79t-33 79q-35 33 -81 33t-79 -33q-34 -32 -34 -79zM160 0h154v1318h-154v-1318zM307 1582q0 -47 34 -79q33 -33 79 -33t81 33q33 33 33 79t-33 79q-35 33 -81 33t-79 -33q-34 -32 -34 -79z" />
<glyph unicode="&#xd0;" horiz-adv-x="1350" d="M40 585h172v-585h389q142 0 265 49t214 138q91 88 140.5 209.5t49.5 263.5q0 141 -52 262t-146 211q-93 88 -219 136.5t-268 48.5h-373v-589h-172v-144zM367 144v441h173v144h-173v445h218q108 0 204.5 -38.5t169.5 -108.5q156 -151 156 -383q0 -223 -137 -360 q-142 -140 -377 -140h-234z" />
<glyph unicode="&#xd1;" horiz-adv-x="1263" d="M160 0h155v1028l643 -1028h155v1318h-155v-1019l-637 1019h-161v-1318zM286 1534q26 -25 68 -30q31 -4 73 3v6q0 39 26 58.5t65 19.5q10 0 20 -2t16 -3.5t17.5 -8t14 -8t16.5 -10.5t15 -10q62 -42 127 -42q89 0 156 54t77 140q-26 25 -68 30q-31 4 -73 -3v-6 q0 -39 -28 -59q-25 -19 -62 -19q-20 0 -42 7.5t-33 13.5t-35 21q-68 42 -121 42q-88 0 -152 -53q-67 -55 -77 -141z" />
<glyph unicode="&#xd2;" horiz-adv-x="1383" d="M80 660q0 -143 43.5 -267.5t123.5 -216.5q81 -94 193 -145t247 -51q134 0 248 51.5t197 145.5q82 93 126.5 217t44.5 266q0 293 -165 483q-81 93 -193 144t-247 51t-249 -51t-197 -144q-172 -193 -172 -483zM234 672q0 231 122 373q127 149 338 149q215 0 338 -156 q117 -149 117 -390q0 -232 -117 -375q-122 -149 -333 -149q-216 0 -344 159q-121 150 -121 389zM452 1713q36 -55 168 -132q151 -88 269 -111q11 10 25 48q12 33 17 67q-122 54 -248 142q-72 50 -143 111q-33 -18 -57.5 -51.5t-30.5 -73.5z" />
<glyph unicode="&#xd3;" horiz-adv-x="1383" d="M80 660q0 -143 43.5 -267.5t123.5 -216.5q81 -94 193 -145t247 -51q134 0 248 51.5t197 145.5q82 93 126.5 217t44.5 266q0 293 -165 483q-81 93 -193 144t-247 51t-249 -51t-197 -144q-172 -193 -172 -483zM234 672q0 231 122 373q127 149 338 149q215 0 338 -156 q117 -149 117 -390q0 -232 -117 -375q-122 -149 -333 -149q-216 0 -344 159q-121 150 -121 389zM452 1585q1 -27 16 -67q13 -37 26 -48q119 23 270 111q60 35 105.5 71t61.5 61q-6 40 -30.5 73.5t-57.5 51.5q-75 -64 -142 -111q-124 -86 -249 -142z" />
<glyph unicode="&#xd4;" horiz-adv-x="1383" d="M80 660q0 -143 43.5 -267.5t123.5 -216.5q81 -94 193 -145t247 -51q134 0 248 51.5t197 145.5q82 93 126.5 217t44.5 266q0 293 -165 483q-81 93 -193 144t-247 51t-249 -51t-197 -144q-172 -193 -172 -483zM234 672q0 231 122 373q127 149 338 149q215 0 338 -156 q117 -149 117 -390q0 -232 -117 -375q-122 -149 -333 -149q-216 0 -344 159q-121 150 -121 389zM349 1585q1 -23 17 -67q13 -37 26 -48q93 46 155 87q74 48 141 109h5q124 -113 297 -196q13 11 26 48q12 33 17 67q-173 92 -338 249h-8q-160 -154 -338 -249z" />
<glyph unicode="&#xd5;" horiz-adv-x="1383" d="M80 660q0 -143 43.5 -267.5t123.5 -216.5q81 -94 193 -145t247 -51q134 0 248 51.5t197 145.5q82 93 126.5 217t44.5 266q0 293 -165 483q-81 93 -193 144t-247 51t-249 -51t-197 -144q-172 -193 -172 -483zM234 672q0 231 122 373q127 149 338 149q215 0 338 -156 q117 -149 117 -390q0 -232 -117 -375q-122 -149 -333 -149q-216 0 -344 159q-121 150 -121 389zM346 1534q26 -25 68 -30q31 -4 73 3v6q0 39 26 58.5t65 19.5q10 0 20 -2t16 -3.5t17.5 -8t14 -8t16.5 -10.5t15 -10q62 -42 127 -42q89 0 156 54t77 140q-26 25 -68 30 q-31 4 -73 -3v-6q0 -39 -28 -59q-25 -19 -62 -19q-20 0 -42 7.5t-33 13.5t-35 21q-68 42 -121 42q-88 0 -152 -53q-67 -55 -77 -141z" />
<glyph unicode="&#xd6;" horiz-adv-x="1383" d="M80 660q0 -143 43.5 -267.5t123.5 -216.5q81 -94 193 -145t247 -51q134 0 248 51.5t197 145.5q82 93 126.5 217t44.5 266q0 293 -165 483q-81 93 -193 144t-247 51t-249 -51t-197 -144q-172 -193 -172 -483zM234 672q0 231 122 373q127 149 338 149q215 0 338 -156 q117 -149 117 -390q0 -232 -117 -375q-122 -149 -333 -149q-216 0 -344 159q-121 150 -121 389zM395 1582q0 -47 34 -79q33 -33 79 -33t81 33q33 33 33 79t-33 79q-35 33 -81 33t-79 -33q-34 -32 -34 -79zM761 1582q0 -47 34 -79q33 -33 79 -33t81 33q33 33 33 79t-33 79 q-35 33 -81 33t-79 -33q-34 -32 -34 -79z" />
<glyph unicode="&#xd7;" horiz-adv-x="908" d="M120 290l109 -109l225 225l225 -225l109 109l-225 225l225 225l-109 109l-225 -225l-225 225l-109 -109l225 -225z" />
<glyph unicode="&#xd8;" horiz-adv-x="1383" d="M80 660q0 -208 91 -374q90 -165 247 -244l-76 -210l144 -53l77 213q60 -12 124 -12q134 0 248 51.5t197 145.5q82 93 126.5 217t44.5 266q0 188 -75 344q-74 152 -209 241l55 150l-144 53l-50 -137q-91 27 -182 27q-135 0 -249 -51t-197 -144q-172 -193 -172 -483z M234 672q0 231 122 373q127 149 338 149q71 0 136 -20l-361 -991q-114 66 -174 196q-61 128 -61 293zM614 131l353 972q88 -72 135 -190.5t47 -264.5q0 -232 -117 -375q-122 -149 -333 -149q-50 0 -85 7z" />
<glyph unicode="&#xd9;" horiz-adv-x="1403" d="M209 490q0 -211 77 -333q66 -104 186 -145q92 -32 225 -32q135 0 228 32q121 41 187 146q78 122 78 332v828h-154v-778q0 -182 -49 -280q-42 -85 -124 -115q-59 -23 -167 -23q-103 0 -157 21q-84 32 -125 114q-51 97 -51 283v778h-154v-828zM462 1713q36 -55 168 -132 q151 -88 269 -111q11 10 25 48q12 33 17 67q-122 54 -248 142q-72 50 -143 111q-33 -18 -57.5 -51.5t-30.5 -73.5z" />
<glyph unicode="&#xda;" horiz-adv-x="1403" d="M209 490q0 -211 77 -333q66 -104 186 -145q92 -32 225 -32q135 0 228 32q121 41 187 146q78 122 78 332v828h-154v-778q0 -182 -49 -280q-42 -85 -124 -115q-59 -23 -167 -23q-103 0 -157 21q-84 32 -125 114q-51 97 -51 283v778h-154v-828zM462 1585q1 -27 16 -67 q13 -37 26 -48q119 23 270 111q60 35 105.5 71t61.5 61q-6 40 -30.5 73.5t-57.5 51.5q-75 -64 -142 -111q-124 -86 -249 -142z" />
<glyph unicode="&#xdb;" horiz-adv-x="1403" d="M209 490q0 -211 77 -333q66 -104 186 -145q92 -32 225 -32q135 0 228 32q121 41 187 146q78 122 78 332v828h-154v-778q0 -182 -49 -280q-42 -85 -124 -115q-59 -23 -167 -23q-103 0 -157 21q-84 32 -125 114q-51 97 -51 283v778h-154v-828zM359 1585q1 -23 17 -67 q13 -37 26 -48q93 46 155 87q74 48 141 109h5q124 -113 297 -196q13 11 26 48q12 33 17 67q-173 92 -338 249h-8q-160 -154 -338 -249z" />
<glyph unicode="&#xdc;" horiz-adv-x="1403" d="M209 490q0 -211 77 -333q66 -104 186 -145q92 -32 225 -32q135 0 228 32q121 41 187 146q78 122 78 332v828h-154v-778q0 -182 -49 -280q-42 -85 -124 -115q-59 -23 -167 -23q-103 0 -157 21q-84 32 -125 114q-51 97 -51 283v778h-154v-828zM405 1582q0 -47 34 -79 q33 -33 79 -33t81 33q33 33 33 79t-33 79q-35 33 -81 33t-79 -33q-34 -32 -34 -79zM771 1582q0 -47 34 -79q33 -33 79 -33t81 33q33 33 33 79t-33 79q-35 33 -81 33t-79 -33q-34 -32 -34 -79z" />
<glyph unicode="&#xdd;" horiz-adv-x="1010" d="M25 1318l403 -826v-492h154v492l403 826h-154l-326 -668l-326 668h-154zM265 1585q1 -27 16 -67q13 -37 26 -48q119 23 270 111q60 35 105.5 71t61.5 61q-6 40 -30.5 73.5t-57.5 51.5q-75 -64 -142 -111q-124 -86 -249 -142z" />
<glyph unicode="&#xde;" horiz-adv-x="1130" d="M160 0v1318h155v-217h104q327 0 487 -100q164 -105 164 -328q0 -172 -92 -278q-87 -101 -238 -146q-142 -42 -330 -42h-95v-207h-155zM315 353h124q232 0 347 63q129 71 129 233q0 167 -138 243q-114 63 -338 63h-124v-602z" />
<glyph unicode="&#xdf;" horiz-adv-x="1161" d="M160 0h155v1026q0 117 59 192q66 86 199 86q86 0 141 -31q65 -37 65 -104q0 -41 -22 -63q-29 -28 -129 -74q-39 -20 -72 -51q-79 -77 -79 -229q0 -65 20 -111q36 -84 125 -129q52 -26 169 -69q40 -15 74 -35q71 -45 71 -120q0 -80 -74 -125q-63 -38 -147 -38 q-52 0 -123 17q-59 14 -113 35l-6 -5v-145q110 -47 233 -47q167 0 271 82q114 90 114 246q0 66 -19 110q-37 85 -124 127q-44 21 -168 64q-38 13 -74 34q-72 43 -76 115q1 40 17 66q26 47 86 75l57 27q75 35 104 72q47 59 47 157q0 157 -112 231q-94 62 -256 62 q-202 0 -305 -99q-108 -103 -108 -323v-1026z" />
<glyph unicode="&#xe0;" horiz-adv-x="1022" d="M80 300q0 -174 117 -257q88 -63 220 -63q99 0 185 42q78 38 135 103q54 -111 157 -145l88 145q-88 27 -120 105q-23 54 -23 157v330q0 185 -97 270q-81 71 -226 71q-119 0 -199 -20q-69 -17 -180 -62l40 -135q79 39 158 58q74 16 154 16q91 0 139 -40q57 -49 57 -158 v-129q-138 12 -209 12q-207 0 -304 -77q-92 -75 -92 -223zM233 300q0 59 29.5 92t89.5 49q36 9 88.5 13t111.5 3.5t133 -0.5v-84q0 -144 -99 -206q-67 -43 -181 -43q-49 0 -97 31q-75 47 -75 145zM271 1433q36 -55 168 -132q151 -88 269 -111q11 10 25 48q12 33 17 67 q-122 54 -248 142q-72 50 -143 111q-33 -18 -57.5 -51.5t-30.5 -73.5z" />
<glyph unicode="&#xe1;" horiz-adv-x="1022" d="M80 300q0 -174 117 -257q88 -63 220 -63q99 0 185 42q78 38 135 103q54 -111 157 -145l88 145q-88 27 -120 105q-23 54 -23 157v330q0 185 -97 270q-81 71 -226 71q-119 0 -199 -20q-69 -17 -180 -62l40 -135q79 39 158 58q74 16 154 16q91 0 139 -40q57 -49 57 -158 v-129q-138 12 -209 12q-207 0 -304 -77q-92 -75 -92 -223zM233 300q0 59 29.5 92t89.5 49q36 9 88.5 13t111.5 3.5t133 -0.5v-84q0 -144 -99 -206q-67 -43 -181 -43q-49 0 -97 31q-75 47 -75 145zM271 1305q1 -27 16 -67q13 -37 26 -48q119 23 270 111q60 35 105.5 71 t61.5 61q-6 40 -30.5 73.5t-57.5 51.5q-75 -64 -142 -111q-124 -86 -249 -142z" />
<glyph unicode="&#xe2;" horiz-adv-x="1022" d="M80 300q0 -174 117 -257q88 -63 220 -63q99 0 185 42q78 38 135 103q54 -111 157 -145l88 145q-88 27 -120 105q-23 54 -23 157v330q0 185 -97 270q-81 71 -226 71q-119 0 -199 -20q-69 -17 -180 -62l40 -135q79 39 158 58q74 16 154 16q91 0 139 -40q57 -49 57 -158 v-129q-138 12 -209 12q-207 0 -304 -77q-92 -75 -92 -223zM169 1305q1 -23 17 -67q13 -37 26 -48q93 46 155 87q74 48 141 109h5q124 -113 297 -196q13 11 26 48q12 33 17 67q-173 92 -338 249h-8q-160 -154 -338 -249zM233 300q0 59 29.5 92t89.5 49q36 9 88.5 13 t111.5 3.5t133 -0.5v-84q0 -144 -99 -206q-67 -43 -181 -43q-49 0 -97 31q-75 47 -75 145z" />
<glyph unicode="&#xe3;" horiz-adv-x="1022" d="M80 300q0 -174 117 -257q88 -63 220 -63q99 0 185 42q78 38 135 103q54 -111 157 -145l88 145q-88 27 -120 105q-23 54 -23 157v330q0 185 -97 270q-81 71 -226 71q-119 0 -199 -20q-69 -17 -180 -62l40 -135q79 39 158 58q74 16 154 16q91 0 139 -40q57 -49 57 -158 v-129q-138 12 -209 12q-207 0 -304 -77q-92 -75 -92 -223zM165 1254q26 -25 68 -30q31 -4 73 3v6q0 39 26 58.5t65 19.5q10 0 20 -2t16 -3.5t17.5 -8t14 -8t16.5 -10.5t15 -10q62 -42 127 -42q89 0 156 54t77 140q-26 25 -68 30q-31 4 -73 -3v-6q0 -39 -28 -59 q-25 -19 -62 -19q-20 0 -42 7.5t-33 13.5t-35 21q-68 42 -121 42q-88 0 -152 -53q-67 -55 -77 -141zM233 300q0 59 29.5 92t89.5 49q36 9 88.5 13t111.5 3.5t133 -0.5v-84q0 -144 -99 -206q-67 -43 -181 -43q-49 0 -97 31q-75 47 -75 145z" />
<glyph unicode="&#xe4;" horiz-adv-x="1022" d="M80 300q0 -174 117 -257q88 -63 220 -63q99 0 185 42q78 38 135 103q54 -111 157 -145l88 145q-88 27 -120 105q-23 54 -23 157v330q0 185 -97 270q-81 71 -226 71q-119 0 -199 -20q-69 -17 -180 -62l40 -135q79 39 158 58q74 16 154 16q91 0 139 -40q57 -49 57 -158 v-129q-138 12 -209 12q-207 0 -304 -77q-92 -75 -92 -223zM214 1302q0 -47 34 -79q33 -33 79 -33t81 33q33 33 33 79t-33 79q-35 33 -81 33t-79 -33q-34 -32 -34 -79zM233 300q0 59 29.5 92t89.5 49q36 9 88.5 13t111.5 3.5t133 -0.5v-84q0 -144 -99 -206q-67 -43 -181 -43 q-49 0 -97 31q-75 47 -75 145zM580 1302q0 -47 34 -79q33 -33 79 -33t81 33q33 33 33 79t-33 79q-35 33 -81 33t-79 -33q-34 -32 -34 -79z" />
<glyph unicode="&#xe5;" horiz-adv-x="1022" d="M80 300q0 -174 117 -257q88 -63 220 -63q99 0 185 42q78 38 135 103q54 -111 157 -145l88 145q-88 27 -120 105q-23 54 -23 157v330q0 185 -97 270q-81 71 -226 71q-119 0 -199 -20q-69 -17 -180 -62l40 -135q79 39 158 58q74 16 154 16q91 0 139 -40q57 -49 57 -158 v-129q-138 12 -209 12q-207 0 -304 -77q-92 -75 -92 -223zM233 300q0 59 29.5 92t89.5 49q36 9 88.5 13t111.5 3.5t133 -0.5v-84q0 -144 -99 -206q-67 -43 -181 -43q-49 0 -97 31q-75 47 -75 145zM316 1367q0 -80 59 -139q58 -60 141 -60q81 0 141 60q60 58 60 139t-60 139 t-141 58q-83 0 -141 -58q-59 -59 -59 -139zM435 1367q0 31 24 57q24 24 57 24q32 0 58 -24q24 -26 24 -57q0 -33 -24.5 -57t-57.5 -24t-57 24t-24 57z" />
<glyph unicode="&#xe6;" horiz-adv-x="1535" d="M80 300q0 -174 117 -257q88 -63 220 -63q50 0 99 11q91 22 160 77q68 53 100 109q65 -98 166.5 -147.5t223.5 -49.5q147 0 298 74v143l-3 1q-146 -74 -280 -74q-141 0 -232 88q-100 96 -111 268h647v140q0 121 -21 201q-28 108 -100 167q-86 70 -234 70q-216 0 -333 -143 q-40 75 -117 112q-66 31 -164 31q-119 0 -199 -20q-69 -17 -180 -62l40 -135q79 39 158 58q74 16 154 16q91 0 139 -40q57 -49 57 -158v-129q-138 12 -209 12q-207 0 -304 -77q-92 -75 -92 -223zM233 300q0 59 29.5 92t89.5 49q36 9 88.5 13t111.5 3.5t133 -0.5v-84 q0 -144 -99 -206q-67 -43 -181 -43q-49 0 -97 31q-75 47 -75 145zM845 620q20 133 92 211q77 83 190 83t163 -87q41 -72 43 -207h-488z" />
<glyph unicode="&#xe7;" horiz-adv-x="899" d="M80 526q0 -237 112 -378q98 -126 267 -158v-149q59 0 104 -27q55 -34 55 -84q0 -39 -33 -62q-30 -21 -70 -21q-65 0 -140 33q-39 -29 -47 -107q76 -51 174 -51q108 0 178 56q71 58 71 150q0 69 -35 121q-38 53 -98 71v63q119 11 241 71v136l-7 5q-139 -71 -274 -71 q-150 0 -243 99q-102 108 -102 309q0 197 102 296q90 86 243 86q134 0 274 -71l7 5v136q-149 74 -297 74q-211 0 -338 -123q-144 -139 -144 -409z" />
<glyph unicode="&#xe8;" horiz-adv-x="931" d="M80 532q0 -272 144 -419q130 -133 338 -133q147 0 298 74v143l-3 1q-146 -74 -280 -74q-141 0 -232 88q-100 96 -111 268h647v140q0 121 -21 201q-28 108 -100 167q-86 70 -234 70q-223 0 -339 -151q-107 -138 -107 -375zM241 620q20 133 92 211q77 83 190 83t163 -87 q41 -72 43 -207h-488zM303 1433q36 -55 168 -132q151 -88 269 -111q11 10 25 48q12 33 17 67q-122 54 -248 142q-72 50 -143 111q-33 -18 -57.5 -51.5t-30.5 -73.5z" />
<glyph unicode="&#xe9;" horiz-adv-x="931" d="M80 532q0 -272 144 -419q130 -133 338 -133q147 0 298 74v143l-3 1q-146 -74 -280 -74q-141 0 -232 88q-100 96 -111 268h647v140q0 121 -21 201q-28 108 -100 167q-86 70 -234 70q-223 0 -339 -151q-107 -138 -107 -375zM241 620q20 133 92 211q77 83 190 83t163 -87 q41 -72 43 -207h-488zM290 1305q1 -27 16 -67q13 -37 26 -48q119 23 270 111q60 35 105.5 71t61.5 61q-6 40 -30.5 73.5t-57.5 51.5q-75 -64 -142 -111q-124 -86 -249 -142z" />
<glyph unicode="&#xea;" horiz-adv-x="931" d="M80 532q0 -272 144 -419q130 -133 338 -133q147 0 298 74v143l-3 1q-146 -74 -280 -74q-141 0 -232 88q-100 96 -111 268h647v140q0 121 -21 201q-28 108 -100 167q-86 70 -234 70q-223 0 -339 -151q-107 -138 -107 -375zM184 1305q1 -23 17 -67q13 -37 26 -48 q93 46 155 87q74 48 141 109h5q124 -113 297 -196q13 11 26 48q12 33 17 67q-173 92 -338 249h-8q-160 -154 -338 -249zM241 620q20 133 92 211q77 83 190 83t163 -87q41 -72 43 -207h-488z" />
<glyph unicode="&#xeb;" horiz-adv-x="931" d="M80 532q0 -272 144 -419q130 -133 338 -133q147 0 298 74v143l-3 1q-146 -74 -280 -74q-141 0 -232 88q-100 96 -111 268h647v140q0 121 -21 201q-28 108 -100 167q-86 70 -234 70q-223 0 -339 -151q-107 -138 -107 -375zM218 1302q0 -47 34 -79q33 -33 79 -33t81 33 q33 33 33 79t-33 79q-35 33 -81 33t-79 -33q-34 -32 -34 -79zM241 620q20 133 92 211q77 83 190 83t163 -87q41 -72 43 -207h-488zM584 1302q0 -47 34 -79q33 -33 79 -33t81 33q33 33 33 79t-33 79q-35 33 -81 33t-79 -33q-34 -32 -34 -79z" />
<glyph unicode="&#xec;" horiz-adv-x="535" d="M28 1433q36 -55 168 -132q151 -88 269 -111q11 10 25 48q12 33 17 67q-122 54 -248 142q-72 50 -143 111q-33 -18 -57.5 -51.5t-30.5 -73.5zM190 0h154v1038h-154v-1038z" />
<glyph unicode="&#xed;" horiz-adv-x="535" d="M28 1305q1 -27 16 -67q13 -37 26 -48q119 23 270 111q60 35 105.5 71t61.5 61q-6 40 -30.5 73.5t-57.5 51.5q-75 -64 -142 -111q-124 -86 -249 -142zM190 0h154v1038h-154v-1038z" />
<glyph unicode="&#xee;" horiz-adv-x="535" d="M-74 1305q1 -23 17 -67q13 -37 26 -48q93 46 155 87q74 48 141 109h5q124 -113 297 -196q13 11 26 48q12 33 17 67q-173 92 -338 249h-8q-160 -154 -338 -249zM190 0h154v1038h-154v-1038z" />
<glyph unicode="&#xef;" horiz-adv-x="535" d="M-29 1302q0 -47 34 -79q33 -33 79 -33t81 33q33 33 33 79t-33 79q-35 33 -81 33t-79 -33q-34 -32 -34 -79zM190 0h154v1038h-154v-1038zM337 1302q0 -47 34 -79q33 -33 79 -33t81 33q33 33 33 79t-33 79q-35 33 -81 33t-79 -33q-34 -32 -34 -79z" />
<glyph unicode="&#xf0;" horiz-adv-x="1092" d="M80 485q0 -226 125 -363q128 -142 341 -142t336 138q130 144 130 403q0 211 -90 394q-78 158 -209 283l211 78l-43 115l-276 -101q-150 113 -285 159l-80 -110q117 -52 205 -108l-216 -79l43 -115l295 108q99 -82 155 -177q-76 30 -171 30q-212 0 -341 -143 q-130 -144 -130 -370zM235 494q0 170 78 263q80 97 233 97q155 0 236 -103q75 -96 75 -268t-75 -263q-79 -96 -229 -96q-158 0 -241 104q-77 96 -77 266z" />
<glyph unicode="&#xf1;" horiz-adv-x="1121" d="M160 0h155v815q79 47 130 68q79 32 144 32q105 0 161 -55q66 -66 66 -205v-655h155v664q0 206 -109 307q-95 87 -258 87q-68 0 -161 -37q-74 -30 -150 -79l-29 96h-104v-1038zM215 1254q26 -25 68 -30q31 -4 73 3v6q0 39 26 58.5t65 19.5q10 0 20 -2t16 -3.5t17.5 -8 t14 -8t16.5 -10.5t15 -10q62 -42 127 -42q89 0 156 54t77 140q-26 25 -68 30q-31 4 -73 -3v-6q0 -39 -28 -59q-25 -19 -62 -19q-20 0 -42 7.5t-33 13.5t-35 21q-68 42 -121 42q-88 0 -152 -53q-67 -55 -77 -141z" />
<glyph unicode="&#xf2;" horiz-adv-x="1112" d="M80 516q0 -226 130 -378q134 -158 342 -158q210 0 347 158q133 155 133 383q0 226 -129 379q-63 75 -151 116.5t-192 41.5t-192.5 -41.5t-152.5 -116.5q-135 -156 -135 -384zM235 524q0 170 83 278q86 112 238 112q155 0 241 -118q80 -110 80 -283q0 -174 -80 -278 q-85 -111 -236 -111q-154 0 -244 119q-82 107 -82 281zM333 1433q36 -55 168 -132q151 -88 269 -111q11 10 25 48q12 33 17 67q-122 54 -248 142q-72 50 -143 111q-33 -18 -57.5 -51.5t-30.5 -73.5z" />
<glyph unicode="&#xf3;" horiz-adv-x="1112" d="M80 516q0 -226 130 -378q134 -158 342 -158q210 0 347 158q133 155 133 383q0 226 -129 379q-63 75 -151 116.5t-192 41.5t-192.5 -41.5t-152.5 -116.5q-135 -156 -135 -384zM235 524q0 170 83 278q86 112 238 112q155 0 241 -118q80 -110 80 -283q0 -174 -80 -278 q-85 -111 -236 -111q-154 0 -244 119q-82 107 -82 281zM316 1305q1 -27 16 -67q13 -37 26 -48q119 23 270 111q60 35 105.5 71t61.5 61q-6 40 -30.5 73.5t-57.5 51.5q-75 -64 -142 -111q-124 -86 -249 -142z" />
<glyph unicode="&#xf4;" horiz-adv-x="1112" d="M80 516q0 -226 130 -378q134 -158 342 -158q210 0 347 158q133 155 133 383q0 226 -129 379q-63 75 -151 116.5t-192 41.5t-192.5 -41.5t-152.5 -116.5q-135 -156 -135 -384zM214 1305q1 -23 17 -67q13 -37 26 -48q93 46 155 87q74 48 141 109h5q124 -113 297 -196 q13 11 26 48q12 33 17 67q-173 92 -338 249h-8q-160 -154 -338 -249zM235 524q0 170 83 278q86 112 238 112q155 0 241 -118q80 -110 80 -283q0 -174 -80 -278q-85 -111 -236 -111q-154 0 -244 119q-82 107 -82 281z" />
<glyph unicode="&#xf5;" horiz-adv-x="1112" d="M80 516q0 -226 130 -378q134 -158 342 -158q210 0 347 158q133 155 133 383q0 226 -129 379q-63 75 -151 116.5t-192 41.5t-192.5 -41.5t-152.5 -116.5q-135 -156 -135 -384zM210 1254q26 -25 68 -30q31 -4 73 3v6q0 39 26 58.5t65 19.5q10 0 20 -2t16 -3.5t17.5 -8 t14 -8t16.5 -10.5t15 -10q62 -42 127 -42q89 0 156 54t77 140q-26 25 -68 30q-31 4 -73 -3v-6q0 -39 -28 -59q-25 -19 -62 -19q-20 0 -42 7.5t-33 13.5t-35 21q-68 42 -121 42q-88 0 -152 -53q-67 -55 -77 -141zM235 524q0 170 83 278q86 112 238 112q155 0 241 -118 q80 -110 80 -283q0 -174 -80 -278q-85 -111 -236 -111q-154 0 -244 119q-82 107 -82 281z" />
<glyph unicode="&#xf6;" horiz-adv-x="1112" d="M80 516q0 -226 130 -378q134 -158 342 -158q210 0 347 158q133 155 133 383q0 226 -129 379q-63 75 -151 116.5t-192 41.5t-192.5 -41.5t-152.5 -116.5q-135 -156 -135 -384zM235 524q0 170 83 278q86 112 238 112q155 0 241 -118q80 -110 80 -283q0 -174 -80 -278 q-85 -111 -236 -111q-154 0 -244 119q-82 107 -82 281zM259 1302q0 -47 34 -79q33 -33 79 -33t81 33q33 33 33 79t-33 79q-35 33 -81 33t-79 -33q-34 -32 -34 -79zM625 1302q0 -47 34 -79q33 -33 79 -33t81 33q33 33 33 79t-33 79q-35 33 -81 33t-79 -33q-34 -32 -34 -79z " />
<glyph unicode="&#xf7;" horiz-adv-x="1030" d="M120 438h790v154h-790v-154zM401 92q0 -47 34 -79q33 -33 79 -33t81 33q33 33 33 79t-33 79q-35 33 -81 33t-79 -33q-34 -32 -34 -79zM401 946q0 -47 34 -79q33 -33 79 -33t81 33q33 33 33 79t-33 79q-35 33 -81 33t-79 -33q-34 -32 -34 -79z" />
<glyph unicode="&#xf8;" horiz-adv-x="1112" d="M80 516q0 -154 63 -278q65 -129 174 -194l-77 -212l144 -53l76 210q44 -9 92 -9q210 0 347 158q133 155 133 383q0 143 -56 264q-56 119 -157 191l77 211l-143 54l-73 -199q-57 16 -120 16q-104 0 -192.5 -41.5t-152.5 -116.5q-135 -156 -135 -384zM235 524q0 170 83 278 q86 112 238 112q35 0 75 -8l-262 -718q-65 53 -99.5 141t-34.5 195zM511 127l256 704q110 -110 110 -318q0 -174 -80 -278q-85 -111 -236 -111q-26 0 -50 3z" />
<glyph unicode="&#xf9;" horiz-adv-x="1121" d="M150 374q0 -206 110 -306q95 -88 257 -88q70 0 163 38q75 31 152 81l31 -99h98v1038h-155v-816q-72 -43 -131 -67q-75 -32 -143 -32q-105 0 -160 55q-67 65 -67 205v655h-155v-664zM321 1433q36 -55 168 -132q151 -88 269 -111q11 10 25 48q12 33 17 67q-122 54 -248 142 q-72 50 -143 111q-33 -18 -57.5 -51.5t-30.5 -73.5z" />
<glyph unicode="&#xfa;" horiz-adv-x="1121" d="M150 374q0 -206 110 -306q95 -88 257 -88q70 0 163 38q75 31 152 81l31 -99h98v1038h-155v-816q-72 -43 -131 -67q-75 -32 -143 -32q-105 0 -160 55q-67 65 -67 205v655h-155v-664zM321 1305q1 -27 16 -67q13 -37 26 -48q119 23 270 111q60 35 105.5 71t61.5 61 q-6 40 -30.5 73.5t-57.5 51.5q-75 -64 -142 -111q-124 -86 -249 -142z" />
<glyph unicode="&#xfb;" horiz-adv-x="1121" d="M150 374q0 -206 110 -306q95 -88 257 -88q70 0 163 38q75 31 152 81l31 -99h98v1038h-155v-816q-72 -43 -131 -67q-75 -32 -143 -32q-105 0 -160 55q-67 65 -67 205v655h-155v-664zM218 1305q1 -23 17 -67q13 -37 26 -48q93 46 155 87q74 48 141 109h5q124 -113 297 -196 q13 11 26 48q12 33 17 67q-173 92 -338 249h-8q-160 -154 -338 -249z" />
<glyph unicode="&#xfc;" horiz-adv-x="1121" d="M150 374q0 -206 110 -306q95 -88 257 -88q70 0 163 38q75 31 152 81l31 -99h98v1038h-155v-816q-72 -43 -131 -67q-75 -32 -143 -32q-105 0 -160 55q-67 65 -67 205v655h-155v-664zM264 1302q0 -47 34 -79q33 -33 79 -33t81 33q33 33 33 79t-33 79q-35 33 -81 33t-79 -33 q-34 -32 -34 -79zM630 1302q0 -47 34 -79q33 -33 79 -33t81 33q33 33 33 79t-33 79q-35 33 -81 33t-79 -33q-34 -32 -34 -79z" />
<glyph unicode="&#xfd;" horiz-adv-x="970" d="M-60 -415q141 -63 256 -63q221 0 300 226l445 1290h-160l-301 -873l-301 873h-160l357 -1038h48l-77 -223q-22 -58 -69 -86q-43 -26 -101 -26q-88 0 -195 62zM246 1305q1 -27 16 -67q13 -37 26 -48q119 23 270 111q60 35 105.5 71t61.5 61q-6 40 -30.5 73.5t-57.5 51.5 q-75 -64 -142 -111q-124 -86 -249 -142z" />
<glyph unicode="&#xfe;" horiz-adv-x="1110" d="M160 -458h155v461q92 -23 192 -23q256 0 396 163q127 146 127 382q0 230 -122 380q-126 153 -326 153q-148 0 -267 -91v481h-10l-145 -20v-1886zM315 162v640q78 112 246 112q157 0 240 -111q74 -99 74 -264q0 -193 -100 -306q-99 -111 -257 -111q-106 0 -203 40z" />
<glyph unicode="&#xff;" horiz-adv-x="970" d="M-60 -415q141 -63 256 -63q221 0 300 226l445 1290h-160l-301 -873l-301 873h-160l357 -1038h48l-77 -223q-22 -58 -69 -86q-43 -26 -101 -26q-88 0 -195 62zM189 1302q0 -47 34 -79q33 -33 79 -33t81 33q33 33 33 79t-33 79q-35 33 -81 33t-79 -33q-34 -32 -34 -79z M555 1302q0 -47 34 -79q33 -33 79 -33t81 33q33 33 33 79t-33 79q-35 33 -81 33t-79 -33q-34 -32 -34 -79z" />
<glyph unicode="&#x152;" horiz-adv-x="1696" d="M80 660q0 -143 43.5 -267.5t123.5 -216.5q81 -94 193 -145t247 -51q89 0 170 23v-3h794v144h-639v443h639v144h-639v443h639v144h-794q-78 20 -159 20q-135 0 -249 -51t-197 -144q-172 -193 -172 -483zM234 672q0 231 122 373q127 149 338 149q91 0 163 -28v-1016 q-73 -26 -158 -26q-216 0 -344 159q-121 150 -121 389z" />
<glyph unicode="&#x153;" horiz-adv-x="1728" d="M80 516q0 -226 130 -378q134 -158 342 -158q129 0 234 62q101 60 164 166q60 -110 174 -172q103 -56 235 -56q147 0 298 74v143l-3 1q-146 -74 -280 -74q-141 0 -232 88q-100 96 -111 268h647v140q0 121 -21 201q-28 108 -100 167q-86 70 -234 70q-135 0 -234 -58 q-89 -52 -146 -157q-64 101 -162 158t-221 57q-104 0 -192.5 -41.5t-152.5 -116.5q-135 -156 -135 -384zM235 524q0 170 83 278q86 112 238 112q155 0 241 -118q80 -110 80 -283q0 -174 -80 -278q-85 -111 -236 -111q-154 0 -244 119q-82 107 -82 281zM1038 620 q20 133 92 211q77 83 190 83t163 -87q41 -72 43 -207h-488z" />
<glyph unicode="&#x178;" horiz-adv-x="1010" d="M25 1318l403 -826v-492h154v492l403 826h-154l-326 -668l-326 668h-154zM208 1582q0 -47 34 -79q33 -33 79 -33t81 33q33 33 33 79t-33 79q-35 33 -81 33t-79 -33q-34 -32 -34 -79zM574 1582q0 -47 34 -79q33 -33 79 -33t81 33q33 33 33 79t-33 79q-35 33 -81 33t-79 -33 q-34 -32 -34 -79z" />
<glyph unicode="&#x2c6;" horiz-adv-x="892" d="M104 1305q1 -23 17 -67q13 -37 26 -48q93 46 155 87q74 48 141 109h5q124 -113 297 -196q13 11 26 48q12 33 17 67q-173 92 -338 249h-8q-160 -154 -338 -249z" />
<glyph unicode="&#x2dc;" horiz-adv-x="892" d="M101 1254q26 -25 68 -30q31 -4 73 3v6q0 39 26 58.5t65 19.5q10 0 20 -2t16 -3.5t17.5 -8t14 -8t16.5 -10.5t15 -10q62 -42 127 -42q89 0 156 54t77 140q-26 25 -68 30q-31 4 -73 -3v-6q0 -39 -28 -59q-25 -19 -62 -19q-20 0 -42 7.5t-33 13.5t-35 21q-68 42 -121 42 q-88 0 -152 -53q-67 -55 -77 -141z" />
<glyph unicode="&#x2000;" horiz-adv-x="919" />
<glyph unicode="&#x2001;" horiz-adv-x="1838" />
<glyph unicode="&#x2002;" horiz-adv-x="919" />
<glyph unicode="&#x2003;" horiz-adv-x="1838" />
<glyph unicode="&#x2004;" horiz-adv-x="612" />
<glyph unicode="&#x2005;" horiz-adv-x="459" />
<glyph unicode="&#x2006;" horiz-adv-x="306" />
<glyph unicode="&#x2007;" horiz-adv-x="306" />
<glyph unicode="&#x2008;" horiz-adv-x="229" />
<glyph unicode="&#x2009;" horiz-adv-x="367" />
<glyph unicode="&#x200a;" horiz-adv-x="102" />
<glyph unicode="&#x2010;" horiz-adv-x="600" d="M50 474h500v144h-500v-144z" />
<glyph unicode="&#x2011;" horiz-adv-x="600" d="M50 474h500v144h-500v-144z" />
<glyph unicode="&#x2012;" horiz-adv-x="600" d="M50 474h500v144h-500v-144z" />
<glyph unicode="&#x2013;" horiz-adv-x="1052" d="M50 474h952v144h-952v-144z" />
<glyph unicode="&#x2014;" horiz-adv-x="1201" d="M50 474h1101v144h-1101v-144z" />
<glyph unicode="&#x2018;" horiz-adv-x="391" d="M80 1168q0 -63 39 -95q32 -28 75 -28q46 0 79 33t33 79q-44 61 -44 107q0 49 49 130l-43 54q-70 -37 -125 -114q-63 -85 -63 -166z" />
<glyph unicode="&#x2019;" horiz-adv-x="391" d="M80 1099l42 -54q70 39 126 115q63 85 63 165q0 62 -39 96q-34 27 -76 27q-46 0 -79 -33t-33 -79q45 -62 45 -107q0 -46 -49 -130z" />
<glyph unicode="&#x201a;" horiz-adv-x="392" d="M80 -145l43 -54q70 39 126 115q63 85 63 165q0 62 -39 96q-34 27 -76 27q-46 0 -79 -33t-33 -79q45 -62 45 -107q0 -47 -50 -130z" />
<glyph unicode="&#x201c;" horiz-adv-x="718" d="M80 1168q0 -63 39 -95q32 -28 75 -28q46 0 79 33t33 79q-44 61 -44 107q0 49 49 130l-43 54q-70 -37 -125 -114q-63 -85 -63 -166zM407 1168q0 -63 40 -95q32 -28 75 -28q46 0 79 33t33 79q-45 62 -45 107q0 46 49 130l-42 54q-69 -37 -126 -114q-63 -85 -63 -166z" />
<glyph unicode="&#x201d;" horiz-adv-x="718" d="M80 1099l42 -54q70 39 126 115q63 85 63 165q0 62 -39 96q-34 27 -76 27q-46 0 -79 -33t-33 -79q45 -62 45 -107q0 -46 -49 -130zM407 1099l43 -54q70 39 126 115q62 86 62 165q0 62 -39 96q-33 27 -75 27q-46 0 -79 -33t-33 -79q44 -61 44 -107q0 -49 -49 -130z" />
<glyph unicode="&#x201e;" horiz-adv-x="718" d="M80 -145l42 -54q69 37 126 114q63 85 63 166q0 63 -40 95q-32 28 -75 28q-46 0 -79 -33t-33 -79q45 -62 45 -107q0 -46 -49 -130zM407 -145l43 -54q70 37 125 114q63 85 63 166q0 63 -39 95q-32 28 -75 28q-46 0 -79 -33t-33 -79q44 -61 44 -107q0 -49 -49 -130z" />
<glyph unicode="&#x2022;" horiz-adv-x="771" d="M80 518q0 -124 89 -213q89 -91 216 -91q125 0 216 91q90 90 90 213t-90 213q-91 91 -216 91q-127 0 -216 -91q-89 -89 -89 -213z" />
<glyph unicode="&#x2026;" horiz-adv-x="1161" d="M80 92q0 -47 34 -79q33 -33 79 -33t81 33q33 33 33 79t-33 79q-35 33 -81 33t-79 -33q-34 -32 -34 -79zM467 92q0 -47 34 -79q33 -33 79 -33t81 33q33 33 33 79t-33 79q-35 33 -81 33t-79 -33q-34 -32 -34 -79zM854 92q0 -47 34 -79q33 -33 79 -33t81 33q33 33 33 79 t-33 79q-35 33 -81 33t-79 -33q-34 -32 -34 -79z" />
<glyph unicode="&#x202f;" horiz-adv-x="367" />
<glyph unicode="&#x2039;" horiz-adv-x="796" d="M120 714l424 -735l132 77l-381 658l381 658l-132 77z" />
<glyph unicode="&#x203a;" horiz-adv-x="796" d="M120 56l132 -77l424 735l-424 735l-132 -77l380 -658z" />
<glyph unicode="&#x205f;" horiz-adv-x="459" />
<glyph unicode="&#x20ac;" horiz-adv-x="1189" d="M40 454l4 -4h167q58 -220 228 -346q164 -124 387 -124q155 0 313 65v142l-7 4q-148 -65 -289 -65q-167 0 -291 84q-127 86 -180 240h487l52 140l-4 11h-566q-2 18 -2 28v29q0 35 3 68h615l52 140l-4 4h-634q53 156 185 241q127 82 308 82q114 0 235 -35l50 139 q-118 41 -269 41q-252 0 -427 -119q-184 -124 -243 -349h-118l-52 -140l4 -4h143q-2 -22 -2 -33v-33v-30q0 -11 2 -29h-95z" />
<glyph unicode="&#x2122;" horiz-adv-x="1404" d="M45 1225h204v-547h117v547h204v112h-525v-112zM665 678h115v490l156 -300h85l153 298v-488h120v659h-145l-169 -332h-2l-168 332h-145v-659z" />
<glyph unicode="&#x25fc;" horiz-adv-x="1040" d="M0 0v1040h1040v-1040h-1040z" />
<glyph unicode="&#xfb03;" horiz-adv-x="1786" d="M40 895h168v-895h155v895h486v-895h155v895h468v-895h154v1038h-622v4q0 149 48 209q42 54 133 54q33 0 74 -6q83 -13 161 -35q90 -26 128 -39q22 -9 33 -12l42 136q-23 7 -65 22q-43 15 -107 34q-153 43 -276 43q-158 0 -236 -84q-99 35 -176 53q-131 31 -229 31 q-159 0 -236 -84q-90 -98 -90 -322v-4h-168v-143zM363 1038v4q0 149 48 209q42 54 133 54q60 0 169 -24q37 -8 159 -45q-23 -80 -23 -194v-4h-486z" />
<glyph unicode="&#xfb04;" horiz-adv-x="1758" d="M40 895h168v-895h155v895h463v-896h155v895h234v144h-234v12q0 150 68 209q56 47 175 47q96 0 220 -17v-1290h154v1449h-10l-144 -20q-148 20 -263 20q-180 0 -261 -78q-88 30 -173 50q-119 28 -213 28q-159 0 -236 -84q-90 -98 -90 -322v-4h-168v-143zM363 1038v4 q0 149 48 209q42 54 133 54q60 0 154 -21q49 -11 151 -41q-23 -80 -23 -193v-12h-463z" />
</font>
</defs>
</svg>
