<?xml version="1.0" standalone="no"?>
<!DOCTYPE svg PUBLIC "-//W3C//DTD SVG 1.1//EN" "http://www.w3.org/Graphics/SVG/1.1/DTD/svg11.dtd" >
<svg xmlns="http://www.w3.org/2000/svg" xmlns:xlink="http://www.w3.org/1999/xlink" version="1.1">
<metadata></metadata>
<defs>
<font id="flanders_art_sanslight" horiz-adv-x="494" >
<font-face units-per-em="2048" ascent="1536" descent="-512" />
<missing-glyph horiz-adv-x="600" />
<glyph unicode="&#xfb01;" horiz-adv-x="1176" d="M50 925h189v-925h114v925h255v113h-255v13q0 156 69 227q59 60 168 60q145 0 339 -89l77 80q-103 53 -217 85q-123 34 -221 34q-152 0 -233 -84q-96 -98 -96 -313v-13h-189v-113zM872 0h114v1038h-114v-1038z" />
<glyph unicode="&#xfb02;" horiz-adv-x="1175" d="M50 925h189v-925h114v925h255v113h-255v13q0 173 62 235q52 52 185 52q115 0 270 -21v-1317h115v1448h-13l-101 -20q-187 20 -294 20q-165 0 -242 -73q-96 -91 -96 -324v-13h-189v-113z" />
<glyph horiz-adv-x="0" />
<glyph horiz-adv-x="682" />
<glyph unicode="&#xd;" horiz-adv-x="0" />
<glyph unicode=" "  horiz-adv-x="600" />
<glyph unicode="&#x09;" horiz-adv-x="600" />
<glyph unicode="&#xa0;" horiz-adv-x="600" />
<glyph unicode="!" horiz-adv-x="471" d="M150 64q0 -35 25 -59.5t60 -24.5t60.5 24.5t25.5 59.5t-25.5 60t-60.5 25t-60 -25t-25 -60zM177 1428q0 -148 3 -350q4 -285 8 -402q4 -178 14 -271h70q8 55 15 271q7 229 10 402q2 135 2 350h-122z" />
<glyph unicode="&#x22;" horiz-adv-x="624" d="M100 1182l32 -41q54 29 96 87q48 67 48 126q0 47 -30 73q-24 21 -58 21q-35 0 -60 -25.5t-25 -60.5q34 -47 34 -81q0 -36 -37 -99zM348 1182l33 -41q54 29 96 87q47 68 47 126q0 46 -29 73q-24 21 -57 21q-35 0 -60.5 -25.5t-25.5 -60.5q34 -45 34 -81q0 -37 -38 -99z " />
<glyph unicode="#" horiz-adv-x="1241" d="M120 441h247l-28 -328l113 -9l29 337h303l-28 -328l113 -9l29 337h173v112h-164l21 243h193v112h-183l28 320l-113 9l-29 -329h-303l28 320l-113 9l-29 -329h-237v-112h228l-21 -243h-257v-112zM490 553l21 243h304l-21 -243h-304z" />
<glyph unicode="$" horiz-adv-x="954" d="M120 995q0 -143 93 -236q63 -63 206 -130q11 -5 43 -20.5t47 -22.5t39.5 -20t42.5 -24.5t34 -23.5q93 -73 93 -179q0 -118 -103 -186q-92 -61 -227 -61q-132 0 -255 53l-7 -5v-102q119 -58 251 -58h22q14 0 21 1v-129h114v147q139 36 220 131q80 94 80 227q0 134 -94 228 q-60 58 -208 129q-7 3 -36.5 17t-39.5 19l-34 17t-37 19.5t-30 18.5t-31 22q-95 73 -95 179q0 105 84 164q79 56 210 56q97 0 187 -24l9 4v105q-89 27 -185 27v110h-114v-120q-138 -25 -215 -105q-85 -90 -85 -228z" />
<glyph unicode="%" horiz-adv-x="1679" d="M100 1000q0 -140 89 -234q91 -98 235 -98q146 0 239 98q91 96 91 239q0 139 -88 235q-93 98 -236 98t-238 -98q-92 -97 -92 -240zM213 1001q0 95 60 161q61 67 156 67q93 0 155 -67q57 -65 57 -157q0 -95 -59 -160q-62 -68 -157 -68t-154 67q-58 64 -58 157zM469 230 l92 -65l646 924l-92 65zM925 312q0 -140 89 -234q91 -98 235 -98q146 0 239 98q91 96 91 239q0 139 -88 235q-93 98 -236 98t-238 -98q-92 -97 -92 -240zM1038 313q0 95 60 161q61 67 156 67q93 0 155 -67q57 -65 57 -157q0 -95 -59 -160q-62 -68 -157 -68t-154 67 q-58 64 -58 157z" />
<glyph unicode="&#x26;" horiz-adv-x="1186" d="M60 365q0 -177 120 -283q116 -102 302 -102q234 0 392 170l171 -170l81 83l-178 181q49 84 89 195q45 124 63 237l-100 41h-8q-15 -94 -47 -192q-34 -106 -81 -195l-371 371q140 69 203 130q97 94 97 231q0 140 -98 213q-84 63 -213 63q-147 0 -228 -89q-78 -84 -78 -229 q0 -172 118 -295q-121 -73 -177.5 -158.5t-56.5 -201.5zM179 362q0 99 59 178q43 58 132 114l425 -424q-122 -140 -313 -140q-141 0 -224 77q-79 73 -79 195zM293 1032q0 93 49 146t131 53q75 0 130 -36q71 -46 71 -134q0 -73 -46 -133q-64 -84 -211 -147q-53 53 -85 110 q-39 65 -39 141z" />
<glyph unicode="'" horiz-adv-x="376" d="M100 1182l32 -41q54 29 96 87q48 67 48 126q0 47 -30 73q-24 21 -58 21q-35 0 -60 -25.5t-25 -60.5q34 -47 34 -81q0 -36 -37 -99z" />
<glyph unicode="(" horiz-adv-x="534" d="M120 680q0 -384 212 -700h4l77 68q-81 137 -130 309q-47 164 -47 323q0 164 51 357q49 185 127 345l-75 66h-4q-215 -376 -215 -768z" />
<glyph unicode=")" horiz-adv-x="534" d="M120 1382q78 -160 127 -345q51 -193 51 -357q0 -159 -47 -323q-49 -172 -130 -309l77 -68h4q212 316 212 700q0 392 -215 768h-4z" />
<glyph unicode="*" horiz-adv-x="1062" d="M100 924q152 0 320 27v62q-164 25 -320 25v-114zM266 636l99 -57q83 145 138 290l-53 31q-110 -135 -184 -264zM266 1326q74 -129 184 -264l53 31q-55 145 -138 290zM561 870q60 -159 136 -291l99 57q-78 137 -182 265zM561 1092l53 -31q101 124 182 265l-99 57 q-76 -132 -136 -291zM642 951q168 -27 320 -27v114q-164 0 -320 -25v-62z" />
<glyph unicode="+" horiz-adv-x="1030" d="M120 510h339v-339h112v339h339v112h-339v339h-112v-339h-339v-112z" />
<glyph unicode="," horiz-adv-x="376" d="M100 -118l32 -41q54 29 96 87q48 67 48 126q0 47 -30 73q-24 21 -57 21q-35 0 -60.5 -25.5t-25.5 -60.5q35 -47 35 -81t-38 -99z" />
<glyph unicode="-" horiz-adv-x="650" d="M75 526h500v112h-500v-112z" />
<glyph unicode="." horiz-adv-x="371" d="M100 64q0 -34 26 -58q24 -26 59 -26q34 0 60 26q26 24 26 58q0 33 -26 59q-27 25 -60 25q-34 0 -59 -25q-26 -26 -26 -59z" />
<glyph unicode="/" horiz-adv-x="933" d="M120 -168l588 1616l105 -39l-588 -1616z" />
<glyph unicode="0" horiz-adv-x="1117" d="M100 671q0 -179 36 -315q46 -173 138 -265q109 -111 279 -111q215 0 334 166q124 172 130 508q0 684 -464 684q-215 0 -332 -166q-121 -172 -121 -501zM217 671q0 288 83 424q82 134 254 134t255 -124q91 -136 91 -432q0 -317 -90 -456q-82 -128 -256 -128 q-171 0 -254 144.5t-83 437.5z" />
<glyph unicode="1" horiz-adv-x="618" d="M50 1115q135 0 264 46v-1161h114v1318h-82q-81 -53 -123 -68q-69 -26 -173 -26v-109z" />
<glyph unicode="2" horiz-adv-x="976" d="M30 0h848v113h-651q181 143 287 247q159 155 246 299q104 174 104 339q0 176 -115 264q-99 76 -262 76q-207 0 -379 -107l33 -89l11 -3q84 43 142 62q91 28 172 28q121 0 195 -53q86 -61 86 -179q0 -64 -24 -131q-48 -131 -161 -269q-108 -130 -236 -244 q-123 -109 -220 -183q-63 -47 -76 -57v-113z" />
<glyph unicode="3" horiz-adv-x="988" d="M60 89q77 -51 203 -82q108 -27 202 -27q104 0 202 37q107 40 171 122q72 92 72 225q0 142 -68 227q-59 75 -170 112q73 45 118 118q50 81 50 187q0 121 -64 201q-57 68 -149 101q-80 28 -167 28q-84 0 -174 -25q-95 -26 -179 -76l23 -78l20 -8q153 78 289 78 q119 0 198 -55q85 -60 85 -167q0 -130 -110 -203q-91 -60 -213 -60h-133v-120h89q200 0 314 -59q132 -68 132 -207q0 -122 -93 -196q-92 -73 -244 -73q-80 0 -185 27q-107 26 -183 67l-11 -5z" />
<glyph unicode="4" horiz-adv-x="959" d="M30 299h629v-299h115v299h135v112h-135v907h-127l-617 -907v-112zM165 411l494 725v-725h-494z" />
<glyph unicode="5" horiz-adv-x="976" d="M80 83q78 -53 198 -81q94 -22 180 -22q176 0 300 103q140 118 140 328q0 176 -104 272q-84 78 -245 105q-107 17 -285 17l44 400h526v113h-623l-68 -625h78q297 0 422 -60q136 -65 136 -224q0 -140 -87 -227q-89 -89 -240 -89q-75 0 -164 23q-92 24 -170 65l-9 -4z" />
<glyph unicode="6" horiz-adv-x="1009" d="M100 480q0 -230 94 -359q101 -141 300 -141q149 0 249 79q82 63 129 177q37 89 37 188q0 159 -105 269q-109 114 -280 114q-72 0 -138 -22q-77 -26 -143 -86q49 242 213 386q164 142 398 142v111q-258 0 -441 -139q-155 -118 -240 -329q-73 -182 -73 -390zM216 466 q0 72 6 117q178 115 293 115q112 0 190 -76q85 -83 85 -216q0 -124 -66 -214q-77 -104 -203 -104q-128 0 -212 96q-93 106 -93 282z" />
<glyph unicode="7" horiz-adv-x="831" d="M60 1205h572l-486 -1205h123l532 1318h-741v-113z" />
<glyph unicode="8" horiz-adv-x="1029" d="M80 339q0 -169 135 -269q121 -90 299 -90q177 0 299 89q136 100 136 270q0 130 -84 222q-65 70 -188 127q105 59 154 125q59 80 59 186q0 160 -117 254q-108 85 -259 85q-155 0 -260 -87q-115 -95 -115 -252q0 -106 60 -187q49 -66 153 -124q-118 -53 -183 -121 q-89 -96 -89 -228zM198 329q0 106 97 186q62 51 219 125q165 -81 218 -124q99 -81 99 -184q0 -112 -99 -179q-92 -61 -218 -61q-128 0 -218 61q-98 66 -98 176zM257 1003q0 105 83 168q72 54 174 54t175 -55q83 -63 83 -168q0 -95 -75 -164q-56 -53 -183 -109 q-124 56 -180 108q-77 69 -77 166z" />
<glyph unicode="9" horiz-adv-x="1009" d="M100 894q0 -157 106 -268q110 -115 265 -115q87 0 153 22q73 24 142 86q-52 -244 -220 -385q-169 -143 -406 -143v-111q261 0 445 137q162 121 248 333q76 191 76 411q0 207 -94 336q-105 141 -303 141q-145 0 -246 -78q-84 -66 -128 -177q-38 -96 -38 -189zM219 912 q0 124 67 215q76 103 202 103q128 0 212 -96q93 -106 93 -282q0 -72 -6 -117q-91 -60 -161 -87.5t-136 -27.5q-107 0 -186 77q-85 83 -85 215z" />
<glyph unicode=":" horiz-adv-x="371" d="M100 64q0 -34 26 -58q24 -26 59 -26q34 0 60 26q26 24 26 58q0 33 -26 59q-27 25 -60 25q-34 0 -59 -25q-26 -26 -26 -59zM100 974q0 -34 26 -58q24 -26 59 -26q34 0 60 26q26 24 26 58q0 33 -26 59q-27 25 -60 25q-34 0 -59 -25q-26 -26 -26 -59z" />
<glyph unicode=";" horiz-adv-x="376" d="M100 -118l32 -41q54 29 96 87q48 67 48 126q0 47 -30 73q-24 21 -57 21q-35 0 -60.5 -25.5t-25.5 -60.5q35 -47 35 -81t-38 -99zM104 974q0 -34 26 -58q24 -26 59 -26q34 0 60 26q26 24 26 58q0 33 -26 59q-27 25 -60 25q-34 0 -59 -25q-26 -26 -26 -59z" />
<glyph unicode="&#x3c;" horiz-adv-x="894" d="M120 518l590 -413l64 92l-459 321l459 321l-64 92z" />
<glyph unicode="=" horiz-adv-x="1030" d="M120 284h790v112h-790v-112zM120 634h790v112h-790v-112z" />
<glyph unicode="&#x3e;" horiz-adv-x="894" d="M120 197l64 -92l590 413l-590 413l-64 -92l459 -321z" />
<glyph unicode="?" horiz-adv-x="975" d="M120 1306l33 -92h9q48 59 129 93q82 32 163 32q120 0 199 -60q87 -66 87 -174q0 -65 -30 -110q-19 -28 -50 -60.5t-52 -51t-69 -59.5q-53 -46 -96 -109q-105 -149 -105 -381h116q0 96 18 167q32 131 109 216q42 45 148 136q36 31 64 67q63 82 63 189q0 163 -123 257 q-109 82 -268 82q-105 0 -202 -39q-96 -40 -143 -103zM313 64q0 -34 26 -58q24 -26 59 -26q34 0 60 26q26 24 26 58q0 33 -26 59q-27 25 -60 25q-34 0 -59 -25q-26 -26 -26 -59z" />
<glyph unicode="@" horiz-adv-x="1419" d="M100 535q0 -301 176 -493q179 -195 481 -195q124 0 229 34q120 37 200 113l-79 68q-116 -107 -344 -107q-247 0 -399 170q-148 165 -148 421q0 258 162 406q155 140 421 140q140 0 209 -45q77 -52 77 -167v-65q-138 12 -208 12q-208 0 -305 -77q-92 -73 -92 -223 q0 -174 117 -257q88 -63 219 -63q107 0 191 46t121 116q25 -58 67.5 -101t98.5 -61l65 108q-79 18 -122 95q-38 67 -38 165v306h-1q-6 181 -107 254q-94 66 -297 66q-134 0 -257.5 -39t-218.5 -118q-218 -181 -218 -509zM598 532q0 121 119 163q70 24 208 24q76 0 160 -9 v-222q-90 -172 -260 -172q-104 0 -167 65q-60 59 -60 151z" />
<glyph unicode="A" horiz-adv-x="1090" d="M30 0h123l111 323h561l112 -323h123l-453 1318h-124zM303 436l242 702l242 -702h-484z" />
<glyph unicode="B" horiz-adv-x="1128" d="M190 0h218q201 0 313 20q154 26 235 101q92 86 92 243q0 132 -58.5 209.5t-182.5 109.5q83 32 124.5 105.5t41.5 178.5q0 186 -144 275q-123 76 -357 76h-282v-1318zM305 109v510h179q227 0 331 -48q125 -58 125 -201q0 -146 -128 -207q-111 -54 -345 -54h-162zM305 728 v481h137q186 0 289 -52q127 -67 127 -213q0 -71 -25.5 -113.5t-82.5 -65.5q-91 -37 -357 -37h-88z" />
<glyph unicode="C" horiz-adv-x="1072" d="M100 680q0 -319 158 -504q168 -196 486 -196q65 0 123 6q77 6 145 26v105l-8 4q-102 -32 -232 -32q-277 0 -422 161q-133 146 -133 410t134 411q144 158 419 158q112 0 234 -34l8 4v103q-121 36 -261 36q-325 0 -492 -190q-153 -171 -159 -468z" />
<glyph unicode="D" horiz-adv-x="1320" d="M190 0h361q142 0 265 49t214 138q91 88 140.5 209.5t49.5 263.5t-51.5 263t-145.5 210q-94 88 -219.5 136.5t-267.5 48.5h-346v-1318zM305 109v1100h223q116 0 221.5 -40.5t184.5 -115.5q80 -77 125 -181.5t45 -227.5q0 -105 -39.5 -202t-111.5 -171q-160 -162 -408 -162 h-240z" />
<glyph unicode="E" horiz-adv-x="1008" d="M190 0h758v113h-644v490h644v112h-644v490h644v113h-758v-1318z" />
<glyph unicode="F" horiz-adv-x="1008" d="M190 0h115v603h643v113h-643v489h643v113h-758v-1318z" />
<glyph unicode="G" horiz-adv-x="1274" d="M100 675q0 -146 42 -273.5t120 -220.5q167 -201 442 -201q106 0 188 35q32 13 126 72l36 -87h50v723h-380v-113h267v-429q-71 -46 -135 -69t-142 -23q-218 0 -358 165t-140 419q0 247 134 394q147 162 420 162q111 0 233 -34l8 4v103q-121 36 -260 36q-323 0 -495 -195 q-156 -177 -156 -468z" />
<glyph unicode="H" horiz-adv-x="1290" d="M190 0h115v603h680v-603h115v1318h-115v-603h-680v603h-115v-1318z" />
<glyph unicode="I" d="M190 0v1318h114v-1318h-114z" />
<glyph unicode="J" horiz-adv-x="596" d="M120 -20h20q141 0 217 87q89 102 89 317v934h-115v-934q0 -163 -61 -234q-52 -61 -150 -61v-109z" />
<glyph unicode="K" horiz-adv-x="1049" d="M190 0h115v682q36 -87 159 -241q124 -155 254 -278q146 -137 247 -183l56 111q-96 53 -229 176q-128 118 -223 233q-101 119 -126 191l516 618v9h-136l-518 -618v618h-115v-1318z" />
<glyph unicode="L" horiz-adv-x="983" d="M190 0h734v113h-619v1205h-115v-1318z" />
<glyph unicode="M" horiz-adv-x="1343" d="M194 0h110v1096l362 -704h14l354 703v-1095h119v1318h-120l-360 -702h-4l-360 702h-115v-1318z" />
<glyph unicode="N" horiz-adv-x="1303" d="M190 0v1318h114l695 -1111v1111h114v-1318h-114l-695 1110v-1110h-114z" />
<glyph unicode="O" horiz-adv-x="1410" d="M100 656q0 -288 163 -479q80 -94 191.5 -145.5t245.5 -51.5q283 0 451 197q159 187 159 487q0 289 -163 479q-169 195 -438 195q-134 0 -246.5 -51t-194.5 -144q-168 -192 -168 -487zM216 667q0 247 130 402q134 160 358 160q228 0 363 -167q127 -159 127 -410t-127 -404 q-132 -159 -355 -159q-230 0 -366 170q-130 159 -130 408z" />
<glyph unicode="P" horiz-adv-x="1149" d="M190 0h114v424h106q296 0 463 100q196 118 196 366q0 224 -164 328q-160 100 -486 100h-229v-1318zM304 533v676h119q245 0 377 -72q153 -85 153 -272q0 -180 -144 -260q-129 -72 -386 -72h-119z" />
<glyph unicode="Q" horiz-adv-x="1410" d="M100 656q0 -288 163 -479q80 -94 191.5 -145.5t245.5 -51.5q37 0 91 7q47 -87 142 -167q93 -79 158 -87l60 109q-49 18 -113 66q-71 52 -116 113q180 71 284 243t104 399q0 141 -42.5 265t-120.5 215q-169 195 -438 195q-134 0 -246.5 -51t-194.5 -144 q-168 -192 -168 -487zM216 667q0 247 130 402q134 160 358 160q228 0 363 -167q127 -159 127 -410t-127 -404q-132 -159 -355 -159q-230 0 -366 170q-130 159 -130 408z" />
<glyph unicode="R" horiz-adv-x="1263" d="M190 0h115v431h100q198 0 318 30q33 -75 109 -187q72 -107 149 -191q83 -89 135 -101l67 98q-97 49 -211 191q-105 130 -136 228q115 50 172 142q62 98 62 246q0 225 -132 326q-138 105 -461 105h-287v-1318zM305 540v669h146q248 0 364 -66q137 -79 137 -269 q0 -181 -144 -262q-127 -72 -385 -72h-118z" />
<glyph unicode="S" horiz-adv-x="954" d="M120 995q0 -143 93 -236q63 -63 206 -130q11 -5 43 -20.5t47 -22.5t39.5 -20t42.5 -24.5t34 -23.5q93 -73 93 -179q0 -118 -103 -186q-92 -61 -227 -61q-132 0 -255 53l-7 -5v-102q119 -58 251 -58q206 0 333 106q124 105 124 271q0 134 -94 228q-60 58 -208 129 q-7 3 -36.5 17t-39.5 19l-34 17t-37 19.5t-30 18.5t-31 22q-95 73 -95 179q0 105 84 164q79 56 210 56q97 0 187 -24l9 4v105q-89 27 -186 27q-181 0 -292 -83q-121 -92 -121 -260z" />
<glyph unicode="T" horiz-adv-x="1030" d="M60 1205h400v-1205h115v1205h395v113h-910v-113z" />
<glyph unicode="U" horiz-adv-x="1418" d="M247 490v828h114v-811q0 -181 56 -279q49 -85 136 -116q64 -23 167 -23t167 23q88 32 135 116q55 99 55 279v811h114v-828q0 -299 -138 -418q-107 -92 -333 -92t-334 92q-139 118 -139 418z" />
<glyph unicode="V" horiz-adv-x="1092" d="M30 1318h124l391 -1136l390 1136h127l-454 -1318h-126z" />
<glyph unicode="W" horiz-adv-x="1692" d="M30 1318l377 -1318h123l316 1101l316 -1101h123l377 1318h-123l-316 -1103l-315 1103h-124l-316 -1103l-315 1103h-123z" />
<glyph unicode="X" horiz-adv-x="1099" d="M30 0h130l389 599l390 -599h130l-454 699l402 619h-130l-338 -519l-337 519h-130l402 -619z" />
<glyph unicode="Y" horiz-adv-x="979" d="M30 1318l403 -826v-492h114v492l403 826h-134l-326 -668l-326 668h-134z" />
<glyph unicode="Z" horiz-adv-x="962" d="M85 5l5 -5h787v113h-613l612 1200l-5 5h-763v-113h586z" />
<glyph unicode="[" horiz-adv-x="580" d="M120 0h340v112h-226v1224h226v112h-340v-1448z" />
<glyph unicode="\" horiz-adv-x="933" d="M120 1409l588 -1616l105 39l-588 1616z" />
<glyph unicode="]" horiz-adv-x="580" d="M120 0v112h226v1224h-226v112h340v-1448h-340z" />
<glyph unicode="_" horiz-adv-x="800" d="M0 0h800v112h-800v-112z" />
<glyph unicode="`" horiz-adv-x="670" d="M100 1301q16 -24 62 -60t107 -72q146 -88 268 -111q25 23 33 89q-122 54 -248 142q-78 54 -144 111q-36 -20 -54.5 -40.5t-23.5 -58.5z" />
<glyph unicode="a" horiz-adv-x="1039" d="M100 300q0 -174 117 -257q88 -63 219 -63q107 0 191 46t121 116q25 -58 67.5 -101t98.5 -61l65 107q-80 18 -122 95q-38 69 -38 166v368q0 181 -98 268q-85 74 -233 74q-156 0 -316 -74l30 -106q139 70 279 70q98 0 155 -47q69 -57 69 -169v-144q-138 12 -208 12 q-208 0 -305 -77q-92 -73 -92 -223zM218 305q0 121 119 163q70 24 208 24q76 0 160 -9v-222q-90 -172 -260 -172q-104 0 -167 65q-60 58 -60 151z" />
<glyph unicode="b" horiz-adv-x="1103" d="M190 0h115v29q120 -49 243 -49q199 0 328 158q127 156 127 394q0 226 -113 373q-119 153 -319 153q-147 0 -266 -91v461h-13l-102 -20v-1408zM305 151v688q102 110 251 110q164 0 252 -122q79 -111 79 -294q0 -207 -102 -328q-96 -114 -244 -114q-114 0 -236 60z" />
<glyph unicode="c" horiz-adv-x="908" d="M100 526q0 -274 144 -418q128 -128 332 -128q124 0 242 49v93l-9 8q-107 -40 -214 -40q-165 0 -266 107q-110 116 -110 335q0 216 110 323q96 93 266 93q109 0 213 -40l10 11v90q-118 49 -243 49q-208 0 -334 -123q-141 -138 -141 -409z" />
<glyph unicode="d" horiz-adv-x="1135" d="M100 535q0 -235 118 -390q123 -165 321 -165q163 0 292 110l26 -90h88v1428h-13l-101 -20v-383q-132 33 -216 33q-257 0 -392 -151q-123 -138 -123 -372zM218 521q0 204 111 320q103 108 279 108q93 0 223 -54v-679q-91 -127 -271 -127q-169 0 -260 133q-82 117 -82 299z " />
<glyph unicode="e" horiz-adv-x="960" d="M100 532q0 -272 139 -419q126 -133 332 -133q148 0 297 74v107l-4 3q-84 -41 -138 -56q-64 -19 -138 -19q-156 0 -256 101q-108 108 -115 305h653v113q-2 126 -21 206q-27 112 -95 172q-83 72 -226 72q-222 0 -331 -151q-97 -134 -97 -375zM221 608q18 158 88 244 q80 96 217 96q130 0 184 -103q41 -81 41 -237h-530z" />
<glyph unicode="f" horiz-adv-x="682" d="M50 925h189v-925h114v925h255v113h-255v13q0 155 53 223q49 65 159 65q75 0 175 -38l42 105q-131 42 -239 42q-144 0 -217 -83q-87 -98 -87 -314v-13h-189v-113z" />
<glyph unicode="g" horiz-adv-x="1047" d="M90 -155q0 -134 103 -225q109 -98 280 -98q96 0 192 31t172 85q79 56 124.5 129t45.5 152q0 125 -97 207q-109 91 -310 91h-235q-58 0 -93 30q-32 26 -32 60q0 44 44 95q90 -52 209 -52q167 0 277 104q107 101 107 251q0 123 -68 212q98 74 196 86l-37 104 q-51 0 -117 -29q-73 -31 -128 -81q-94 61 -223 61q-166 0 -277 -104q-107 -102 -107 -252q0 -67 23.5 -130.5t65.5 -108.5q-75 -93 -75 -189q0 -46 22 -86.5t63 -64.5q-125 -132 -125 -278zM204 -139q0 121 110 244h148q210 0 306 -35q124 -45 124 -163q0 -51 -30.5 -100.5 t-84.5 -87.5q-120 -85 -290 -85q-140 0 -215 67q-68 61 -68 160zM230 703q0 95 68 166q74 79 199 79q124 0 200 -79q66 -71 66 -168q0 -96 -65 -164q-75 -78 -198 -78q-126 0 -202 78q-68 70 -68 166z" />
<glyph unicode="h" horiz-adv-x="1131" d="M190 0h115v829q67 52 142 84q83 36 159 36q103 0 167 -63q73 -73 73 -203v-683h115v725q0 163 -107 255q-92 78 -228 78q-150 0 -321 -114v484h-13l-102 -20v-1408z" />
<glyph unicode="i" d="M161 1295q0 -34 26 -58q26 -26 60 -26t60 26q26 24 26 58q0 33 -26 59q-27 25 -60 25t-60 -25q-26 -26 -26 -59zM190 0h114v1038h-114v-1038z" />
<glyph unicode="j" horiz-adv-x="599" d="M-140 -432q114 -46 212 -46q148 0 224 87q84 96 84 317v1112h-114v-1112q0 -160 -54 -231q-49 -64 -153 -64q-81 0 -165 46zM238 1295q0 -34 26 -58q24 -26 59 -26q34 0 60 26q26 24 26 58q0 33 -26 59q-27 25 -60 25q-34 0 -59 -25q-26 -26 -26 -59z" />
<glyph unicode="k" horiz-adv-x="946" d="M190 0h115v527q3 -11 32 -57q30 -47 75 -104q111 -148 224 -250q143 -131 236 -136l44 95q-118 55 -201 126q-150 127 -231 258q-32 50 -50 72l418 507h-134l-413 -492v882h-13l-102 -19v-1409z" />
<glyph unicode="l" d="M190 0h114v1428h-12l-102 -20v-1408z" />
<glyph unicode="m" horiz-adv-x="1672" d="M190 0h115v828q75 57 132 84q75 36 139 36q90 0 146 -63q62 -70 62 -202v-683h114v725q0 76 -21 133q136 90 259 90q102 0 168 -63q73 -71 73 -202v-683h115v725q0 163 -107 255q-92 78 -226 78q-77 0 -170 -34q-71 -26 -155 -81q-86 115 -237 115q-69 0 -136 -29 t-159 -87l-28 96h-84v-1038z" />
<glyph unicode="n" horiz-adv-x="1131" d="M190 0h115v828q67 52 142 84q83 36 159 36q103 0 167 -63q73 -71 73 -202v-683h115v725q0 163 -107 255q-92 78 -228 78q-145 0 -324 -116l-29 96h-83v-1038z" />
<glyph unicode="o" horiz-adv-x="1134" d="M100 516q0 -226 125 -378q62 -75 148.5 -116.5t189.5 -41.5q207 0 342 159q129 152 129 383q0 227 -125 379q-131 157 -338 157q-208 0 -341 -157q-130 -153 -130 -385zM214 526q0 183 92 300q97 123 261 123q167 0 264 -128q89 -119 89 -307q0 -187 -89 -302 q-97 -123 -259 -123q-168 0 -266 130q-92 121 -92 307z" />
<glyph unicode="p" horiz-adv-x="1135" d="M190 -458h114v473q112 -35 221 -35q228 0 369 150q141 151 141 391q0 226 -117 377q-124 160 -325 160q-158 0 -287 -110l-27 90h-89v-1496zM304 132v690q91 127 270 127q170 0 262 -128q81 -113 81 -294q0 -211 -116 -329q-108 -110 -281 -110q-112 0 -216 44z" />
<glyph unicode="q" horiz-adv-x="1103" d="M100 522q0 -225 108 -378q115 -164 304 -164q84 0 162 33q57 24 124 75v-546h115v1426q-85 37 -162 59q-107 31 -198 31q-201 0 -326 -147q-127 -149 -127 -389zM216 523q0 209 102 322q92 102 244 102q114 0 236 -60v-667q-59 -60 -114 -90q-74 -41 -161 -41 q-151 0 -233 132q-74 118 -74 302z" />
<glyph unicode="r" horiz-adv-x="776" d="M190 0h114v804q110 145 250 145q42 0 114 -25l38 103q-73 31 -142 31q-143 0 -259 -127l-32 107h-83v-1038z" />
<glyph unicode="s" horiz-adv-x="810" d="M90 20q88 -40 214 -40q173 0 291 81q125 87 125 236q0 111 -79 185q-54 49 -174 98q-132 54 -174 83q-80 53 -80 136q0 77 64 116q56 33 149 33q86 0 192 -29l6 6v104q-104 29 -188 29q-151 0 -243 -68q-98 -72 -98 -203q0 -83 38 -136q66 -95 215 -154q73 -30 122 -55 q63 -32 97 -69t34 -91q0 -92 -98 -145q-84 -47 -195 -47q-54 0 -114 11q-58 11 -97 26l-7 -6v-101z" />
<glyph unicode="t" horiz-adv-x="696" d="M50 925h113v-596q0 -203 111 -289q77 -60 196 -60q96 0 196 38l-33 109q-98 -35 -157 -35q-94 0 -144 68q-54 73 -54 231v534h255v113h-255v207h-12l-103 -19v-188h-113v-113z" />
<glyph unicode="u" horiz-adv-x="1131" d="M170 313q0 -163 108 -254q92 -79 227 -79q79 0 172 35q73 27 158 83l30 -98h76v1038h-115v-828q-62 -48 -141 -84q-84 -37 -160 -37q-103 0 -167 64q-73 71 -73 202v683h-115v-725z" />
<glyph unicode="v" horiz-adv-x="898" d="M30 1038l355 -1038h126l357 1038h-126l-294 -856l-294 856h-124z" />
<glyph unicode="w" horiz-adv-x="1452" d="M30 1038l327 -1038h125l243 828l243 -828h126l328 1038h-126l-263 -835l-250 835h-116l-249 -836l-263 836h-125z" />
<glyph unicode="x" horiz-adv-x="980" d="M30 0h145l315 452l316 -452h145l-384 548l342 490h-145l-269 -386l-269 386h-145l337 -483z" />
<glyph unicode="y" horiz-adv-x="906" d="M-60 -426q112 -52 210 -52q94 0 162 47q79 54 114 161l450 1308h-126l-294 -853l-294 853h-129l358 -1038l-60 -191q-23 -75 -72.5 -112t-115.5 -37q-68 0 -138 39z" />
<glyph unicode="z" horiz-adv-x="903" d="M68 5l5 -5h760v113h-562l565 919l-5 6h-747v-113h549z" />
<glyph unicode="{" horiz-adv-x="810" d="M120 659q99 0 149 -39q59 -46 59 -155v-144q0 -185 97 -270q81 -71 226 -71h39v109h-12q-137 0 -189 58q-47 51 -47 174v146q0 74 -35 146q-41 80 -97 101q57 22 97 102q35 70 35 145v146q0 123 47 174q52 58 189 58h12v109h-39q-145 0 -226 -71q-97 -85 -97 -270v-144 q0 -110 -59 -156q-51 -40 -149 -40v-108z" />
<glyph unicode="|" horiz-adv-x="354" d="M120 -270h114v1718h-114v-1718z" />
<glyph unicode="}" horiz-adv-x="810" d="M120 -20h39q145 0 226 71q97 85 97 270v144q0 109 59 155q50 39 149 39v108q-98 0 -149 40q-59 46 -59 156v144q0 185 -97 270q-81 71 -226 71h-39v-109h12q136 0 190 -58q46 -51 46 -174v-146q0 -75 35 -145q40 -80 97 -102q-57 -21 -96 -101q-36 -71 -36 -146v-146 q0 -123 -46 -174q-54 -58 -190 -58h-12v-109z" />
<glyph unicode="~" horiz-adv-x="1031" d="M120 439q46 -43 106 -31q0 53 38 97q40 47 95 47q11 0 20.5 -1.5t20 -6t17 -7.5t18.5 -12t16 -11.5t18 -14.5t17 -14q40 -32 79.5 -50.5t95.5 -18.5q97 0 168 58q70 59 82 156q-48 43 -108 31q0 -50 -46 -93t-104 -43q-25 0 -52.5 12.5t-39.5 21.5t-46 35 q-28 22 -46 33.5t-48.5 22.5t-61.5 11q-84 0 -153 -61q-74 -65 -86 -161z" />
<glyph unicode="&#xa1;" horiz-adv-x="471" d="M150 974q0 -35 25.5 -60t60.5 -25t60 25t25 60t-25 59.5t-60 24.5t-60.5 -24.5t-25.5 -59.5zM172 -390h122q0 215 -2 351q-3 186 -8 401q-7 216 -15 271h-70q-8 -55 -15 -271q-6 -173 -9 -401q-3 -204 -3 -351z" />
<glyph unicode="&#xa2;" horiz-adv-x="908" d="M100 526q0 -254 123 -396q110 -128 292 -147v-131h114v130q91 7 189 47v93l-9 8q-107 -40 -214 -40q-165 0 -266 107q-110 116 -110 335q0 216 110 323q96 93 266 93q109 0 213 -40l10 11v90q-96 38 -189 46v131h-114v-131q-187 -20 -293 -141q-122 -138 -122 -388z" />
<glyph unicode="&#xa3;" horiz-adv-x="1041" d="M60 628h217q26 -118 26 -190q0 -145 -82 -239q-74 -86 -160 -86v-113h891v113h-642q50 56 80 136.5t30 166.5q0 70 -30 212h370v112h-393q-23 113 -23 185q0 131 65 214q72 90 207 90q67 0 140 -19q78 -20 112 -46l39 106q-150 68 -310 68q-166 0 -261 -91 q-107 -102 -107 -300q0 -100 24 -207h-193v-112z" />
<glyph unicode="&#xa5;" horiz-adv-x="979" d="M30 1318l361 -740h-296v-112h338v-118h-338v-112h338v-236h114v236h338v112h-338v118h338v112h-296l361 740h-134l-326 -668l-326 668h-134z" />
<glyph unicode="&#xa6;" horiz-adv-x="354" d="M120 -270h114v700h-114v-700zM120 748h114v700h-114v-700z" />
<glyph unicode="&#xa7;" horiz-adv-x="971" d="M120 679q0 -139 80 -237q51 -64 176 -144q5 -3 26 -17t28.5 -18.5t25 -16.5t27 -19t23 -18t24.5 -21t21 -20q80 -83 80 -198q0 -205 -242 -205q-95 0 -185 24l-9 -4l-20 -98q99 -34 209 -34q166 0 257 81q99 86 99 254q0 60 -15 120q127 120 127 314q0 138 -80 238 q-50 62 -175 143q-47 30 -66.5 43t-53.5 39t-56 49q-80 83 -80 197q0 205 242 205q95 0 185 -24l9 4l20 98q-99 34 -209 34q-165 0 -257 -80q-99 -88 -99 -255q0 -67 15 -120q-127 -120 -127 -314zM236 697q0 104 63 184q33 -47 81 -86q54 -44 189 -132q48 -33 84 -67 q83 -83 83 -192q0 -102 -64 -184q-34 48 -79 86q-55 44 -190 132q-48 31 -84 67q-83 81 -83 192z" />
<glyph unicode="&#xa8;" horiz-adv-x="695" d="M100 1253q0 -35 25.5 -60t60.5 -25t60.5 25t25.5 60t-25.5 60t-60.5 25t-60.5 -25t-25.5 -60zM423 1253q0 -35 25 -60t60 -25t61 25t26 60t-26 60t-61 25t-60 -25t-25 -60z" />
<glyph unicode="&#xa9;" horiz-adv-x="1644" d="M100 709q0 -150 51.5 -283t145.5 -233q96 -102 228.5 -158.5t290.5 -56.5t292.5 56.5t232.5 158.5q97 101 150 236t53 287q0 150 -51.5 284t-145.5 234q-96 102 -228.5 158t-290.5 56q-157 0 -291.5 -56.5t-232.5 -158.5q-98 -101 -151 -236t-53 -288zM217 710 q0 129 44 242t126 198q82 86 194.5 133.5t244.5 47.5q266 0 436 -181q79 -85 121.5 -197t42.5 -238q0 -128 -43.5 -241t-124.5 -198q-175 -181 -440 -181q-133 0 -244.5 47.5t-191.5 133.5q-79 84 -122 196t-43 238zM450 713q0 -238 126 -362q110 -111 287 -111 q108 0 210 42v94l-9 7q-97 -35 -186 -35q-140 0 -221 87q-91 96 -91 284q0 181 88 269q78 78 214 78q94 0 196 -35l9 9v92q-102 42 -211 42q-182 0 -289 -106q-123 -120 -123 -355z" />
<glyph unicode="&#xab;" horiz-adv-x="1078" d="M120 714l424 -734l97 56l-392 678l392 678l-97 56zM437 714l424 -734l97 56l-392 678l392 678l-97 56z" />
<glyph unicode="&#xad;" horiz-adv-x="650" d="M75 526h500v112h-500v-112z" />
<glyph unicode="&#xae;" horiz-adv-x="1218" d="M80 906q0 -111 37.5 -208.5t106.5 -169.5q150 -158 381 -158q235 0 385 158q148 156 148 383t-144 379q-150 158 -381 158q-232 0 -384 -158q-149 -155 -149 -384zM189 907q0 182 118 305q120 125 305 125q184 0 303 -125q113 -121 113 -302q0 -182 -117 -304 q-120 -125 -305 -125t-302 125q-115 121 -115 301zM398 626h108v186h65q39 0 67 4q33 -68 62 -109q47 -67 96 -89l80 52l-3 7q-40 22 -81 75q-40 50 -55 91q96 46 96 167q0 97 -56 140q-59 46 -199 46h-180v-570zM506 914v181h75q73 0 106 -16q40 -21 40 -76q0 -52 -41 -72 q-35 -17 -112 -17h-68z" />
<glyph unicode="&#xaf;" horiz-adv-x="700" d="M100 1058h500v112h-500v-112z" />
<glyph unicode="&#xb0;" horiz-adv-x="814" d="M80 1000q0 -140 89 -234q91 -98 235 -98q146 0 239 98q91 96 91 239q0 139 -88 235q-93 98 -236 98t-238 -98q-92 -97 -92 -240zM193 1001q0 93 61 157t155 64q93 0 154 -64q58 -64 58 -153q0 -95 -59 -157q-61 -64 -157 -64q-95 0 -153 64q-59 62 -59 153z" />
<glyph unicode="&#xb1;" horiz-adv-x="1030" d="M120 0h790v112h-790v-112zM120 587h339v-339h112v339h339v112h-339v339h-112v-339h-339v-112z" />
<glyph unicode="&#xb4;" horiz-adv-x="670" d="M100 1147q8 -66 33 -89q123 24 269 111q132 77 168 132q-5 38 -23.5 58.5t-54.5 40.5q-71 -61 -143 -111q-124 -86 -249 -142z" />
<glyph unicode="&#xb6;" horiz-adv-x="1294" d="M80 893q0 -207 130 -289q103 -66 329 -68v-536h114v1225q7 0 10 1h9q81 0 156 -14v-1212h114v1178q16 -6 31 -13t29.5 -15.5t25.5 -15t26 -17t22.5 -16t22.5 -17.5t19.5 -16t21 -17.5t18.5 -15.5h6l70 73q-65 101 -221 163q-166 66 -371 66q-135 0 -236 -28 q-144 -39 -225 -127q-101 -108 -101 -289zM197 894q0 122 59 197q83 104 283 127v-566q-186 4 -264 60q-78 55 -78 182z" />
<glyph unicode="&#xb7;" horiz-adv-x="371" d="M100 519q0 -34 26 -58q24 -26 59 -26q34 0 60 26q26 24 26 58q0 33 -26 59q-27 25 -60 25q-34 0 -59 -25q-26 -26 -26 -59z" />
<glyph unicode="&#xb8;" horiz-adv-x="623" d="M91 -427q76 -51 177 -51q107 0 175 56q71 58 71 153q0 71 -38 124q-48 67 -140 89v57h-114v-137q82 0 133 -37q49 -38 49 -92q0 -53 -47 -83q-40 -25 -88 -25q-23 0 -70 9q-35 7 -71 22q-31 -23 -37 -85z" />
<glyph unicode="&#xbb;" horiz-adv-x="1078" d="M120 36l97 -56l424 734l-424 734l-97 -56l392 -678zM437 36l97 -56l424 734l-424 734l-97 -56l392 -678z" />
<glyph unicode="&#xbf;" horiz-adv-x="975" d="M120 -139q0 -163 123 -256q108 -83 268 -83q106 0 202 40q96 38 143 102l-33 92h-9q-48 -60 -129 -92q-80 -33 -163 -33q-120 0 -199 60q-87 66 -87 174q0 65 30 110q37 56 157 160q9 8 14 12q51 43 97 108q104 150 104 381h-116q0 -93 -17 -166q-34 -134 -110 -216 q-42 -47 -148 -137q-36 -31 -64 -67q-63 -82 -63 -189zM492 906q0 -34 26 -58q26 -26 60 -26t60 26q25 25 25 58q0 32 -25 59q-27 25 -60 25t-60 -25q-26 -26 -26 -59z" />
<glyph unicode="&#xc0;" horiz-adv-x="1090" d="M30 0h123l111 323h561l112 -323h123l-453 1318h-124zM303 436l242 702l242 -702h-484zM310 1692q16 -24 62 -60t107 -72q146 -88 268 -111q25 23 33 89q-122 54 -248 142q-78 54 -144 111q-36 -20 -54.5 -40.5t-23.5 -58.5z" />
<glyph unicode="&#xc1;" horiz-adv-x="1090" d="M30 0h123l111 323h561l112 -323h123l-453 1318h-124zM303 436l242 702l242 -702h-484zM310 1537q8 -66 33 -89q123 24 269 111q132 77 168 132q-5 38 -23.5 58.5t-54.5 40.5q-71 -61 -143 -111q-124 -86 -249 -142z" />
<glyph unicode="&#xc2;" horiz-adv-x="1090" d="M30 0h123l111 323h561l112 -323h123l-453 1318h-124zM209 1493q13 -67 42 -85q70 21 152 74q60 38 137 102h8q70 -58 139 -102q82 -53 152 -74q29 18 42 85q-177 105 -328 256h-16q-70 -70 -130 -118q-98 -79 -198 -138zM303 436l242 702l242 -702h-484z" />
<glyph unicode="&#xc3;" horiz-adv-x="1090" d="M30 0h123l111 323h561l112 -323h123l-453 1318h-124zM199 1442q43 -39 107 -27q0 41 38 74q35 30 72 30q10 0 20 -2.5t16.5 -4.5t17.5 -9t15 -10t18 -13t17 -12q71 -53 143 -53q87 0 150 49q70 55 77 135q-47 37 -107 27q0 -42 -41 -73q-39 -29 -79 -29q-10 0 -20 2.5 t-16.5 5t-18.5 10t-15.5 10t-18 13t-16.5 12.5q-69 51 -134 51q-75 0 -140 -48q-75 -55 -85 -138zM303 436l242 702l242 -702h-484z" />
<glyph unicode="&#xc4;" horiz-adv-x="1090" d="M30 0h123l111 323h561l112 -323h123l-453 1318h-124zM297 1533q0 -35 25.5 -60t60.5 -25t60.5 25t25.5 60t-25.5 60t-60.5 25t-60.5 -25t-25.5 -60zM303 436l242 702l242 -702h-484zM620 1533q0 -35 25 -60t60 -25t61 25t26 60t-26 60t-61 25t-60 -25t-25 -60z" />
<glyph unicode="&#xc5;" horiz-adv-x="1090" d="M30 0h123l111 323h561l112 -323h123l-453 1318h-124zM303 436l242 702l242 -702h-484zM344 1607q0 -80 59 -139q58 -60 141 -60q81 0 141 60q60 58 60 139t-60 139t-141 58q-83 0 -141 -58q-59 -59 -59 -139zM455 1607q0 37 27 62q27 27 62 27q36 0 63 -27t27 -62 t-27 -62q-25 -27 -63 -27q-37 0 -62 27q-27 25 -27 62z" />
<glyph unicode="&#xc6;" horiz-adv-x="1363" d="M30 0h123l111 323h561l112 -323h366v113h-282l-168 490h450v112h-489l-168 490h657v113h-820zM303 436l242 702l242 -702h-484z" />
<glyph unicode="&#xc7;" horiz-adv-x="1072" d="M100 680q0 -299 140 -481q149 -193 430 -216v-122q82 0 133 -37q49 -38 49 -92q0 -53 -47 -83q-40 -25 -88 -25q-23 0 -70 9q-35 7 -71 22q-31 -23 -37 -85q76 -51 177 -51q107 0 175 56q71 58 71 153q0 71 -38 124q-48 67 -140 89v40q152 7 228 31v105l-8 4 q-102 -32 -232 -32q-277 0 -422 161q-133 146 -133 410t134 411q144 158 419 158q112 0 234 -34l8 4v103q-121 36 -261 36q-325 0 -492 -190q-153 -171 -159 -468z" />
<glyph unicode="&#xc8;" horiz-adv-x="1008" d="M190 0h758v113h-644v490h644v112h-644v490h644v113h-758v-1318zM361 1691q16 -24 62 -60t107 -72q146 -88 268 -111q25 23 33 89q-122 54 -248 142q-78 54 -144 111q-36 -20 -54.5 -40.5t-23.5 -58.5z" />
<glyph unicode="&#xc9;" horiz-adv-x="1008" d="M190 0h758v113h-644v490h644v112h-644v490h644v113h-758v-1318zM360 1537q8 -66 33 -89q123 24 269 111q132 77 168 132q-5 38 -23.5 58.5t-54.5 40.5q-71 -61 -143 -111q-124 -86 -249 -142z" />
<glyph unicode="&#xca;" horiz-adv-x="1008" d="M190 0h758v113h-644v490h644v112h-644v490h644v113h-758v-1318zM249 1493q13 -67 42 -85q70 21 152 74q60 38 137 102h8q70 -58 139 -102q82 -53 152 -74q29 18 42 85q-177 105 -328 256h-16q-70 -70 -130 -118q-98 -79 -198 -138z" />
<glyph unicode="&#xcb;" horiz-adv-x="1008" d="M190 0h758v113h-644v490h644v112h-644v490h644v113h-758v-1318zM345 1533q0 -35 25.5 -60t60.5 -25t60.5 25t25.5 60t-25.5 60t-60.5 25t-60.5 -25t-25.5 -60zM668 1533q0 -35 25 -60t60 -25t61 25t26 60t-26 60t-61 25t-60 -25t-25 -60z" />
<glyph unicode="&#xcc;" d="M12 1691q16 -24 62 -60t107 -72q146 -88 268 -111q25 23 33 89q-122 54 -248 142q-78 54 -144 111q-36 -20 -54.5 -40.5t-23.5 -58.5zM190 0h114v1318h-114v-1318z" />
<glyph unicode="&#xcd;" d="M12 1538q8 -66 33 -89q123 24 269 111q132 77 168 132q-5 38 -23.5 58.5t-54.5 40.5q-71 -61 -143 -111q-124 -86 -249 -142zM190 0h114v1318h-114v-1318z" />
<glyph unicode="&#xce;" d="M-89 1493q13 -67 42 -85q70 21 152 74q60 38 137 102h8q70 -58 139 -102q82 -53 152 -74q29 18 42 85q-177 105 -328 256h-16q-70 -70 -130 -118q-98 -79 -198 -138zM190 0h114v1318h-114v-1318z" />
<glyph unicode="&#xcf;" d="M0 1533q0 -35 25.5 -60t60.5 -25t60.5 25t25.5 60t-25.5 60t-60.5 25t-60.5 -25t-25.5 -60zM190 0h114v1318h-114v-1318zM323 1533q0 -35 25 -60t60 -25t61 25t26 60t-26 60t-61 25t-60 -25t-25 -60z" />
<glyph unicode="&#xd0;" horiz-adv-x="1315" d="M50 604h135v-604h361q142 0 265 49t214 138q91 88 140.5 209.5t49.5 263.5t-51.5 263t-145.5 210q-94 88 -219.5 136.5t-267.5 48.5h-346v-602h-135v-112zM300 109v495h169v112h-169v493h223q116 0 221.5 -40.5t184.5 -115.5q80 -77 125 -181.5t45 -227.5 q0 -105 -39.5 -202t-111.5 -171q-160 -162 -408 -162h-240z" />
<glyph unicode="&#xd1;" horiz-adv-x="1303" d="M190 0v1318h114l695 -1111v1111h114v-1318h-114l-695 1110v-1110h-114zM315 1482q10 83 85 138q65 48 140 48q65 0 134 -51q2 -2 16.5 -12.5t18 -13t15.5 -10t18.5 -10t16.5 -5t20 -2.5q40 0 79 29q41 31 41 73q60 10 107 -27q-7 -80 -77 -135q-63 -49 -150 -49 q-72 0 -143 53q-4 3 -14.5 10.5t-15 11t-13.5 9.5t-15 8.5t-14 5.5t-16 4.5t-16 1.5q-37 0 -72 -30q-38 -33 -38 -74q-64 -12 -107 27z" />
<glyph unicode="&#xd2;" horiz-adv-x="1410" d="M100 656q0 -288 163 -479q80 -94 191.5 -145.5t245.5 -51.5q283 0 451 197q159 187 159 487q0 289 -163 479q-169 195 -438 195q-134 0 -246.5 -51t-194.5 -144q-168 -192 -168 -487zM216 667q0 247 130 402q134 160 358 160q228 0 363 -167q127 -159 127 -410t-127 -404 q-132 -159 -355 -159q-230 0 -366 170q-130 159 -130 408zM543 1691q16 -24 62 -60t107 -72q146 -88 268 -111q25 23 33 89q-122 54 -248 142q-78 54 -144 111q-36 -20 -54.5 -40.5t-23.5 -58.5z" />
<glyph unicode="&#xd3;" horiz-adv-x="1410" d="M100 656q0 -288 163 -479q80 -94 191.5 -145.5t245.5 -51.5q283 0 451 197q159 187 159 487q0 289 -163 479q-169 195 -438 195q-134 0 -246.5 -51t-194.5 -144q-168 -192 -168 -487zM216 667q0 247 130 402q134 160 358 160q228 0 363 -167q127 -159 127 -410t-127 -404 q-132 -159 -355 -159q-230 0 -366 170q-130 159 -130 408zM487 1537q8 -66 33 -89q123 24 269 111q132 77 168 132q-5 38 -23.5 58.5t-54.5 40.5q-71 -61 -143 -111q-124 -86 -249 -142z" />
<glyph unicode="&#xd4;" horiz-adv-x="1410" d="M100 656q0 -288 163 -479q80 -94 191.5 -145.5t245.5 -51.5q283 0 451 197q159 187 159 487q0 289 -163 479q-169 195 -438 195q-134 0 -246.5 -51t-194.5 -144q-168 -192 -168 -487zM216 667q0 247 130 402q134 160 358 160q228 0 363 -167q127 -159 127 -410t-127 -404 q-132 -159 -355 -159q-230 0 -366 170q-130 159 -130 408zM369 1495q13 -67 42 -85q70 21 152 74q60 38 137 102h8q70 -58 139 -102q82 -53 152 -74q29 18 42 85q-177 105 -328 256h-16q-70 -70 -130 -118q-98 -79 -198 -138z" />
<glyph unicode="&#xd5;" horiz-adv-x="1410" d="M100 656q0 -288 163 -479q80 -94 191.5 -145.5t245.5 -51.5q283 0 451 197q159 187 159 487q0 289 -163 479q-169 195 -438 195q-134 0 -246.5 -51t-194.5 -144q-168 -192 -168 -487zM216 667q0 247 130 402q134 160 358 160q228 0 363 -167q127 -159 127 -410t-127 -404 q-132 -159 -355 -159q-230 0 -366 170q-130 159 -130 408zM359 1482q43 -39 107 -27q0 41 38 74q35 30 72 30q10 0 20 -2.5t16.5 -4.5t17.5 -9t15 -10t18 -13t17 -12q71 -53 143 -53q87 0 150 49q70 55 77 135q-47 37 -107 27q0 -42 -41 -73q-39 -29 -79 -29q-10 0 -20 2.5 t-16.5 5t-18.5 10t-15.5 10t-18 13t-16.5 12.5q-69 51 -134 51q-75 0 -140 -48q-75 -55 -85 -138z" />
<glyph unicode="&#xd6;" horiz-adv-x="1410" d="M100 656q0 -288 163 -479q80 -94 191.5 -145.5t245.5 -51.5q283 0 451 197q159 187 159 487q0 289 -163 479q-169 195 -438 195q-134 0 -246.5 -51t-194.5 -144q-168 -192 -168 -487zM216 667q0 247 130 402q134 160 358 160q228 0 363 -167q127 -159 127 -410t-127 -404 q-132 -159 -355 -159q-230 0 -366 170q-130 159 -130 408zM447 1533q0 -35 25.5 -60t60.5 -25t60.5 25t25.5 60t-25.5 60t-60.5 25t-60.5 -25t-25.5 -60zM770 1533q0 -35 25 -60t60 -25t61 25t26 60t-26 60t-61 25t-60 -25t-25 -60z" />
<glyph unicode="&#xd7;" horiz-adv-x="878" d="M120 326l79 -79l240 240l240 -240l79 79l-240 240l240 240l-79 79l-240 -240l-240 240l-79 -79l240 -240z" />
<glyph unicode="&#xd8;" horiz-adv-x="1410" d="M100 656q0 -207 88 -371t246 -244l-76 -209l105 -39l75 208q82 -21 162 -21q283 0 451 197q159 187 159 487q0 201 -82 359q-83 159 -230 242l53 144l-105 39l-51 -139q-89 29 -186 29q-134 0 -246.5 -51t-194.5 -144q-168 -192 -168 -487zM216 667q0 247 130 402 q134 160 358 160q80 0 154 -23l-385 -1057q-123 69 -190 209q-67 136 -67 309zM577 106l383 1052q111 -70 174 -207q60 -130 60 -299q0 -251 -127 -404q-132 -159 -355 -159q-70 0 -135 17z" />
<glyph unicode="&#xd9;" horiz-adv-x="1418" d="M247 490v828h114v-811q0 -181 56 -279q49 -85 136 -116q64 -23 167 -23t167 23q88 32 135 116q55 99 55 279v811h114v-828q0 -299 -138 -418q-107 -92 -333 -92t-334 92q-139 118 -139 418zM489 1691q5 38 23.5 58.5t54.5 40.5q66 -57 144 -111q126 -88 248 -142 q-8 -66 -33 -89q-122 23 -268 111q-61 36 -107 72t-62 60z" />
<glyph unicode="&#xda;" horiz-adv-x="1418" d="M247 490v828h114v-811q0 -181 56 -279q49 -85 136 -116q64 -23 167 -23t167 23q88 32 135 116q55 99 55 279v811h114v-828q0 -299 -138 -418q-107 -92 -333 -92t-334 92q-139 118 -139 418zM504 1536q125 56 249 142q72 50 143 111q36 -20 54.5 -40.5t23.5 -58.5 q-36 -55 -168 -132q-146 -87 -269 -111q-25 23 -33 89z" />
<glyph unicode="&#xdb;" horiz-adv-x="1418" d="M247 490v828h114v-811q0 -181 56 -279q49 -85 136 -116q64 -23 167 -23t167 23q88 32 135 116q55 99 55 279v811h114v-828q0 -299 -138 -418q-107 -92 -333 -92t-334 92q-139 118 -139 418zM397 1493q100 59 198 138q60 48 130 118h16q151 -151 328 -256q-13 -67 -42 -85 q-70 21 -152 74q-69 44 -139 102h-8q-77 -64 -137 -102q-82 -53 -152 -74q-29 18 -42 85z" />
<glyph unicode="&#xdc;" horiz-adv-x="1418" d="M247 490v828h114v-811q0 -181 56 -279q49 -85 136 -116q64 -23 167 -23t167 23q88 32 135 116q55 99 55 279v811h114v-828q0 -299 -138 -418q-107 -92 -333 -92t-334 92q-139 118 -139 418zM461 1533q0 35 25.5 60t60.5 25t60.5 -25t25.5 -60t-25.5 -60t-60.5 -25 t-60.5 25t-25.5 60zM784 1533q0 35 25 60t60 25t61 -25t26 -60t-26 -60t-61 -25t-60 25t-25 60z" />
<glyph unicode="&#xdd;" horiz-adv-x="979" d="M30 1318l403 -826v-492h114v492l403 826h-134l-326 -668l-326 668h-134zM288 1537q8 -66 33 -89q123 24 269 111q132 77 168 132q-5 38 -23.5 58.5t-54.5 40.5q-71 -61 -143 -111q-124 -86 -249 -142z" />
<glyph unicode="&#xde;" horiz-adv-x="1169" d="M190 0v1318h114v-245h115q120 0 214.5 -11t178.5 -38.5t139 -72.5t86.5 -115.5t31.5 -165.5q0 -89 -23 -157.5t-68.5 -114.5t-102.5 -77t-135.5 -47t-155.5 -22.5t-174 -6.5h-106v-245h-114zM304 354h119q73 0 122.5 1.5t110 8.5t100 18.5t80 33t64 52t38.5 75.5t15 102 q0 75 -27.5 131.5t-74 92t-116 57t-144.5 30t-168 8.5h-119v-610z" />
<glyph unicode="&#xdf;" horiz-adv-x="1167" d="M190 6h114v1045q0 151 64 223q57 65 170 65q84 0 163 -40q96 -49 96 -119q0 -41 -24 -68q-37 -41 -138 -92q-44 -23 -79 -52q-84 -70 -84 -181q0 -83 38 -136q66 -95 215 -154q73 -30 122 -55q63 -32 97 -69t34 -91q0 -92 -98 -145q-84 -47 -195 -47q-54 0 -114 11 q-58 11 -97 26l-2 -6l-5 -101q88 -40 214 -40q173 0 291 81q125 87 125 236q0 111 -79 185q-54 49 -174 98q-132 54 -174 83q-80 53 -80 136q0 42 24 71q37 44 138 96q42 21 78 48q84 63 84 154q0 143 -133 220q-106 60 -246 60q-158 0 -242 -79q-103 -98 -103 -318v-1045z " />
<glyph unicode="&#xe0;" horiz-adv-x="1039" d="M100 300q0 -174 117 -257q88 -63 219 -63q107 0 191 46t121 116q25 -58 67.5 -101t98.5 -61l65 107q-80 18 -122 95q-38 69 -38 166v368q0 181 -98 268q-85 74 -233 74q-156 0 -316 -74l30 -106q139 70 279 70q98 0 155 -47q69 -57 69 -169v-144q-138 12 -208 12 q-208 0 -305 -77q-92 -73 -92 -223zM218 305q0 121 119 163q70 24 208 24q76 0 160 -9v-222q-90 -172 -260 -172q-104 0 -167 65q-60 58 -60 151zM284 1472q16 -24 62 -60t107 -72q146 -88 268 -111q25 23 33 89q-122 54 -248 142q-78 54 -144 111q-36 -20 -54.5 -40.5 t-23.5 -58.5z" />
<glyph unicode="&#xe1;" horiz-adv-x="1039" d="M100 300q0 -174 117 -257q88 -63 219 -63q107 0 191 46t121 116q25 -58 67.5 -101t98.5 -61l65 107q-80 18 -122 95q-38 69 -38 166v368q0 181 -98 268q-85 74 -233 74q-156 0 -316 -74l30 -106q139 70 279 70q98 0 155 -47q69 -57 69 -169v-144q-138 12 -208 12 q-208 0 -305 -77q-92 -73 -92 -223zM218 305q0 121 119 163q70 24 208 24q76 0 160 -9v-222q-90 -172 -260 -172q-104 0 -167 65q-60 58 -60 151zM284 1317q8 -66 33 -89q123 24 269 111q132 77 168 132q-5 38 -23.5 58.5t-54.5 40.5q-71 -61 -143 -111q-124 -86 -249 -142z " />
<glyph unicode="&#xe2;" horiz-adv-x="1039" d="M100 300q0 -174 117 -257q88 -63 219 -63q107 0 191 46t121 116q25 -58 67.5 -101t98.5 -61l65 107q-80 18 -122 95q-38 69 -38 166v368q0 181 -98 268q-85 74 -233 74q-156 0 -316 -74l30 -106q139 70 279 70q98 0 155 -47q69 -57 69 -169v-144q-138 12 -208 12 q-208 0 -305 -77q-92 -73 -92 -223zM183 1315q13 -67 42 -85q70 21 152 74q60 38 137 102h8q70 -58 139 -102q82 -53 152 -74q29 18 42 85q-177 105 -328 256h-16q-70 -70 -130 -118q-98 -79 -198 -138zM218 305q0 121 119 163q70 24 208 24q76 0 160 -9v-222 q-90 -172 -260 -172q-104 0 -167 65q-60 58 -60 151z" />
<glyph unicode="&#xe3;" horiz-adv-x="1039" d="M100 300q0 -174 117 -257q88 -63 219 -63q107 0 191 46t121 116q25 -58 67.5 -101t98.5 -61l65 107q-80 18 -122 95q-38 69 -38 166v368q0 181 -98 268q-85 74 -233 74q-156 0 -316 -74l30 -106q139 70 279 70q98 0 155 -47q69 -57 69 -169v-144q-138 12 -208 12 q-208 0 -305 -77q-92 -73 -92 -223zM174 1257q43 -39 107 -27q0 41 38 74q35 30 72 30q10 0 20 -2.5t16.5 -4.5t17.5 -9t15 -10t18 -13t17 -12q71 -53 143 -53q87 0 150 49q70 55 77 135q-47 37 -107 27q0 -42 -41 -73q-39 -29 -79 -29q-10 0 -20 2.5t-16.5 5t-18.5 10 t-15.5 10t-18 13t-16.5 12.5q-69 51 -134 51q-75 0 -140 -48q-75 -55 -85 -138zM218 305q0 121 119 163q70 24 208 24q76 0 160 -9v-222q-90 -172 -260 -172q-104 0 -167 65q-60 58 -60 151z" />
<glyph unicode="&#xe4;" horiz-adv-x="1039" d="M100 300q0 -174 117 -257q88 -63 219 -63q107 0 191 46t121 116q25 -58 67.5 -101t98.5 -61l65 107q-80 18 -122 95q-38 69 -38 166v368q0 181 -98 268q-85 74 -233 74q-156 0 -316 -74l30 -106q139 70 279 70q98 0 155 -47q69 -57 69 -169v-144q-138 12 -208 12 q-208 0 -305 -77q-92 -73 -92 -223zM218 305q0 121 119 163q70 24 208 24q76 0 160 -9v-222q-90 -172 -260 -172q-104 0 -167 65q-60 58 -60 151zM272 1363q0 -35 25.5 -60t60.5 -25t60.5 25t25.5 60t-25.5 60t-60.5 25t-60.5 -25t-25.5 -60zM595 1363q0 -35 25 -60t60 -25 t61 25t26 60t-26 60t-61 25t-60 -25t-25 -60z" />
<glyph unicode="&#xe5;" horiz-adv-x="1039" d="M100 300q0 -174 117 -257q88 -63 219 -63q107 0 191 46t121 116q25 -58 67.5 -101t98.5 -61l65 107q-80 18 -122 95q-38 69 -38 166v368q0 181 -98 268q-85 74 -233 74q-156 0 -316 -74l30 -106q139 70 279 70q98 0 155 -47q69 -57 69 -169v-144q-138 12 -208 12 q-208 0 -305 -77q-92 -73 -92 -223zM218 305q0 121 119 163q70 24 208 24q76 0 160 -9v-222q-90 -172 -260 -172q-104 0 -167 65q-60 58 -60 151zM319 1407q0 -80 59 -139q58 -60 141 -60q81 0 141 60q60 58 60 139t-60 139t-141 58q-83 0 -141 -58q-59 -59 -59 -139z M430 1407q0 37 27 62q27 27 62 27q36 0 63 -27t27 -62t-27 -62q-25 -27 -63 -27q-37 0 -62 27q-27 25 -27 62z" />
<glyph unicode="&#xe6;" horiz-adv-x="1564" d="M100 300q0 -174 117 -257q88 -63 219 -63q123 0 218 63q88 58 126 154q62 -109 165 -163t230 -54q148 0 297 74v107l-4 3q-84 -41 -138 -56q-64 -19 -138 -19q-156 0 -256 101q-108 108 -115 305h653v113q-2 126 -21 206q-27 112 -95 172q-83 72 -226 72 q-235 0 -344 -171q-39 90 -121 133q-73 38 -179 38q-156 0 -316 -74l30 -106q139 70 279 70q98 0 155 -47q69 -57 69 -169v-144q-138 12 -208 12q-208 0 -305 -77q-92 -73 -92 -223zM218 305q0 121 119 163q70 24 208 24q76 0 160 -9q5 -89 24 -161q-35 -112 -115 -175 q-73 -58 -169 -58q-104 0 -167 65q-60 58 -60 151zM825 608q18 158 88 244q80 96 217 96q130 0 184 -103q41 -81 41 -237h-530z" />
<glyph unicode="&#xe7;" horiz-adv-x="908" d="M100 526q0 -247 118 -389q104 -127 281 -151v-122q82 0 133 -37q49 -38 49 -92q0 -53 -47 -83q-40 -25 -88 -25q-23 0 -70 9q-35 7 -71 22q-31 -23 -37 -85q76 -51 177 -51q107 0 175 56q71 58 71 153q0 71 -38 124q-48 67 -140 89v37q101 6 205 48v93l-9 8 q-107 -40 -214 -40q-165 0 -266 107q-110 116 -110 335q0 216 110 323q96 93 266 93q109 0 213 -40l10 11v90q-118 49 -243 49q-208 0 -334 -123q-141 -138 -141 -409z" />
<glyph unicode="&#xe8;" horiz-adv-x="960" d="M100 532q0 -272 139 -419q126 -133 332 -133q148 0 297 74v107l-4 3q-84 -41 -138 -56q-64 -19 -138 -19q-156 0 -256 101q-108 108 -115 305h653v113q-2 126 -21 206q-27 112 -95 172q-83 72 -226 72q-222 0 -331 -151q-97 -134 -97 -375zM221 608q18 158 88 244 q80 96 217 96q130 0 184 -103q41 -81 41 -237h-530zM259 1472q16 -24 62 -60t107 -72q146 -88 268 -111q25 23 33 89q-122 54 -248 142q-78 54 -144 111q-36 -20 -54.5 -40.5t-23.5 -58.5z" />
<glyph unicode="&#xe9;" horiz-adv-x="960" d="M100 532q0 -272 139 -419q126 -133 332 -133q148 0 297 74v107l-4 3q-84 -41 -138 -56q-64 -19 -138 -19q-156 0 -256 101q-108 108 -115 305h653v113q-2 126 -21 206q-27 112 -95 172q-83 72 -226 72q-222 0 -331 -151q-97 -134 -97 -375zM221 608q18 158 88 244 q80 96 217 96q130 0 184 -103q41 -81 41 -237h-530zM299 1315q8 -66 33 -89q123 24 269 111q132 77 168 132q-5 38 -23.5 58.5t-54.5 40.5q-71 -61 -143 -111q-124 -86 -249 -142z" />
<glyph unicode="&#xea;" horiz-adv-x="960" d="M100 532q0 -272 139 -419q126 -133 332 -133q148 0 297 74v107l-4 3q-84 -41 -138 -56q-64 -19 -138 -19q-156 0 -256 101q-108 108 -115 305h653v113q-2 126 -21 206q-27 112 -95 172q-83 72 -226 72q-222 0 -331 -151q-97 -134 -97 -375zM168 1318q13 -67 42 -85 q70 21 152 74q60 38 137 102h8q70 -58 139 -102q82 -53 152 -74q29 18 42 85q-177 105 -328 256h-16q-70 -70 -130 -118q-98 -79 -198 -138zM221 608q18 158 88 244q80 96 217 96q130 0 184 -103q41 -81 41 -237h-530z" />
<glyph unicode="&#xeb;" horiz-adv-x="960" d="M100 532q0 -272 139 -419q126 -133 332 -133q148 0 297 74v107l-4 3q-84 -41 -138 -56q-64 -19 -138 -19q-156 0 -256 101q-108 108 -115 305h653v113q-2 126 -21 206q-27 112 -95 172q-83 72 -226 72q-222 0 -331 -151q-97 -134 -97 -375zM221 608q18 158 88 244 q80 96 217 96q130 0 184 -103q41 -81 41 -237h-530zM272 1323q0 -35 25.5 -60t60.5 -25t60.5 25t25.5 60t-25.5 60t-60.5 25t-60.5 -25t-25.5 -60zM595 1323q0 -35 25 -60t60 -25t61 25t26 60t-26 60t-61 25t-60 -25t-25 -60z" />
<glyph unicode="&#xec;" d="M12 1472q16 -24 62 -60t107 -72q146 -88 268 -111q25 23 33 89q-122 54 -248 142q-78 54 -144 111q-36 -20 -54.5 -40.5t-23.5 -58.5zM190 0h114v1038h-114v-1038z" />
<glyph unicode="&#xed;" d="M12 1316q8 -66 33 -89q123 24 269 111q132 77 168 132q-5 38 -23.5 58.5t-54.5 40.5q-71 -61 -143 -111q-124 -86 -249 -142zM190 0h114v1038h-114v-1038z" />
<glyph unicode="&#xee;" d="M-89 1317q13 -67 42 -85q70 21 152 74q60 38 137 102h8q70 -58 139 -102q82 -53 152 -74q29 18 42 85q-177 105 -328 256h-16q-70 -70 -130 -118q-98 -79 -198 -138zM190 0h114v1038h-114v-1038z" />
<glyph unicode="&#xef;" d="M0 1363q0 -35 25.5 -60t60.5 -25t60.5 25t25.5 60t-25.5 60t-60.5 25t-60.5 -25t-25.5 -60zM190 0h114v1038h-114v-1038zM323 1363q0 -35 25 -60t60 -25t61 25t26 60t-26 60t-61 25t-60 -25t-25 -60z" />
<glyph unicode="&#xf0;" horiz-adv-x="1134" d="M100 484q0 -223 125 -362q128 -142 338 -142t342 143q129 140 129 367q0 32 -3 60q-6 199 -94 376q-74 148 -205 272l211 78l-38 106l-271 -99q-154 117 -294 165l-64 -87q123 -54 226 -127l-249 -91l38 -106l317 116q111 -95 183 -206q-99 51 -220 51q-211 0 -341 -143 t-130 -371zM214 494q0 181 92 287q95 108 261 108q169 0 264 -114q89 -109 89 -293q0 -183 -89 -286q-94 -107 -259 -107q-171 0 -266 114q-92 109 -92 291z" />
<glyph unicode="&#xf1;" horiz-adv-x="1131" d="M190 0h115v828q67 52 142 84q83 36 159 36q103 0 167 -63q73 -71 73 -202v-683h115v725q0 163 -107 255q-92 78 -228 78q-145 0 -324 -116l-29 96h-83v-1038zM220 1257q43 -39 107 -27q0 41 38 74q35 30 72 30q10 0 20 -2.5t16.5 -4.5t17.5 -9t15 -10t18 -13t17 -12 q71 -53 143 -53q87 0 150 49q70 55 77 135q-47 37 -107 27q0 -42 -41 -73q-39 -29 -79 -29q-10 0 -20 2.5t-16.5 5t-18.5 10t-15.5 10t-18 13t-16.5 12.5q-69 51 -134 51q-75 0 -140 -48q-75 -55 -85 -138z" />
<glyph unicode="&#xf2;" horiz-adv-x="1134" d="M100 516q0 -226 125 -378q62 -75 148.5 -116.5t189.5 -41.5q207 0 342 159q129 152 129 383q0 227 -125 379q-131 157 -338 157q-208 0 -341 -157q-130 -153 -130 -385zM214 526q0 183 92 300q97 123 261 123q167 0 264 -128q89 -119 89 -307q0 -187 -89 -302 q-97 -123 -259 -123q-168 0 -266 130q-92 121 -92 307zM332 1472q16 -24 62 -60t107 -72q146 -88 268 -111q25 23 33 89q-122 54 -248 142q-78 54 -144 111q-36 -20 -54.5 -40.5t-23.5 -58.5z" />
<glyph unicode="&#xf3;" horiz-adv-x="1134" d="M100 516q0 -226 125 -378q62 -75 148.5 -116.5t189.5 -41.5q207 0 342 159q129 152 129 383q0 227 -125 379q-131 157 -338 157q-208 0 -341 -157q-130 -153 -130 -385zM214 526q0 183 92 300q97 123 261 123q167 0 264 -128q89 -119 89 -307q0 -187 -89 -302 q-97 -123 -259 -123q-168 0 -266 130q-92 121 -92 307zM332 1318q8 -66 33 -89q123 24 269 111q132 77 168 132q-5 38 -23.5 58.5t-54.5 40.5q-71 -61 -143 -111q-124 -86 -249 -142z" />
<glyph unicode="&#xf4;" horiz-adv-x="1134" d="M100 516q0 -226 125 -378q62 -75 148.5 -116.5t189.5 -41.5q207 0 342 159q129 152 129 383q0 227 -125 379q-131 157 -338 157q-208 0 -341 -157q-130 -153 -130 -385zM214 526q0 183 92 300q97 123 261 123q167 0 264 -128q89 -119 89 -307q0 -187 -89 -302 q-97 -123 -259 -123q-168 0 -266 130q-92 121 -92 307zM231 1318q13 -67 42 -85q70 21 152 74q60 38 137 102h8q70 -58 139 -102q82 -53 152 -74q29 18 42 85q-177 105 -328 256h-16q-70 -70 -130 -118q-98 -79 -198 -138z" />
<glyph unicode="&#xf5;" horiz-adv-x="1134" d="M100 516q0 -226 125 -378q62 -75 148.5 -116.5t189.5 -41.5q207 0 342 159q129 152 129 383q0 227 -125 379q-131 157 -338 157q-208 0 -341 -157q-130 -153 -130 -385zM214 526q0 183 92 300q97 123 261 123q167 0 264 -128q89 -119 89 -307q0 -187 -89 -302 q-97 -123 -259 -123q-168 0 -266 130q-92 121 -92 307zM221 1257q43 -39 107 -27q0 41 38 74q35 30 72 30q10 0 20 -2.5t16.5 -4.5t17.5 -9t15 -10t18 -13t17 -12q71 -53 143 -53q87 0 150 49q70 55 77 135q-47 37 -107 27q0 -42 -41 -73q-39 -29 -79 -29q-10 0 -20 2.5 t-16.5 5t-18.5 10t-15.5 10t-18 13t-16.5 12.5q-69 51 -134 51q-76 0 -140 -48q-75 -55 -85 -138z" />
<glyph unicode="&#xf6;" horiz-adv-x="1134" d="M100 516q0 -226 125 -378q62 -75 148.5 -116.5t189.5 -41.5q207 0 342 159q129 152 129 383q0 227 -125 379q-131 157 -338 157q-208 0 -341 -157q-130 -153 -130 -385zM214 526q0 183 92 300q97 123 261 123q167 0 264 -128q89 -119 89 -307q0 -187 -89 -302 q-97 -123 -259 -123q-168 0 -266 130q-92 121 -92 307zM319 1363q0 -35 25.5 -60t60.5 -25t60.5 25t25.5 60t-25.5 60t-60.5 25t-60.5 -25t-25.5 -60zM642 1363q0 -35 25 -60t60 -25t61 25t26 60t-26 60t-61 25t-60 -25t-25 -60z" />
<glyph unicode="&#xf7;" horiz-adv-x="1030" d="M120 510h790v112h-790v-112zM428 208q0 -34 26 -58q24 -26 59 -26q34 0 60 26q26 24 26 58q0 33 -26 59q-27 25 -60 25q-34 0 -59 -25q-26 -26 -26 -59zM428 924q0 -34 26 -58q24 -26 59 -26q34 0 60 26q26 24 26 58q0 33 -26 59q-27 25 -60 25q-34 0 -59 -25 q-26 -26 -26 -59z" />
<glyph unicode="&#xf8;" horiz-adv-x="1134" d="M100 516q0 -153 62 -280q63 -129 173 -195l-76 -209l105 -39l74 204q62 -17 125 -17q207 0 342 159q129 152 129 383q0 155 -61 279q-62 126 -172 194l81 222l-105 39l-79 -216q-59 18 -127 18q-208 0 -341 -157q-130 -153 -130 -385zM214 526q0 183 92 300 q97 123 261 123q51 0 94 -12l-287 -787q-78 58 -119 158q-41 95 -41 218zM476 101l286 787q77 -56 117.5 -154.5t40.5 -219.5q0 -187 -89 -302q-97 -123 -259 -123q-52 0 -96 12z" />
<glyph unicode="&#xf9;" horiz-adv-x="1131" d="M170 313q0 -163 108 -254q92 -79 227 -79q79 0 172 35q73 27 158 83l30 -98h76v1038h-115v-828q-62 -48 -141 -84q-84 -37 -160 -37q-103 0 -167 64q-73 71 -73 202v683h-115v-725zM330 1472q16 -24 62 -60t107 -72q146 -88 268 -111q25 23 33 89q-122 54 -248 142 q-78 54 -144 111q-36 -20 -54.5 -40.5t-23.5 -58.5z" />
<glyph unicode="&#xfa;" horiz-adv-x="1131" d="M170 313q0 -163 108 -254q92 -79 227 -79q79 0 172 35q73 27 158 83l30 -98h76v1038h-115v-828q-62 -48 -141 -84q-84 -37 -160 -37q-103 0 -167 64q-73 71 -73 202v683h-115v-725zM330 1317q8 -66 33 -89q123 24 269 111q132 77 168 132q-5 38 -23.5 58.5t-54.5 40.5 q-71 -61 -143 -111q-124 -86 -249 -142z" />
<glyph unicode="&#xfb;" horiz-adv-x="1131" d="M170 313q0 -163 108 -254q92 -79 227 -79q79 0 172 35q73 27 158 83l30 -98h76v1038h-115v-828q-62 -48 -141 -84q-84 -37 -160 -37q-103 0 -167 64q-73 71 -73 202v683h-115v-725zM229 1317q13 -67 42 -85q70 21 152 74q60 38 137 102h8q70 -58 139 -102q82 -53 152 -74 q29 18 42 85q-177 105 -328 256h-16q-70 -70 -130 -118q-98 -79 -198 -138z" />
<glyph unicode="&#xfc;" horiz-adv-x="1131" d="M170 313q0 -163 108 -254q92 -79 227 -79q79 0 172 35q73 27 158 83l30 -98h76v1038h-115v-828q-62 -48 -141 -84q-84 -37 -160 -37q-103 0 -167 64q-73 71 -73 202v683h-115v-725zM318 1363q0 -35 25.5 -60t60.5 -25t60.5 25t25.5 60t-25.5 60t-60.5 25t-60.5 -25 t-25.5 -60zM641 1363q0 -35 25 -60t60 -25t61 25t26 60t-26 60t-61 25t-60 -25t-25 -60z" />
<glyph unicode="&#xfd;" horiz-adv-x="906" d="M-60 -426q112 -52 210 -52q94 0 162 47q79 54 114 161l450 1308h-126l-294 -853l-294 853h-129l358 -1038l-60 -191q-23 -75 -72.5 -112t-115.5 -37q-68 0 -138 39zM222 1317q8 -66 33 -89q123 24 269 111q132 77 168 132q-5 38 -23.5 58.5t-54.5 40.5q-71 -61 -143 -111 q-124 -86 -249 -142z" />
<glyph unicode="&#xfe;" horiz-adv-x="354" d="M-229 -478h115v507q120 -49 243 -49q199 0 328 158q127 156 127 394q0 226 -113 373q-119 153 -319 153q-147 0 -266 -91v461h-13l-102 -20v-1886zM-114 151v688q102 110 251 110q164 0 252 -122q79 -111 79 -294q0 -207 -102 -328q-96 -114 -244 -114q-114 0 -236 60z " />
<glyph unicode="&#xff;" horiz-adv-x="906" d="M-60 -426q112 -52 210 -52q94 0 162 47q79 54 114 161l450 1308h-126l-294 -853l-294 853h-129l358 -1038l-60 -191q-23 -75 -72.5 -112t-115.5 -37q-68 0 -138 39zM209 1363q0 -35 25.5 -60t60.5 -25t60.5 25t25.5 60t-25.5 60t-60.5 25t-60.5 -25t-25.5 -60zM532 1363 q0 -35 25 -60t60 -25t61 25t26 60t-26 60t-61 25t-60 -25t-25 -60z" />
<glyph unicode="&#x152;" horiz-adv-x="1686" d="M100 656q0 -288 163 -479q80 -94 191.5 -145.5t245.5 -51.5q86 0 168 20h758v113h-644v490h644v112h-644v490h644v113h-758v-1q-75 21 -159 21q-134 0 -246.5 -51t-194.5 -144q-168 -192 -168 -487zM216 667q0 247 130 402q134 160 358 160q83 0 164 -27v-1090 q-75 -23 -156 -23q-230 0 -366 170q-130 159 -130 408z" />
<glyph unicode="&#x153;" horiz-adv-x="1780" d="M100 516q0 -226 125 -378q62 -75 148.5 -116.5t189.5 -41.5q137 0 247 73q104 69 163 191q58 -131 171 -199q106 -65 247 -65q148 0 297 74v107l-4 3q-84 -41 -138 -56q-64 -19 -138 -19q-156 0 -256 101q-108 108 -115 305h653v113q-2 126 -21 206q-27 112 -95 172 q-83 72 -226 72q-146 0 -244 -67q-93 -63 -137 -178q-61 113 -159 178q-104 67 -237 67q-208 0 -341 -157q-130 -153 -130 -385zM214 526q0 183 92 300q97 123 261 123q167 0 264 -128q89 -119 89 -307q0 -187 -89 -302q-97 -123 -259 -123q-168 0 -266 130q-92 121 -92 307 zM1041 608q18 158 88 244q80 96 217 96q130 0 184 -103q41 -81 41 -237h-530z" />
<glyph unicode="&#x178;" horiz-adv-x="979" d="M30 1318l403 -826v-492h114v492l403 826h-134l-326 -668l-326 668h-134zM242 1533q0 -35 25.5 -60t60.5 -25t60.5 25t25.5 60t-25.5 60t-60.5 25t-60.5 -25t-25.5 -60zM565 1533q0 -35 25 -60t60 -25t61 25t26 60t-26 60t-61 25t-60 -25t-25 -60z" />
<glyph unicode="&#x2c6;" horiz-adv-x="872" d="M100 1143q13 -67 42 -85q70 21 152 74q60 38 137 102h8q70 -58 139 -102q82 -53 152 -74q29 18 42 85q-177 105 -328 256h-16q-70 -70 -130 -118q-98 -79 -198 -138z" />
<glyph unicode="&#x2dc;" horiz-adv-x="891" d="M100 1088q43 -39 107 -27q0 41 38 74q35 30 72 30q10 0 20 -2.5t16.5 -4.5t17.5 -9t15 -10t18 -13t17 -12q71 -53 143 -53q87 0 150 49q70 55 77 135q-47 37 -107 27q0 -42 -41 -73q-39 -29 -79 -29q-10 0 -20 2.5t-16.5 5t-18.5 10t-15.5 10t-18 13t-16.5 12.5 q-69 51 -134 51q-75 0 -140 -48q-75 -55 -85 -138z" />
<glyph unicode="&#x2000;" horiz-adv-x="902" />
<glyph unicode="&#x2001;" horiz-adv-x="1804" />
<glyph unicode="&#x2002;" horiz-adv-x="902" />
<glyph unicode="&#x2003;" horiz-adv-x="1804" />
<glyph unicode="&#x2004;" horiz-adv-x="601" />
<glyph unicode="&#x2005;" horiz-adv-x="451" />
<glyph unicode="&#x2006;" horiz-adv-x="300" />
<glyph unicode="&#x2007;" horiz-adv-x="300" />
<glyph unicode="&#x2008;" horiz-adv-x="225" />
<glyph unicode="&#x2009;" horiz-adv-x="360" />
<glyph unicode="&#x200a;" horiz-adv-x="100" />
<glyph unicode="&#x2010;" horiz-adv-x="650" d="M75 526h500v112h-500v-112z" />
<glyph unicode="&#x2011;" horiz-adv-x="650" d="M75 526h500v112h-500v-112z" />
<glyph unicode="&#x2012;" horiz-adv-x="650" d="M75 526h500v112h-500v-112z" />
<glyph unicode="&#x2013;" horiz-adv-x="1101" d="M75 526h951v112h-951v-112z" />
<glyph unicode="&#x2014;" horiz-adv-x="1250" d="M75 526h1100v112h-1100v-112z" />
<glyph unicode="&#x2018;" horiz-adv-x="376" d="M100 1235q0 -47 30 -73q24 -21 58 -21q35 0 60 25.5t25 60.5q-34 47 -34 81q0 36 37 99l-32 41q-54 -29 -96 -87q-48 -67 -48 -126z" />
<glyph unicode="&#x2019;" horiz-adv-x="376" d="M100 1182l32 -41q54 29 96 87q48 67 48 126q0 47 -30 73q-24 21 -58 21q-35 0 -60 -25.5t-25 -60.5q34 -47 34 -81q0 -36 -37 -99z" />
<glyph unicode="&#x201a;" horiz-adv-x="376" d="M100 -118l32 -41q54 29 96 87q48 67 48 126q0 47 -30 73q-24 21 -57 21q-35 0 -60.5 -25.5t-25.5 -60.5q35 -47 35 -81t-38 -99z" />
<glyph unicode="&#x201c;" horiz-adv-x="624" d="M100 1235q0 -47 30 -73q22 -21 56 -21q35 0 60.5 25.5t25.5 60.5q-34 45 -34 81q0 37 38 99l-33 41q-55 -29 -95 -87q-48 -67 -48 -126zM348 1235q0 -47 30 -73q24 -21 58 -21q35 0 60 25.5t25 60.5q-34 47 -34 81q0 36 37 99l-32 41q-54 -29 -96 -87q-48 -67 -48 -126z " />
<glyph unicode="&#x201d;" horiz-adv-x="624" d="M100 1182l32 -41q54 29 96 87q48 67 48 126q0 47 -30 73q-24 21 -58 21q-35 0 -60 -25.5t-25 -60.5q34 -47 34 -81q0 -36 -37 -99zM348 1182l33 -41q54 29 96 87q47 68 47 126q0 46 -29 73q-24 21 -57 21q-35 0 -60.5 -25.5t-25.5 -60.5q34 -45 34 -81q0 -37 -38 -99z " />
<glyph unicode="&#x201e;" horiz-adv-x="624" d="M100 -118l32 -41q54 29 96 87q48 67 48 126q0 47 -30 73q-24 21 -58 21q-35 0 -60 -25.5t-25 -60.5q34 -47 34 -81q0 -36 -37 -99zM348 -118l33 -41q55 29 95 87q48 67 48 126q0 47 -30 73q-22 21 -56 21q-35 0 -60.5 -25.5t-25.5 -60.5q34 -45 34 -81q0 -37 -38 -99z " />
<glyph unicode="&#x2022;" horiz-adv-x="789" d="M120 518q0 -110 80 -192t194 -82q113 0 195 82q80 80 80 192q0 113 -80 193q-81 81 -195 81q-115 0 -194 -81q-80 -82 -80 -193z" />
<glyph unicode="&#x2026;" horiz-adv-x="1113" d="M100 64q0 -34 26 -58q24 -26 59 -26q34 0 60 26q26 24 26 58q0 33 -26 59q-27 25 -60 25q-34 0 -59 -25q-26 -26 -26 -59zM471 64q0 -34 26 -58q24 -26 59 -26q34 0 60 26q26 24 26 58q0 33 -26 59q-27 25 -60 25q-34 0 -59 -25q-26 -26 -26 -59zM842 64q0 -34 26 -58 q24 -26 59 -26q34 0 60 26q26 24 26 58q0 33 -26 59q-27 25 -60 25q-34 0 -59 -25q-26 -26 -26 -59z" />
<glyph unicode="&#x202f;" horiz-adv-x="360" />
<glyph unicode="&#x2039;" horiz-adv-x="761" d="M120 714l424 -734l97 56l-392 678l392 678l-97 56z" />
<glyph unicode="&#x203a;" horiz-adv-x="761" d="M120 36l97 -56l424 734l-424 734l-97 -56l392 -678z" />
<glyph unicode="&#x205f;" horiz-adv-x="451" />
<glyph unicode="&#x20ac;" horiz-adv-x="1707" d="M46 475l4 -4h174q45 -225 198 -353q164 -137 432 -137q157 0 283 37l-19 99l-8 4q-102 -32 -231 -32q-226 0 -363 104q-129 98 -172 278h497l40 108l-4 4h-551q-3 37 -3 77q0 42 3 83h611l40 108l-4 4h-628q45 178 174 273q139 101 357 101q101 0 225 -32l35 99 q-57 20 -146 33q-63 9 -137 9q-237 0 -401 -122q-173 -128 -225 -361h-141l-40 -108l4 -4h159q-3 -42 -3 -86v-37q0 -13 2 -37h-122z" />
<glyph unicode="&#x2122;" horiz-adv-x="1404" d="M45 1225h204v-547h117v547h204v112h-525v-112zM665 678h115v490l156 -300h85l153 298v-488h120v659h-145l-169 -332h-2l-168 332h-145v-659z" />
<glyph unicode="&#x25fc;" horiz-adv-x="1040" d="M0 0v1040h1040v-1040h-1040z" />
<glyph unicode="&#xfb03;" horiz-adv-x="1800" d="M50 925h189v-925h114v925h519v-925h114v925h255v113h-255v13q0 156 69 227q59 60 168 60q145 0 339 -89l77 80q-103 53 -217 85q-123 34 -221 34q-163 0 -244 -96q-214 96 -389 96q-152 0 -233 -84q-96 -98 -96 -313v-13h-189v-113zM353 1038v13q0 156 69 227 q59 60 168 60q137 0 314 -78q-32 -90 -32 -209v-13h-519zM1505 0h114v1038h-114v-1038z" />
<glyph unicode="&#xfb04;" horiz-adv-x="1806" d="M50 925h189v-925h114v925h517v-925h114v925h255v113h-255v13q0 173 62 235q52 52 185 52q115 0 270 -21v-1317h115v1448h-13l-101 -20q-187 20 -294 20q-184 0 -260 -92q-207 92 -380 92q-152 0 -233 -84q-96 -98 -96 -313v-13h-189v-113zM353 1038v13q0 156 69 227 q59 60 168 60q134 0 308 -75q-28 -81 -28 -212v-13h-517z" />
</font>
</defs>
</svg>
